<?xml version="1.0" standalone="no"?>
<!DOCTYPE svg PUBLIC "-//W3C//DTD SVG 20010904//EN"
 "http://www.w3.org/TR/2001/REC-SVG-20010904/DTD/svg10.dtd">
<svg version="1.0" xmlns="http://www.w3.org/2000/svg"
 width="1044.000000pt" height="1044.000000pt" viewBox="0 0 1044.000000 1044.000000"
 preserveAspectRatio="xMidYMid meet">
<metadata>
Created by potrace 1.14, written by Peter Selinger 2001-2017
</metadata>
<g transform="translate(0.000000,1044.000000) scale(0.100000,-0.100000)"
fill="#000000" stroke="none">
<path d="M7091 8290 c-9 -18 -7 -477 2 -486 3 -4 149 -6 324 -5 443 3 505 3
509 -2 3 -2 5 -392 7 -866 1 -473 6 -861 10 -861 5 0 5 -5 1 -11 -4 -6 -6
-194 -5 -418 7 -1400 13 -3182 12 -3236 -1 -20 -8 -20 -404 -20 -221 0 -410
-1 -420 -3 -16 -4 -17 -22 -16 -254 1 -180 5 -248 13 -245 6 2 19 0 29 -5 9
-5 17 -5 17 -1 0 7 295 9 325 3 6 -1 15 -1 20 0 6 2 249 4 542 5 292 2 535 5
540 8 9 6 10 404 0 413 -3 4 -3 14 2 23 5 9 7 25 4 36 -6 32 -5 81 1 103 4 11
2 23 -3 26 -6 4 -6 18 0 38 5 20 5 36 -2 44 -7 8 -7 14 1 19 6 4 7 12 1 23 -5
10 -6 36 -1 59 4 24 5 45 2 47 -7 8 -6 135 1 142 3 3 2 16 -2 28 -4 11 -6 37
-5 56 4 70 5 96 1 165 -2 39 1 76 6 83 5 6 6 12 1 12 -5 0 -10 317 -11 718 -3
1246 -11 2897 -13 2907 -1 6 -1 15 0 20 6 28 4 105 -3 105 -5 0 -5 6 0 13 9
15 10 31 2 80 -4 20 -2 40 2 43 5 3 4 14 -1 25 -8 13 -7 19 0 19 8 0 8 6 0 20
-8 14 -8 20 0 20 7 0 8 6 1 19 -6 10 -7 21 -4 25 4 3 5 32 4 64 -2 31 -4 271
-6 532 -1 261 -3 478 -4 481 0 3 -332 5 -737 5 -644 -1 -737 -3 -743 -16z"/>
<path d="M2014 8292 l-31 -3 4 -1022 c3 -562 5 -1349 6 -1749 1 -401 5 -728 9
-728 4 0 3 -12 0 -27 -6 -22 -6 -144 -1 -218 0 -5 0 -37 -1 -70 0 -33 0 -81 0
-106 0 -26 0 -51 -1 -55 -1 -5 -1 -11 0 -14 2 -5 9 -1598 10 -2176 l1 -251
740 2 c408 1 743 5 747 8 6 7 5 488 -1 495 -4 4 -164 5 -181 2 -5 -1 -13 -2
-17 -1 -9 3 -105 3 -115 1 -5 -1 -28 -1 -53 -1 -61 2 -61 2 -90 -2 -14 -2 -37
0 -52 4 -16 4 -28 5 -28 1 0 -4 -11 -7 -25 -7 -14 0 -25 4 -25 8 0 5 -4 6 -9
2 -8 -4 -202 -10 -236 -6 -7 1 -10 248 -10 721 0 396 -2 720 -5 720 -3 0 -6
386 -7 858 -2 471 -3 862 -3 867 0 6 1 21 3 35 2 14 0 37 -4 53 -4 15 -5 27
-1 27 6 0 7 116 2 130 -1 3 -1 10 0 15 5 23 2 103 -4 114 -4 6 -3 11 1 11 9 0
8 63 -1 79 -4 5 -2 12 3 16 7 4 7 15 1 30 -6 16 -6 25 1 25 6 0 6 6 0 18 -5 9
-10 19 -12 22 -1 3 3 15 10 28 8 15 8 22 1 22 -6 0 -9 4 -6 8 6 10 7 61 3 117
-2 22 0 47 5 56 4 9 4 19 1 23 -9 9 -9 136 0 136 5 0 5 6 1 12 -5 7 -9 295 -9
640 l-2 628 101 1 c56 0 245 1 421 2 l320 2 0 251 0 251 -715 -1 c-393 -1
-729 -2 -746 -4z"/>
<path d="M5380 6603 c0 -4 -182 -8 -405 -8 l-405 0 -1 -35 c0 -41 2 -673 3
-1097 l2 -293 45 0 c55 -1 518 1 946 3 l310 2 -2 455 c-1 250 -2 571 -2 714
-1 253 -1 258 -21 253 -11 -3 -20 -2 -20 1 0 4 -13 7 -30 7 -16 0 -30 -2 -30
-5 0 -3 -13 -5 -30 -5 -16 0 -30 2 -30 5 0 6 -101 2 -107 -4 -3 -3 -16 -1 -29
4 -13 5 -24 6 -24 2 0 -9 -144 -7 -159 2 -6 4 -11 4 -11 -1z"/>
<path d="M5485 3882 c-2 -2 -206 -4 -454 -5 l-451 -2 2 -535 c1 -294 -1 -548
-5 -565 -7 -29 -12 -51 -22 -105 -3 -14 -7 -36 -11 -50 -3 -14 -7 -38 -9 -55
-2 -16 -9 -50 -15 -75 -6 -25 -13 -56 -15 -70 -2 -14 -13 -70 -24 -125 -12
-55 -24 -116 -27 -135 -8 -45 -12 -64 -14 -67 -2 -2 -3 -11 -5 -20 -1 -10 -5
-34 -9 -53 -4 -19 -9 -44 -11 -55 -2 -11 -4 -20 -5 -20 -1 0 -3 -9 -4 -20 -2
-11 -10 -56 -20 -100 -9 -44 -18 -94 -21 -110 -3 -17 -11 -59 -19 -95 -8 -36
-17 -82 -20 -102 -3 -21 -10 -58 -16 -83 -6 -25 -13 -60 -15 -79 -6 -32 -5
-33 37 -35 24 -2 50 -2 58 -2 8 0 29 1 45 0 17 0 37 0 45 0 8 1 31 1 50 0 19
0 40 0 45 0 9 1 112 1 145 1 8 0 54 0 101 2 47 1 91 -2 97 -6 7 -4 12 -4 12 1
0 4 36 8 80 8 47 0 80 -4 80 -10 0 -5 4 -4 9 3 4 8 11 13 15 13 19 -3 29 0 23
6 -4 3 -2 11 3 18 5 6 53 99 106 206 53 107 102 197 108 201 6 4 8 8 4 8 -3 0
21 53 54 118 92 179 138 271 139 277 0 2 24 48 53 102 28 54 80 157 116 228
35 72 68 132 72 133 4 2 8 9 8 17 0 7 19 48 42 91 l42 79 1 427 c0 237 -4 428
-9 428 -5 0 -4 6 2 13 7 8 7 18 2 27 -5 8 -6 19 -2 24 3 6 6 39 6 74 1 58 -1
63 -23 69 -24 6 -370 11 -376 5z"/>
<path d="M6009 1732 c-37 -2 -49 -8 -59 -27 -7 -14 -17 -25 -22 -25 -4 0 -8
-4 -8 -10 0 -5 -8 -18 -17 -29 -10 -10 -29 -33 -43 -51 -14 -17 -29 -37 -35
-44 -5 -6 -23 -29 -40 -51 -35 -47 -38 -51 -104 -131 -28 -34 -51 -66 -51 -71
0 -5 -8 -15 -17 -24 -10 -8 -29 -30 -43 -49 -14 -18 -29 -38 -35 -44 -5 -6
-30 -38 -55 -71 -25 -33 -49 -65 -55 -71 -19 -22 -40 -49 -70 -89 -16 -22 -32
-42 -35 -45 -39 -38 -40 -38 159 -38 l189 0 70 67 c38 36 136 129 217 206 81
77 161 153 177 169 l29 29 26 -24 c15 -13 52 -49 84 -79 31 -30 112 -107 179
-170 68 -63 142 -134 165 -156 l42 -41 186 -1 c184 0 186 0 176 20 -16 29
-209 272 -220 276 -5 2 -9 8 -9 13 0 5 -38 58 -85 117 -106 133 -88 111 -175
222 -41 52 -77 97 -80 100 -3 3 -25 31 -49 63 -39 51 -48 57 -80 58 -20 0 -88
1 -151 2 -63 1 -136 1 -161 -1z"/>
</g>
</svg>
