<svg id="Layer_1" xmlns="http://www.w3.org/2000/svg" viewBox="0 0 78.1 87.9"><style>.st0{fill:#009bde}</style><path d="M71 55.1v18.6c0 2-.8 3.7-2.5 5-1.6 1.2-3.5 1.9-5.6 1.9-2.1 0-4.1-.7-5.7-1.9-1.7-1.3-2.6-3.1-2.6-5.1V55.1h-6.8v18.5c0 2.6.7 5 2 7.2s3.1 3.9 5.4 5.1c2.3 1.3 4.8 1.9 7.5 2 1.7 0 3.4-.4 5.2-1.1 1.8-.7 3.5-1.8 5-3.1s2.8-2.9 3.7-4.7c.9-1.8 1.4-3.7 1.4-5.6V55.1h-7zM8.8 57.2c.8-.5 1.7-.9 2.4-1.2.8-.3 1.6-.5 2.3-.7.8-.1 1.6-.2 2.6-.2 2.2 0 4.3.4 6.3 1.3s3.7 2 5.2 3.6c1.5 1.5 2.6 3.3 3.4 5.3.8 2 1.2 4.1 1.2 6.3 0 2.8-.7 5.5-2.1 7.9-1.4 2.5-3.3 4.4-5.7 5.9-2.4 1.5-5 2.2-7.8 2.3-2.2 0-4.4-.4-6.4-1.1-2.1-.8-3.9-1.9-5.4-3.2-1.6-1.4-2.8-3-3.7-4.9-.9-1.9-1.3-3.9-1.3-6V32.7h6.7v39.4c0 1.7.5 3.2 1.4 4.6.9 1.4 2.1 2.5 3.5 3.2 1.5.8 3 1.2 4.7 1.2.3 0 .7 0 1.4-.1 1.2-.2 2.2-.6 3.2-1.2.9-.6 1.8-1.3 2.4-2.3.7-.9 1.2-1.9 1.6-3 .4-1.1.5-2.2.5-3.4 0-.8-.1-1.5-.2-2.1-.3-1.5-.9-2.7-1.8-3.7s-2-1.8-3.2-2.3c-1.2-.5-2.6-.8-3.9-.8-1.5 0-2.8.3-4.2.8-1.3.6-2.4 1.4-3.3 2.4v-8.2zm27.5 30.4v-55h7.3v55h-7.3z"/><path class="st0" d="M37.9 28c1.1 2 3 2 4.1 0L56.1 3.7c1.1-2 .2-3.6-2.1-3.6H25.8c-2.3 0-3.2 1.6-2.1 3.6L37.9 28z"/><path d="M74.9 86.4c0-.9.7-1.6 1.6-1.6.9 0 1.6.7 1.6 1.6 0 .9-.7 1.6-1.6 1.6-.9-.1-1.6-.8-1.6-1.6zm2.9 0c0-.7-.6-1.3-1.3-1.3-.7 0-1.3.6-1.3 1.3 0 .7.6 1.3 1.3 1.3.7 0 1.3-.6 1.3-1.3zm-.6.8h-.3l-.5-.8h-.3v.8h-.2v-1.7h.7c.3 0 .6.1.6.5 0 .3-.2.5-.5.5l.5.7zm-.8-1c.2 0 .6 0 .6-.2s-.2-.2-.4-.2h-.5v.4h.3z"/></svg>