<svg class="w-full h-full" width="76" height="40" viewBox="0 0 76 40" fill="none" xmlns="http://www.w3.org/2000/svg">
    <path class="text-white" fill-rule="evenodd" clip-rule="evenodd"
        d="M 44.6 26 C 44.6 23.9 43 22.2 40.9 22.2 C 38.8 22.2 37.1 23.8 37.1 26 C 37.1 28.2 38.8 29.8 40.9 29.8 C 43 29.8 44.6 28.1 44.6 26 Z M 33.3 26 C 33.3 21 37 18.6 40.2 18.6 C 42 18.6 43.5 19.4 44.4 20.4 V 18.9 H 48.3 V 32.9 C 48.3 37.2 45.2 40 41.5 40 C 37.4 40 34.8 37.6 34 34.5 H 38.2 C 38.7 35.7 39.6 36.3 41.5 36.3 C 43.2 36.3 44.4 34.9 44.4 33 V 31.6 C 43.5 32.7 42 33.4 40.1 33.4 C 37.1 33.4 33.3 31 33.3 26 Z M 28.3 26 C 28.3 23.8 26.7 22.2 24.5 22.2 C 22.3 22.2 20.8 23.9 20.8 26 C 20.8 28.1 22.3 29.8 24.5 29.8 C 26.7 29.8 28.3 28.2 28.3 26 Z M 21 31.7 V 39.7 H 17.1 V 18.9 H 21 V 20.5 C 21.9 19.4 23.3 18.6 25.2 18.6 C 28.4 18.6 32.1 21 32.1 26 C 32.1 31 28.3 33.4 25.3 33.4 C 23.4 33.4 21.9 32.8 21 31.7 Z M 11.3 26 C 11.3 23.9 9.8 22.2 7.6 22.2 C 5.5 22.2 3.8 23.8 3.8 26 C 3.8 28.2 5.5 29.8 7.6 29.8 C 9.8 29.8 11.3 28.1 11.3 26 Z M 0 26 C 0 21 3.7 18.6 6.9 18.6 C 8.8 18.6 10.2 19.3 11.2 20.3 V 12.3 H 15.1 V 33.1 H 11.2 V 31.6 C 10.2 32.7 8.7 33.4 6.9 33.4 C 3.8 33.4 0 31 0 26 Z"
        fill="currentColor"></path>
    <path class="text-white" fill-rule="evenodd" clip-rule="evenodd"
        d="M 47.5 14.3 C 47.5 15.1 46.9 15.7 46.1 15.7 C 45.3 15.7 44.7 15.1 44.7 14.3 C 44.7 13.5 45.3 12.9 46.1 12.9 C 46.9 12.9 47.5 13.5 47.5 14.3 Z M 43.7 14.3 C 43.7 15.7 44.8 16.6 45.9 16.6 C 46.5 16.6 47.1 16.3 47.4 15.9 V 16.5 H 48.3 V 12.1 H 47.4 V 12.7 C 47.1 12.3 46.5 12 45.9 12 C 44.8 12 43.7 12.9 43.7 14.3 Z M 41.9 16.5 H 42.8 V 12.1 H 41.9 V 16.5 Z M 42.3 10.2 C 42 10.2 41.7 10.4 41.7 10.8 C 41.7 11.2 42 11.4 42.3 11.4 C 42.7 11.4 43 11.2 43 10.8 C 43 10.4 42.7 10.2 42.3 10.2 Z M 39.7 14.3 C 39.7 15.1 39.1 15.7 38.3 15.7 C 37.6 15.7 37 15.1 37 14.3 C 37 13.5 37.6 12.9 38.3 12.9 C 39.1 12.9 39.7 13.5 39.7 14.3 Z M 36 14.3 C 36 15.7 37.1 16.6 38.2 16.6 C 38.8 16.6 39.3 16.3 39.7 15.9 V 16.5 H 40.6 V 10.1 H 39.7 V 12.7 C 39.4 12.3 38.8 12 38.2 12 C 37.1 12 36 12.9 36 14.3 Z M 31.6 13.8 C 31.7 13.2 32.2 12.8 32.9 12.8 C 33.5 12.8 34 13.2 34.2 13.8 H 31.6 Z M 30.6 14.3 C 30.6 15.6 31.5 16.6 32.9 16.6 C 34 16.6 34.7 16 35.1 15 H 34.1 C 33.9 15.5 33.5 15.8 32.9 15.8 C 32.1 15.8 31.6 15.3 31.5 14.6 H 35.1 V 14.3 C 35.1 13 34.2 12 32.9 12 C 31.6 12 30.6 13 30.6 14.3 Z M 22.7 12.1 H 23.6 V 12.6 C 23.9 12.2 24.4 12 24.9 12 C 25.6 12 26.1 12.3 26.4 12.8 C 26.7 12.3 27.2 12 27.9 12 C 29.1 12 29.7 12.7 29.7 13.9 V 16.5 H 28.7 V 13.9 C 28.7 13.3 28.4 12.8 27.7 12.8 C 27.1 12.8 26.7 13.2 26.7 14 V 16.5 H 25.7 V 13.9 C 25.7 13.2 25.3 12.8 24.7 12.8 C 24.1 12.8 23.6 13.2 23.6 14.1 V 16.5 H 22.7 V 12.1 Z"
        fill="currentColor"></path>
    <mask id="mask0_4266_33119" style="mask-type:alpha" maskUnits="userSpaceOnUse" x="0" y="0" width="76" height="40">
        <path fill-rule="evenodd" clip-rule="evenodd" d="M 0 40 H 76 V 0 H 0 V 40 Z" fill="white"></path>
    </mask>
    <g mask="url(#mask0_4266_33119)">
        <path class="text-white" fill-rule="evenodd" clip-rule="evenodd"
            d="M 53.1 16.5 H 57 V 10.1 H 53.1 V 16.5 Z" fill="#783c96"></path>
        <path class="text-white" fill-rule="evenodd" clip-rule="evenodd"
            d="M 72.1 12.1 H 76 V 5.2 H 72.1 V 12.1 Z" fill="#fabb21"></path>
        <path class="text-white" fill-rule="evenodd" clip-rule="evenodd"
            d="M 59.4 18.9 H 63.3 V 5.2 H 59.4 V 18.9 Z" fill="#d23278"></path>
        <path class="text-white" fill-rule="evenodd" clip-rule="evenodd"
            d="M 69.7 0 L 65.8 0 L 65.7 16.5 L 69.6 16.5 L 69.7 0 Z" fill="#e5463c">
        </path>
    </g>
</svg>