<svg width="172" height="26" viewBox="0 0 172 26" fill="none" xmlns="http://www.w3.org/2000/svg">
<g clip-path="url(#clip0_147_4382)">
<path d="M24.4787 0.760742H0V25.2394H24.4787V17.2654H20.4745C18.9306 20.2401 15.8223 22.2723 12.2394 22.2723C7.11844 22.2723 2.96712 18.121 2.96712 13.0001C2.96712 7.87918 7.11844 3.72786 12.2394 3.72786C16.7905 3.72786 20.5758 7.00679 21.3618 11.3312H11.1267V14.2983H24.4787V0.760742Z" fill="#37A54B"/>
<path fill-rule="evenodd" clip-rule="evenodd" d="M167.548 6.33666C167.548 4.98086 168.565 4.1438 169.775 4.1438C170.984 4.1438 172.002 4.98086 172.002 6.33666C172.002 7.68656 170.984 8.52952 169.775 8.52952C168.565 8.52952 167.548 7.68656 167.548 6.33666ZM167.901 6.33666C167.901 7.49793 168.757 8.2171 169.775 8.2171C170.787 8.2171 171.649 7.49793 171.649 6.33666C171.649 5.16949 170.787 4.45622 169.775 4.45622C168.757 4.45622 167.901 5.16949 167.901 6.33666ZM169.877 5.11644C170.439 5.11644 170.745 5.37581 170.745 5.8356C170.745 6.15392 170.559 6.39561 170.242 6.49582L170.828 7.50972H170.278L169.757 6.54887H169.422V7.50972H168.925V5.11644H169.877ZM169.823 5.4996H169.422V6.1775H169.823C170.092 6.1775 170.242 6.05371 170.242 5.8356C170.242 5.6116 170.104 5.4996 169.823 5.4996ZM39.7056 7.24669H49.4062V4.28426H36.3477V21.7161H49.3565V18.7536H39.7056V14.2983H48.4859V11.3306H39.7056V7.24669ZM67.0744 4.28426H63.5921L60.458 13.294C59.745 15.4321 59.1895 17.2439 58.7915 18.7292C58.3604 17.1786 57.7966 15.3668 57.1001 13.294L53.8914 4.28426H50.3097L56.8016 21.7161H60.7317L67.0744 4.28426ZM81.0704 7.24669H71.3697V11.3598H80.1501V14.1998H71.3697V18.7536H81.0207V21.7161H68.0118V4.28426H81.0704V7.24669ZM97.1961 21.7161C96.8645 21.2264 96.682 20.5491 96.6489 19.684L96.4996 17.0888C96.4665 16.1095 96.2592 15.3179 95.8778 14.714C95.513 14.1101 94.8663 13.6612 93.9377 13.3674C94.8994 13.041 95.6291 12.5187 96.1265 11.8005C96.6406 11.0823 96.8976 10.2173 96.8976 9.20532C96.8976 7.7037 96.3504 6.5122 95.256 5.63082C94.1781 4.73312 92.6443 4.28426 90.6544 4.28426H82.6202V21.7161H85.9781V14.8853H90.3559C91.3011 14.8853 91.9975 15.0894 92.4453 15.4974C92.893 15.9055 93.1417 16.6481 93.1915 17.7254L93.2661 19.635C93.2993 20.5654 93.4568 21.2591 93.7387 21.7161H97.1961ZM90.4554 12.2902H85.9781V7.00186H90.331C91.326 7.00186 92.0887 7.22221 92.6194 7.6629C93.1666 8.08727 93.4402 8.72382 93.4402 9.57256C93.4402 10.4539 93.1749 11.1313 92.6443 11.6046C92.1136 12.0617 91.384 12.2902 90.4554 12.2902ZM108.88 4.28426H112.586L105.944 14.8364V21.7161H102.587V14.8364L95.8956 4.28426H99.7012L101.666 7.44255C103.159 9.89084 104.046 11.3598 104.328 11.8495C104.941 10.7722 105.812 9.29509 106.939 7.41807L108.88 4.28426ZM132.282 4.28426H127.407L124.447 12.584C123.916 14.0856 123.394 15.7178 122.88 17.4805C122.365 15.832 121.86 14.257 121.362 12.7553L118.303 4.28426H113.428V21.7161H116.661V16.4033C116.661 13.4653 116.628 10.6008 116.562 7.8098C116.893 8.87072 117.333 10.1928 117.88 11.776L121.487 21.7161H124.248L127.829 11.776C128.377 10.2744 128.824 8.93601 129.173 7.76083C129.106 10.5682 129.073 13.449 129.073 16.4033V21.7161H132.282V4.28426ZM147.064 21.7161L145.671 17.8723H137.911L136.543 21.7161H133.085L139.826 4.28426H143.756L150.621 21.7161H147.064ZM138.931 15.0567H144.651L143.955 13.1715C143.341 11.6046 142.612 9.61337 141.766 7.19772C141.036 9.30325 140.315 11.2945 139.602 13.1715L138.931 15.0567ZM166.338 4.28426H163.104V8.83808C163.104 11.7271 163.138 14.5426 163.204 17.2847C162.557 16.0932 161.513 14.3467 160.07 12.0453L155.12 4.28426H151.389V21.7161H154.623V17.1623C154.623 13.5878 154.589 10.7722 154.523 8.71566C155.186 9.97245 156.239 11.7189 157.682 13.955L162.607 21.7161H166.338V4.28426Z" fill="white"/>
</g>
<defs>
<clipPath id="clip0_147_4382">
<rect width="172" height="24.4787" fill="white" transform="translate(0 0.760742)"/>
</clipPath>
</defs>
</svg>
