<?xml version="1.0" encoding="UTF-8"?> <!-- Generator: Adobe Illustrator 25.4.1, SVG Export Plug-In . SVG Version: 6.00 Build 0) --> <svg xmlns="http://www.w3.org/2000/svg" xmlns:xlink="http://www.w3.org/1999/xlink" version="1.1" id="Laag_1" x="0px" y="0px" viewBox="0 0 204.4 44.1" style="enable-background:new 0 0 204.4 44.1;" xml:space="preserve"> <style type="text/css"> .st0{clip-path:url(#SVGID_00000000213275558318911300000009718731928870782901_);} .st1{fill:#94C13B;} .st2{fill:#00A9BA;} </style> <g> <defs> <rect id="SVGID_1_" x="0.3" y="0.4" width="203.8" height="43.3"></rect> </defs> <clipPath id="SVGID_00000119107289530278480060000014653321915957262725_"> <use xlink:href="#SVGID_1_" style="overflow:visible;"></use> </clipPath> <g id="Group_9" transform="translate(0 0)" style="clip-path:url(#SVGID_00000119107289530278480060000014653321915957262725_);"> <g id="Group_1-2" transform="translate(20.803 0.757)"> <path id="Path_1" class="st1" d="M9.1,35.8c0.1,2.1,0.2,5.1,0.2,5.1c0,0.6-0.4,1-1,1.1c-0.1,0-0.1,0-0.2,0c0,0-2-0.2-3.7-0.2 c-1.4,0-3,0.1-3,0.1C0.9,42,0.4,41.6,0.3,41c0-0.1,0-0.1,0-0.2c0,0,0.4-8.8,0.4-13.8c0-4.2-0.4-11.3-0.4-11.3 c-0.1-0.5,0.3-1,0.9-1c0.1,0,0.2,0,0.3,0c1.1,0.1,2.3,0.2,3.4,0.2c1.2,0,2.4-0.1,3.6-0.3c0.5-0.1,1,0.2,1.1,0.7 c0,0.1,0,0.2,0,0.3l-0.4,7.7c0,0.6-0.1,1.7-0.1,2.4V35.8z M5.1,0.4c2.5,0,4.6,1.9,4.7,4.5c0,0.5-0.1,1.1-0.3,1.5 c-0.7,1.8-2.4,3-4.4,3c-0.7,0-1.4-0.2-2-0.4C1.1,8.1,0,6,0.5,3.9C1.1,1.8,3,0.3,5.1,0.4"></path> </g> <g id="Group_2" transform="translate(33.816 5.572)"> <path id="Path_2" class="st1" d="M2.8,10C3.5,10,4,9.5,4,8.8V4.7c0-0.7,0.5-1.3,1.1-1.7c0,0,2.1-0.9,3.7-1.7 c0.6-0.3,1.2-0.5,1.8-0.8c0.5-0.2,1.1-0.3,1.6-0.2c0.2,0.1,0.4,0.7,0.4,1.3l-0.1,7.1c0,0.6,0.5,1.1,1.1,1.1c0,0,0.1,0,0.1,0 l2.3,0c0.6-0.1,1.1,0.3,1.2,0.8c0,0,0,0.1,0,0.1c-0.1,0.6-0.6,1.1-1.2,1h-2.4c-0.7,0-1.2,0.5-1.2,1.2c0,0,0,0,0,0v14.7 c0,0.6,0,1.7,0,2.4c0,0,0.1,4,3.1,4h0.7c0.4-0.2,0.9,0.1,1.1,0.5c0,0.1,0.1,0.2,0.1,0.4V35c0,0.7-0.5,1.3-1.2,1.5 c-1.6,0.5-3.2,0.7-4.8,0.7c-0.9,0-1.8-0.1-2.6-0.3c-2.1-0.4-3.9-1.9-4.6-4c-0.6-1.8-0.8-3.6-0.6-5.5c0.2-3,0.3-5.9,0.3-8.9V13 c0-0.7-0.6-1.2-1.2-1.2H1.5c-0.7,0-1.2-0.4-1.2-0.9S0.8,10,1.5,10H2.8z"></path> </g> <g id="Group_3" transform="translate(71.566 14.177)"> <path id="Path_3" class="st1" d="M4.1,4.8c4-4.2,10.2-4.5,11.9-4.5c1.2,0,6.3,0.2,10,2.9c4.8,3.6,4.9,9.1,4.9,10.9 c0,1.9-0.3,7.1-4.4,11c-4.2,3.9-10.2,4.1-11.9,4.1c-5.7,0-9.2-2.4-10.8-4.1c-1.4-1.5-3.5-4.6-3.5-10C0.1,11.4,1.5,7.7,4.1,4.8 M11.1,24.9c0.8,1.6,2.5,2.7,4.4,2.7c1,0,1.9-0.3,2.7-0.9c2.2-1.6,3.5-6.1,3.5-11.9c0-2.6-0.1-6.5-1.1-8.9 c-1.2-3.1-3.5-3.9-4.9-3.9c-1.9,0.1-3.6,1.3-4.4,3.1c-1.3,2.4-1.7,7.2-1.7,9.9C9.6,15.2,9.5,21.8,11.1,24.9"></path> </g> <g id="Group_4" transform="translate(106.221 14.574)"> <path id="Path_4" class="st1" d="M18.3,6.5c0,0.6-0.3,0.8-0.7,0.2c-0.8-0.8-1.9-1.3-3-1.3c-2.3-0.4-4.5,1-5.2,3.2 C9.2,9.6,9.1,19.6,9.2,22.1c0.1,2.1,0.2,5.1,0.2,5.1c0,0.6-0.4,1.1-1,1.1c-0.1,0-0.1,0-0.2,0l-0.6,0c-0.7,0-1.8-0.1-2.4-0.1H1.4 c-0.6,0-1.1-0.5-1.1-1.1c0,0,0-0.1,0-0.1c0,0,0.3-3.6,0.4-6c0.1-2.5,0.1-5.1,0.1-7.8c0-1.4,0.1-2.8,0.1-4.2 c0-2.9-0.3-7.2-0.3-7.2c0-0.6,0.5-1.2,1.1-1.2c0,0,0,0,0,0c0,0,1.8-0.1,3.4-0.1c1.4,0,2.8,0.1,2.8,0.1C8.5,0.7,9,1.2,9,1.8 c0,0,0,0.1,0,0.1C8.9,2.7,8.8,3.5,8.8,4.3c-0.1,0.7-0.1,1.5,0,2.2c0.3-0.4,0.6-0.8,0.9-1.2c0.5-0.6,3-3.9,6.4-4.8 c0.7-0.2,1.1-0.2,1.1-0.2c0.6-0.1,1.1,0.3,1.2,0.9c0,0.1,0,0.1,0,0.2V6.5z"></path> </g> <g id="Group_5" transform="translate(128.051 14.616)"> <path id="Path_5" class="st2" d="M9.2,4.1c0.6-0.5,1.2-1.1,1.8-1.5c1.9-1.5,4.2-2.2,6.5-2.2c1.1,0,2.3,0.2,3.4,0.4 c2.8,0.9,4,2.4,5.6,4.8c0.3-0.6,0.7-1.2,1.2-1.8c2.1-2.1,4.9-3.3,7.8-3.2c3.6,0,7.3,2,8.6,5.4c0.5,1.3,0.7,2.7,0.6,4.1v17.1 c0,0.6-0.5,1.1-1.1,1.1c0,0-0.1,0-0.1,0c0,0-2-0.1-3.5-0.1c-1.4,0-2.9,0.1-2.9,0.1c-0.6,0.1-1.1-0.3-1.1-0.9c0-0.1,0-0.1,0-0.2 c0,0,0.2-3.9,0.3-6.5c0.1-2.7,0.1-7.8,0.1-10.5c-0.1-3.4-0.2-4.7-1.7-5.9c-0.8-0.6-1.7-1-2.7-1c-1,0.1-1.9,0.4-2.7,0.9 c-2,1.4-2.2,3.4-2.3,5.7c-0.2,3.2-0.3,8.7-0.2,11.8c0,2.2,0,5.4,0,5.4c0,0.6-0.5,1.1-1.1,1.1c0,0-0.1,0-0.1,0c0,0-2.9-0.2-5-0.1 c-0.8,0-1.4,0-1.4,0c-0.6,0-1.1-0.4-1.1-1c0-0.1,0-0.1,0-0.2c0,0,0.4-5.5,0.4-8.8c0.1-2,0.1-6.3,0.1-8.3c0.2-1.7-0.2-3.3-0.9-4.8 c-0.2-0.5-0.6-0.9-1-1.2c-0.7-0.6-1.7-0.9-2.6-0.8c-1,0-2,0.3-2.8,0.9c-1.8,1.4-2,3.4-2,5.6C8.9,12,8.9,17,8.9,19.6 c0,2.9,0.3,7.4,0.3,7.4c0,0.6-0.4,1-0.9,1.1c-0.1,0-0.1,0-0.2,0c0,0-1.9-0.2-3.4-0.2c-1.4,0-3.1,0.2-3.1,0.2 c-0.6,0.1-1.1-0.3-1.1-0.9c0-0.1,0-0.1,0-0.2c0,0,0.5-10.9,0.5-17c0-3.1,0-7.8,0-7.8C0.8,1.5,1.4,1,2,1c0,0,1.7,0,3.3,0 C6.6,0.9,8,0.8,8,0.8c0.6-0.1,1.1,0.4,1.2,0.9c0,0,0,0.1,0,0.1V4.1z"></path> </g> <g id="Group_6" transform="translate(176.679 14.23)"> <path id="Path_6" class="st2" d="M25.8,23.3c0.1,0.6,0.1,1.1-0.2,1.7l-0.1,0.1c-0.3,0.7-0.8,1.4-1.3,2c-0.4,0.5-1,0.9-1.5,1.2 c-2.3,0.9-4.8,1.3-7.3,1.3c-1.7,0-6.7-0.1-10.8-3.6C2.7,24.1,0.3,21,0.3,15c-0.1-3.6,1-7.2,3.1-10.1c1.7-2,4.6-4.6,10.8-4.6 c5.9,0,8.8,2.4,10.5,4.3c1,1.2,1.7,2.6,2.2,4.1c0.5,2.1,1,4.9-0.2,5.8c-1.2,0.9-5.2,0.5-8,0.5c-3,0-7.8,0.2-7.8,0.2 c-0.6,0-1.1,0.5-1.1,1.2c0,0,0,0,0,0c0,0,0.3,4,2.2,6.3c1.4,1.7,3.6,2.6,5.8,2.5c2,0,4-0.4,5.8-1.4c0.3-0.1,0.6-0.3,0.9-0.5 C25,23,25.6,23,25.8,23.3 M17.8,4.6c-0.5-1.6-1.9-2.6-3.5-2.7c-1.5,0.1-2.8,0.9-3.5,2.3c-0.9,1.5-1.3,8.3-1.3,8.3 c0,0.7,0.5,1.2,1.1,1.2c0,0,0,0,0,0c0,0,1.6,0.1,3,0.1c1.7,0,3.7-0.1,3.7-0.1c0.7,0,1.2-0.6,1.2-1.3C18.5,12.4,18.5,6.4,17.8,4.6 "></path> </g> <g id="Group_7" transform="translate(0.001 0)"> <path id="Path_7" class="st1" d="M17.7,7.7c-0.5,0.1-1.1,0-1.5-0.3c-0.9-0.5-1.9-0.9-3-1C11.9,6,10.6,6.2,9.4,6.7 C8.4,7,7.8,8,8,9.1c0.1,1.3,3.9,5.9,3.9,5.9c0.5,0.6,1.2,0.9,2,0.9H16c0.7,0,1.2,0.3,1.2,0.7c0,0.4-0.5,0.7-1.2,0.7h-2 c-0.7,0-1.2,0.5-1.3,1.2c0,0-0.3,9.7-0.3,14.3c0,3.4,0.2,9.1,0.2,9.1c0,0.5-0.4,1-0.9,1c-0.1,0-0.2,0-0.2,0c0,0-2.1-0.3-3.4-0.3 c-1.3,0-2.8,0.2-2.8,0.2c-0.6,0.1-1.1-0.3-1.2-0.9c0-0.1,0-0.1,0-0.2c0,0,0.2-9.4,0.3-14.8v-8.5c0-0.7-0.6-1.2-1.2-1.2H1.5 c-0.7,0-1.2-0.4-1.2-0.8c0-0.4,0.5-0.8,1.2-0.8h1.6c0.7,0,1.2-0.5,1.3-1.2c0,0,0.1-0.6,0.2-1.6c0.2-1.7,0.9-6.6,5-10.1 c1.7-1.6,4-2.5,6.3-2.5c0.9,0,1.3,0,1.3,0c0.7,0.1,1.1,0.6,1.1,1.3c0,0-0.2,1.7-0.2,3.1c-0.1,0.8,0,1.4,0,1.4 C18.2,6.7,18,7.3,17.7,7.7"></path> </g> <g id="Group_8" transform="translate(53.167 0)"> <path id="Path_8" class="st1" d="M17.7,7.7c-0.5,0.1-1.1,0-1.5-0.3c-0.9-0.5-1.9-0.9-3-1C11.9,6,10.6,6.2,9.4,6.7 C8.5,7,7.8,8,8,9.1c0.1,1.3,3.9,5.9,3.9,5.9c0.5,0.6,1.2,0.9,2,0.9H16c0.7,0,1.2,0.3,1.2,0.7c0,0.4-0.5,0.7-1.2,0.7h-2 c-0.7,0-1.2,0.5-1.3,1.2c0,0-0.3,9.7-0.3,14.3c0,3.4,0.2,9.1,0.2,9.1c0,0.5-0.4,1-0.9,1c-0.1,0-0.2,0-0.2,0c0,0-2.1-0.3-3.4-0.3 c-1.3,0-2.8,0.2-2.8,0.2c-0.6,0.1-1.1-0.3-1.2-0.9c0-0.1,0-0.1,0-0.2c0,0,0.2-9.4,0.3-14.8v-8.5c0-0.7-0.6-1.2-1.2-1.2H1.5 c-0.7,0-1.2-0.4-1.2-0.8c0-0.4,0.6-0.8,1.2-0.8h1.6c0.7,0,1.2-0.5,1.3-1.2c0,0,0.1-0.6,0.2-1.6c0.2-1.7,0.9-6.6,5-10.1 c1.7-1.6,4-2.5,6.3-2.5c0.9,0,1.3,0,1.3,0c0.7,0.1,1.1,0.6,1.1,1.3c0,0-0.2,1.7-0.2,3.1c-0.1,0.8,0,1.4,0,1.4 C18.2,6.7,18,7.3,17.7,7.7"></path> </g> </g> </g> </svg> 