<svg xmlns="http://www.w3.org/2000/svg" width="778.16" height="102.213" preserveAspectRatio="xMinYMax meet"
    viewBox="0 0 778.16 102.213">
    <path fill="#4bbaed"
        d="M337.517 90.484h-75.581l75.581-75.587v75.587zm-89.361 0V100.5h99.375V1.115h-10.014l-89.361 89.37" />
    <path fill="#4bbaed" d="M248.155 100.499h99.382V90.484h-99.382V100.5" />
    <path fill="#000"
        d="M0 100.578h11.256V1.619H0v98.959m110.206-23.089c-10.187 10.045-19.214 14.145-31.143 14.145-21.288 0-37.962-17.92-37.962-40.8 0-22.953 16.26-40.264 37.824-40.264 14.701 0 23.652 6.75 30.476 13.345l1.508 1.47 7.995-8.207-1.605-1.47C106.994 6.279 96.56-.003 79.063-.003c-27.74 0-49.476 22.56-49.476 51.38 0 28.978 21.15 50.831 49.2 50.831 19.183 0 30.536-8.65 39.124-17.113l1.516-1.52-7.749-7.511-1.472 1.426M413.77 91.628c-21.511 0-38.37-17.92-38.37-40.788 0-22.96 16.385-40.27 38.101-40.27 21.515 0 38.371 17.925 38.371 40.8 0 22.947-16.376 40.258-38.101 40.258m0-91.632c-31.219 0-49.891 26.126-49.891 51.374 0 28.984 21.333 50.843 49.621 50.843 30.847 0 49.584-25.677 49.879-50.493v-1.488c-.283-28.634-21.613-50.236-49.61-50.236M526.721 89.87h-32.273V56.047h29.987c17.237 0 26.728 5.89 26.728 16.58 0 10.64-9.368 17.243-24.442 17.243m-3.11-44.525h-29.163V12.34h29.827c13.721 0 21.589 5.693 21.589 15.614 0 10.733-8.527 17.39-22.253 17.39m21.061 3.978c8.25-4.906 12.596-12.59 12.596-22.309 0-6.424-2.27-11.931-6.72-16.37-5.808-5.815-15.079-9.024-26.113-9.024h-41.236v98.959h43.265c21.908 0 36.072-11.077 36.072-28.21 0-10.678-6.172-18.626-17.864-23.046m34.473 51.256h11.25V1.619h-11.25v98.959m44.63-98.958h-11.25v98.958h66.89V89.87h-55.64V1.62M177.94 10.57c19.501 0 34.935 14.077 37.75 34.326h-75.26c2.635-20.25 17.982-34.326 37.51-34.326m.27-10.574c-31.229 0-49.885 26.126-49.885 51.374 0 28.984 21.324 50.843 49.615 50.843 18.343 0 34.003-9.135 42.975-25.043l1.196-2.115-10.451-4.107-.9 1.586c-6.855 12.141-18.712 19.094-32.55 19.094-19.96 0-35.835-14.975-37.969-35.691l87.415-.013.132-2.532c.095-1.427.15-2.287.024-2.81C227.708 21.74 206.38-.003 178.209-.003M728.212 10.57c19.505 0 34.928 14.077 37.737 34.326h-75.254c2.637-20.25 17.986-34.326 37.517-34.326m49.879 40.013C777.98 21.739 756.655-.004 728.488-.004c-31.235 0-49.897 26.126-49.897 51.374 0 28.984 21.325 50.843 49.621 50.843 18.343 0 34-9.135 42.963-25.043l1.217-2.115-10.45-4.107-.91 1.586c-6.855 12.141-18.712 19.094-32.544 19.094-19.955 0-35.839-14.975-37.984-35.691l87.42-.013.13-2.532c.103-1.494.154-2.3.037-2.81M258.168 14.897l75.587 75.587h-75.587V14.897zm0-13.776h-10.013v99.378h99.38V90.484L258.168 1.121" />
</svg>