<svg viewBox="96 96 401.2 182.9" xmlns="http://www.w3.org/2000/svg"><defs><style>.prefix__st0{fill:#090}.prefix__st1{fill:#000}</style></defs><g id="prefix__kpn_logo"><path class="prefix__st0" d="M257.7 168.1c-5.4-5.4-15.3-11.8-32.2-11.8-3.1 0-6.2.2-9.1.6l-.9.1.3.9c.8 2.6 1.4 5.5 1.8 8.4l.1.8.8-.1c2.4-.3 4.7-.4 7-.4 13.4 0 21 4.8 25 8.8 4.2 4.2 6.5 9.6 6.5 15 0 6.9-3.6 15.6-7.2 24.1-1.7 4.2-4.9 12.3-6.7 19.2-3.3 13.1-8.8 35-21.9 35-4.3 0-9.4-2.4-15.5-7.2-3.3 1.9-6.8 3.4-10.5 4.6 9.8 8.7 18.1 12.8 26 12.8 21.2 0 28.1-27.8 31.8-42.7 1.1-4.6 3.3-10.8 6.2-17.7 3.9-9.4 8-19.1 8-28 0-8.2-3.4-16.3-9.5-22.4zM212 148.2l.9-.2c2.9-.5 5.9-.8 9.1-1h.9c-14.1-33.2-49.8-51-70.2-51-27.1 0-36.7 27.6-36.7 53.4 0 12 4.1 24.6 7.5 33l.3.8.8-.3c2.4-1.1 5-2.1 8-3.2l.8-.3-.3-.8c-4.3-10.6-6.8-21.3-6.8-29.2 0-16.5 4-30 11.1-37 4.1-4.1 9.1-6.1 15.4-6.1 16 0 46.2 14.9 59.2 41.9z"/><path class="prefix__st0" d="M190.8 247.3l-.4-.4-.5.2c-5.5 2-11.1 2.9-17.2 2.9-20 0-41.8-8.9-55.6-22.8-6.9-6.9-10.9-14.3-10.9-20.2 0-8.1 3-14.1 9.4-19-1.2-2.9-2.6-6.3-3.8-9.9C101.2 185.2 96 194.7 96 207c0 8.7 4.9 18.5 13.9 27.5 12.4 12.5 35.5 25.8 62.9 25.8 8.6 0 16.8-1.7 24.4-5l1.1-.5-.8-.8c-2.4-2.3-4.6-4.6-6.7-6.7z"/><path class="prefix__st1" d="M467.8 169c-10.7 0-19.7 2-27.8 5.2v54h18.1v-43.3c2.6-1.2 5.9-1.8 9.3-1.8 9.8 0 11.7 6 11.7 17v28.1h18.1v-30.8c-.1-17.3-5.8-28.4-29.4-28.4zM293.9 148.9H312v79.3h-18.1zM332.8 228.2h21.4l-22.5-31.9 20.6-25.2h-20.6L312 197zM392.7 182.8c7.9 0 13.1 4.9 13.1 16.3 0 11-4.1 17-13.9 17-2.8 0-6.3-.6-8.1-1.3v-30.3c2.5-1.1 5.6-1.7 8.9-1.7zm-27-8.6v76.2h18.1v-21.7c3.9.7 6.9.9 10.3.9 19.9 0 30.4-11.4 30.4-30.5 0-19.2-10.3-30-31.6-30-9.7-.1-19.7 2-27.2 5.1z"/><path class="prefix__st0" d="M179.1 175.9v-9c-2.1-.6-4.7-.9-7.3-.9-10.5 0-15.6 7.1-15.6 14.2 0 6.8 2.5 13.3 11.9 27.9 3.8-.5 7.6-.8 11.4-.9-8.2-15.2-10.2-20.6-10.2-24.5 0-4.5 2.6-6.8 7.9-6.8h1.9zM150.6 189.1c-.8-2-1.3-5.3-1.6-7.7-8.3-.3-14.6 4.5-14.6 11.2 0 5.4 2.8 10.2 14.2 19.9 2.9-1 6.8-2.1 10.1-2.8-11.2-10.5-13-13.3-13-16.4.2-2.2 1.8-3.7 4.9-4.2zM186.8 175.9v-9c2.1-.6 4.7-.9 7.3-.9 10.4 0 15.6 7.1 15.6 14.2 0 6.8-2.5 13.3-11.9 27.9-3.8-.5-7.6-.8-11.4-.9 8.2-15.2 10.2-20.6 10.2-24.5 0-4.5-2.6-6.8-7.9-6.8h-1.9zM215.3 189.1c.8-2 1.3-5.3 1.6-7.7 8.3-.3 14.6 4.5 14.6 11.2 0 5.4-2.8 10.2-14.2 19.9-2.9-1-6.8-2.1-10.1-2.8 11.2-10.5 13-13.3 13-16.4-.2-2.2-1.8-3.7-4.9-4.2zM183 226.2c8.4 0 17 1.1 25.9 3.8l3-10c-10-3-19.8-4.2-29-4.2s-18.9 1.2-29 4.2l3 10c9.1-2.7 17.7-3.8 26.1-3.8z"/><path transform="rotate(-44.996 182.955 151.837)" class="prefix__st0" d="M176.4 145.3h13.1v13.1h-13.1z"/></g></svg>