<svg width="2733" height="1000" xmlns="http://www.w3.org/2000/svg"><g fill="none" fill-rule="evenodd"><g fill-rule="nonzero"><path d="M1085.466 479.908v-75.36c11.276-.235 24.666-.235 38.526-1.177 30.774-2.59 62.487-22.844 62.487-58.64 0-28.73-19.732-57.933-64.366-58.64l-76.113.236v193.581h39.466zm-.521-110.154v-49.5c13.654 0 26.602.469 38.374 2.11 16.48 2.112 22.13 8.916 22.13 22.757 0 12.903-8.711 20.879-23.072 22.756-11.771 1.407-24.955 1.877-37.432 1.877zm151.086 110.154l15.448-39.328h77.939l15.681 39.328h42.363l-80.747-193.816h-32.533l-80.748 193.816h42.597zm79.105-75.295h-48.68l24.222-59.26 24.458 59.26zM1468.84 482c35.59 0 65.326-26.103 68.135-53.853.469-1.88.703-3.762.703-5.644 0-55.263-93.19-58.79-93.19-80.896.235-10.582 9.835-20.224 25.756-19.989 13.815.235 22.478.94 33.015 12.229l27.16-20.93c-12.877-17.873-42.145-28.22-64.155-28.22-34.887 0-60.41 29.16-60.41 57.85.235 49.62 90.146 53.383 90.146 81.367 0 12.7-10.77 19.284-28.331 19.284-17.327 0-35.356-8.701-43.55-16.697l-26.225 23.046c15.688 15.286 45.424 32.453 70.946 32.453zm155.083 0c35.59 0 65.326-26.103 68.136-53.853.468-1.88.703-3.762.703-5.644 0-55.263-93.19-58.79-93.19-80.896.234-10.582 9.834-20.224 25.756-19.989 13.815.235 22.478.94 33.014 12.229l27.161-20.93c-12.878-17.873-42.146-28.22-64.155-28.22-34.888 0-60.41 29.16-60.41 57.85.235 49.62 90.146 53.383 90.146 81.367 0 12.7-10.77 19.284-28.331 19.284-17.327 0-35.356-8.701-43.551-16.697l-26.224 23.046c15.687 15.286 45.424 32.453 70.945 32.453zm129.342-2.092V286.092h-39.64v193.816h39.64zm114.17 2.092c51.571 0 93.767-46.145 93.767-99.118.234-52.737-42.196-98.882-93.533-98.882-51.338.235-94.236 45.91-94.236 98.882 0 52.973 42.664 99.118 94.001 99.118zm-.117-41.135c-29.705.234-52.158-24.884-52.158-57.983 0-32.865 22.453-57.748 52.392-57.748 29.704 0 51.924 24.883 51.924 57.748 0 33.1-22.22 57.983-52.158 57.983zm154.216 39.043v-110.45l89.51 96.085 28.192 14.365V286.092h-39.234l-.47 110.685-89.51-96.32-27.956-14.365v193.816h39.468zm169.34 0l15.447-39.328h77.94l15.68 39.328h42.364l-80.748-193.816h-32.533l-80.747 193.816h42.597zm79.105-75.295h-48.681l24.223-59.26 24.458 59.26zm168.64 75.295v-157.55h51.12v-36.266h-141.87v36.267h51.354v157.55h39.396zm194.381 0v-36.267h-83.778v-42.625h69.97v-36.267h-69.97v-42.39H2633v-36.267h-123.093v193.816H2633z" fill="#382C63"/><path d="M1086.256 717.908v-75.36c11.217-.235 24.536-.235 38.322-1.177 30.61-2.59 62.156-22.844 62.156-58.64 0-28.73-19.628-57.933-64.025-58.64l-75.709.236v193.581h39.256zm-.325-110.154v-49.5c13.65 0 26.593.469 38.36 2.11 16.474 2.112 22.122 8.916 22.122 22.757 0 12.903-8.708 20.879-23.063 22.756-11.767 1.407-24.946 1.877-37.42 1.877zm244.013 110.154v-36.267h-83.748v-42.625h69.946v-36.267h-69.946v-42.39h83.748v-36.267h-123.05v193.816h123.05zM1439.207 720c51.553 0 93.734-46.145 93.734-99.118.234-52.737-42.18-98.882-93.5-98.882-51.32.235-94.202 45.91-94.202 98.882 0 52.973 42.649 99.118 93.968 99.118zm-.117-41.135c-29.694.234-52.14-24.884-52.14-57.983 0-32.865 22.446-57.748 52.374-57.748 29.694 0 51.906 24.883 51.906 57.748 0 33.1-22.212 57.983-52.14 57.983zm153.964 39.043v-75.36c11.216-.235 24.535-.235 38.322-1.177 30.61-2.59 62.156-22.844 62.156-58.64 0-28.73-19.629-57.933-64.026-58.64l-75.709.236v193.581h39.257zm-.326-110.154v-49.5c13.65 0 26.593.469 38.36 2.11 16.474 2.112 22.122 8.916 22.122 22.757 0 12.903-8.707 20.879-23.063 22.756-11.767 1.407-24.946 1.877-37.419 1.877zm236.367 110.154v-36.267h-75.997v-157.55h-39.406v193.817h115.403zm143.905 0v-36.267h-83.749v-42.625h69.947v-36.267h-69.947v-42.39H1973v-36.267h-123.05v193.816H1973z" fill="#208966"/></g><path d="M512.31 134.254c-153.724.698-292.726 98.32-345.915 242.94-53.122 144.44-7.33 313.555 111.361 411.255 58.892 48.475 130.762 77.172 207.846 82.989 77.4 5.86 152.616-12.008 217.5-51.624 64.718-39.517 115.162-97.855 145.873-168.714 30.665-70.744 38.918-147.584 23.868-222.211-29.82-147.896-154.13-267.116-302.297-289.924-19.754-3.04-39.347-4.625-58.237-4.71" fill="#FFF"/><path d="M515.903 514.192c-39.085 0-70.77-31.807-70.77-71.042s31.685-71.04 70.77-71.04c39.085 0 70.768 31.805 70.768 71.04 0 39.235-31.683 71.042-70.768 71.042m166.418-189.064l.052.01-38.103-34.15 18.817 18.632c-32.368-22.952-71.866-36.44-114.507-36.44-109.74 0-198.7 89.304-198.7 199.465 0 4.858.182 9.674.52 14.446l-.005-.004.016.172c.26 3.592.607 7.158 1.056 10.694l12.496 127.025 7.021 71.329-24.27 16.31 31.305 28.236c4.985 5.537 14.195 6.523 20.094.298l73.315-77.376 5.332-5.105c22.276 8.673 46.493 13.439 71.82 13.439 109.737 0 198.7-89.303 198.7-199.464 0-58.455-25.05-111.034-64.959-147.517" fill="#5BCCA7"/><path d="M516.082 514.513c-39.055 0-70.716-31.807-70.716-71.042s31.66-71.04 70.716-71.04 70.715 31.805 70.715 71.04c0 39.235-31.66 71.042-70.715 71.042m.076-270.544c-109.656 0-198.55 89.302-198.55 199.462 0 7.056.369 14.025 1.083 20.89l12.992 131.437 10.629 108.063c1.15 11.69 15.436 16.621 23.495 8.109l73.26-77.376 5.026-5.213c22.343 8.747 46.644 13.553 72.065 13.553 109.655 0 198.55-89.302 198.55-199.463 0-110.16-88.895-199.462-198.55-199.462" fill="#382C63"/><path d="M527.21 126.628c-154.719.7-294.628 98.958-348.164 244.517-53.473 145.386-7.38 315.613 112.093 413.953 59.271 48.791 131.606 77.675 209.185 83.531 77.9 5.878 153.613-12.088 218.93-51.97 65.143-39.775 115.914-98.495 146.823-169.81 30.86-71.2 39.168-148.538 24.02-223.653-30.016-148.869-155.143-268.873-304.287-291.83-19.873-3.057-39.591-4.651-58.6-4.738m1.988 769.721c-10.248 0-20.53-.388-30.864-1.167-83.044-6.267-160.51-37.215-224.019-89.494-128.07-105.42-177.482-287.903-120.157-443.765C211.511 205.985 361.406 100.725 527.152 100h.113c20.335.088 41.384 1.787 62.567 5.046 159.922 24.616 294.088 153.27 326.27 312.869 16.23 80.49 7.342 163.326-25.697 239.556-33.105 76.38-87.522 139.292-157.365 181.937-61.4 37.493-131.324 56.941-203.842 56.941" fill="#382C63"/><path d="M498.452 125.604c-156.454.71-297.938 100.153-352.073 247.473-54.074 147.152-7.462 319.444 113.351 418.978 59.939 49.38 133.084 78.614 211.53 84.54 78.784 5.95 155.338-12.239 221.39-52.603 65.879-40.259 117.221-99.69 148.477-171.867 31.208-72.059 39.606-150.331 24.288-226.356-30.356-150.673-156.89-272.134-307.713-295.37-20.093-3.095-40.027-4.709-59.25-4.795m1.998 776.31c-10.288 0-20.621-.39-30.998-1.175-83.412-6.3-161.215-37.409-225.005-89.961C115.819 704.805 66.194 521.368 123.769 364.69c57.602-156.76 208.155-262.572 374.629-263.299h.104c20.426.088 41.57 1.796 62.852 5.072 160.617 24.746 295.362 154.072 327.685 314.503 16.301 80.912 7.376 164.186-25.808 240.82-33.255 76.78-87.905 140.026-158.052 182.892-61.667 37.685-131.892 57.235-204.729 57.235" fill="#5BCCA7"/><path d="M512.31 134.254c-153.724.698-292.726 98.32-345.915 242.94-53.122 144.44-7.33 313.555 111.361 411.255 58.892 48.475 130.762 77.172 207.846 82.989 77.4 5.86 152.616-12.008 217.5-51.624 64.718-39.517 115.162-97.855 145.873-168.714 30.665-70.744 38.918-147.584 23.868-222.211-29.82-147.896-154.13-267.116-302.297-289.924-19.754-3.04-39.347-4.625-58.237-4.71M514.296 904a411.76 411.76 0 01-31.045-1.176c-83.544-6.305-161.479-37.441-225.377-90.037C129.014 706.717 79.3 523.115 136.98 366.295c57.7-156.886 208.507-262.784 375.261-263.513h.136c20.451.088 41.62 1.795 62.922 5.073 160.906 24.768 295.9 154.214 328.28 314.789 16.328 80.984 7.39 164.325-25.849 241.012C844.422 740.5 789.673 803.793 719.397 846.7 657.611 884.427 587.264 904 514.296 904" fill="#2D2D2D"/></g></svg>