<svg xmlns="http://www.w3.org/2000/svg" id="a" width="160" height="47.01" viewBox="0 0 160 47.01">
    <path
        d="M70.36,46.54l-3.51-19.4h-1.85v19.4h-6.73V.53h6.73c8,0,11.51,4.64,11.51,13.27,0,4.57-1.19,8.71-3.75,10.46l4.32,22.28h-6.72Zm-5.36-39.31v13.65c1.87,0,5-.25,5-6.83s-3.13-6.82-5-6.82"
        style="fill:#000;" />
    <path
        d="M88.67,47c-9.08,0-9-9.95-9-9.95V10s-.08-10,9-10,9,10,9,10v27.06s.06,9.95-9,9.95m0-40.44c-2.38,0-2.26,3.38-2.26,3.38v27.11s-.12,3.38,2.26,3.38,2.25-3.38,2.25-3.38V10s.08-3.43-2.25-3.43"
        style="fill:#000;" />
    <path
        d="M106.79,46.51h-5.32V.5h5.32c12.52,.06,13.46,5,13.46,23s-.94,22.91-13.46,23m1.44-6.76c4.76,0,5.07-1.19,5-16.28s-.25-16.21-5-16.21V39.74Z"
        style="fill:#000;" />
    <polygon
        points="123.58 .5 139.04 .5 139.04 7.45 130.34 7.45 130.34 19.53 136.6 19.53 136.6 26.91 130.34 26.91 130.34 39.56 139.04 39.56 139.04 46.51 123.58 46.51 123.58 .5"
        style="fill:#000;" />
    <path
        d="M151,47c-9.08,0-9-9.95-9-9.95V10s-.09-10,9-10,9,10,9,10v27.06s.06,9.95-9,9.95m0-40.44c-2.38,0-2.26,3.38-2.26,3.38v27.11s-.12,3.38,2.26,3.38,2.25-3.38,2.25-3.38V10s.12-3.38-2.25-3.38"
        style="fill:#000;" />
    <path
        d="M22.47,21.23l2.14-.77,21.89-8V7.74c-.01-4.21-3.42-7.62-7.63-7.63H7.63C3.42,.12,.01,3.53,0,7.74v31.26c.01,4.21,3.42,7.62,7.63,7.63h31.24c4.21-.01,7.62-3.42,7.63-7.63V17.24l-22.5,8.19c-1.19,.34-2.43-.34-2.78-1.53-.31-1.08,.22-2.22,1.25-2.67Zm.78,7.58c2.32,0,4.38-1.47,5.14-3.66l7.28-2.65,4,1.21v.58l-7.6,1.71c-.24,.85-.6,1.66-1.07,2.4l3.67,6.83-.43,.4-6.58-4.16c-.4,.21-.83,.39-1.26,.53-.41,.15-.84,.27-1.27,.36l-2.23,7.44h-.58l-1.71-7.6c-.85-.26-1.67-.64-2.41-1.13l-6.82,3.67-.4-.42,4.15-6.58c-.21-.39-.4-.8-.55-1.22-.15-.42-.27-.84-.36-1.28l-7.41-2.24v-.57l7.59-1.72c.12-.43,.28-.86,.47-1.26,.19-.4,.4-.78,.65-1.15l-3.67-6.82,.42-.39,6.58,4.15c.39-.21,.8-.4,1.22-.56,.42-.15,.85-.27,1.28-.36l2.22-7.41h.58l1.72,7.59c.85,.25,1.67,.63,2.41,1.12l6.84-3.62,.39,.43-2.3,3.65-7.21,2.6c-.84-.51-1.79-.77-2.77-.77-3.01,0-5.45,2.44-5.45,5.45s2.44,5.45,5.45,5.45h.02Z"
        style="fill:#eb618a;" />
</svg>