<svg width="852" height="241" viewBox="0 0 852 241" fill="none" xmlns="http://www.w3.org/2000/svg">
<path fill-rule="evenodd" clip-rule="evenodd" d="M124 0C55.49 0 0 55.2877 0 123.548C0 178.218 35.495 224.394 84.785 240.764C90.985 241.845 93.31 238.139 93.31 234.895C93.31 231.961 93.155 222.232 93.155 211.885C62 217.599 53.94 204.317 51.46 197.368C50.065 193.816 44.02 182.851 38.75 179.917C34.41 177.6 28.21 171.886 38.595 171.732C48.36 171.577 55.335 180.689 57.66 184.395C68.82 203.082 86.645 197.831 93.775 194.588C94.86 186.557 98.115 181.152 101.68 178.063C74.09 174.975 45.26 164.319 45.26 117.062C45.26 103.626 50.065 92.5065 57.97 83.8581C56.73 80.7694 52.39 68.1058 59.21 51.1179C59.21 51.1179 69.595 47.8748 93.31 63.7816C103.23 61.0018 113.77 59.6119 124.31 59.6119C134.85 59.6119 145.39 61.0018 155.31 63.7816C179.025 47.7204 189.41 51.1179 189.41 51.1179C196.23 68.1058 191.89 80.7694 190.65 83.8581C198.555 92.5065 203.36 103.471 203.36 117.062C203.36 164.473 174.375 174.975 146.785 178.063C151.28 181.924 155.155 189.337 155.155 200.92C155.155 217.444 155 230.726 155 234.895C155 238.139 157.325 241.999 163.525 240.764C188.141 232.484 209.532 216.721 224.685 195.694C239.839 174.667 247.993 149.434 248 123.548C248 55.2877 192.51 0 124 0Z" fill="black"/>
<path d="M346.597 113.491C345.464 113.491 344.332 114.62 344.332 115.749V138.897C344.332 140.026 345.464 141.155 346.597 141.155H365.286V169.948C365.286 169.948 361.321 171.642 349.429 171.642C335.837 171.642 317.148 166.561 317.148 124.782C317.148 83.0037 336.969 77.9225 355.658 77.9225C372.082 77.9225 378.878 80.7454 383.408 81.8745C384.541 82.4391 386.24 80.7454 386.24 79.6162L391.337 57.0332C391.337 56.4686 391.337 55.9041 390.204 55.3395C388.505 54.2103 377.745 48 349.995 48C317.714 48 286 60.9852 286 126.476C286 191.402 323.378 201 354.526 201C380.577 201 396.434 190.273 396.434 190.273C397 189.708 397 189.144 397 188.579V115.749C397 114.62 395.867 113.491 394.735 113.491" fill="black"/>
<path d="M639 56.2588C639 55.1294 637.87 54 636.739 54H610.174C609.043 54 607.913 55.1294 607.913 56.2588V107.647H566.087V56.2588C566.087 55.1294 564.957 54 563.826 54H537.261C536.13 54 535 55.1294 535 56.2588V195.741C535 196.871 536.13 198 537.261 198H563.826C564.957 198 566.087 196.871 566.087 195.741V135.882H607.913V195.741C607.913 196.871 609.043 198 610.174 198H636.739C637.87 198 639 196.871 639 195.741V56.2588Z" fill="black"/>
<path d="M427.5 92C437.165 92 445 84.165 445 74.5C445 64.835 437.165 57 427.5 57C417.835 57 410 64.835 410 74.5C410 84.165 417.835 92 427.5 92Z" fill="black"/>
<path d="M442.446 102.253C442.446 101.126 441.339 100 440.232 100H414.214C413.107 100 412 101.126 412 102.253V194.621C412 197.437 413.661 198 415.875 198H439.679C442.446 198 443 196.874 443 194.621" fill="black"/>
<path d="M714.312 100C713.188 100 712.062 101.128 712.062 102.257V170.531C712.062 170.531 705.312 175.609 695.75 175.609C686.188 175.609 683.938 171.095 683.938 162.067V102.257C683.938 101.128 682.812 100 681.688 100H655.25C654.125 100 653 101.128 653 102.257V166.581C653 194.229 668.188 201 689.562 201C707 201 721.062 191.408 721.062 191.408C721.062 191.408 721.625 196.486 722.188 197.05C722.75 197.615 723.312 198.179 723.875 198.179H740.75C741.875 198.179 743 197.05 743 195.922V102.257C743 101.128 741.875 100 740.75 100" fill="black"/>
<path d="M804.434 176.218C793.108 176.218 788.012 171.149 788.012 171.149V126.655C788.012 126.655 794.241 122.713 801.602 122.149C811.229 121.023 820.289 124.402 820.289 146.931C820.289 171.149 817.458 176.218 803.867 176.218H804.434ZM789.145 103.563V56.2529C789.145 55.1264 788.012 54 786.88 54H760.265C759.133 54 758 55.1264 758 56.2529V195.368C758 196.494 759.133 197.621 760.265 197.621H778.952C779.518 197.621 780.651 197.057 780.651 196.494C781.217 195.931 781.783 190.299 781.783 190.299C781.783 190.299 792.542 201 813.494 201C837.843 201 852 188.609 852 145.805C852 103 829.916 97.3678 814.627 97.3678C799.337 97.3678 789.145 104.126 789.145 104.126V103.563Z" fill="black"/>
<path d="M499.805 99.355V72.7013C499.805 71.5671 499.236 71 498.098 71H470.211C469.073 71 468.504 71.5671 468.504 73.2684V101.056C468.504 101.056 454.846 104.459 453.707 104.459C452.569 105.026 452 105.593 452 106.727V124.307C452 125.442 453.138 126.576 454.276 126.576H468.504V167.974C468.504 199.165 490.13 202 504.927 202C511.756 202 519.724 199.732 520.862 199.165C521.431 198.597 522 198.03 522 196.896V178.182C522 177.048 520.862 175.913 519.724 175.913C518.585 175.913 515.74 176.481 512.325 176.481C502.65 176.481 499.236 171.944 499.236 165.706C499.236 159.468 499.236 126.576 499.236 126.576H519.154C520.293 126.576 521.431 125.442 521.431 124.307V101.623C521.431 100.489 520.293 99.355 519.154 99.355" fill="black"/>
</svg>
