<svg width="2500" height="554" viewBox="0 0 2500 554" fill="none" xmlns="http://www.w3.org/2000/svg">
<g clip-path="url(#clip0_47_550)">
<path d="M670.546 407.806C665.884 407.817 661.373 406.162 657.824 403.14C654.275 400.118 651.922 395.928 651.189 391.324C650.455 386.721 651.391 382.007 653.825 378.033C656.26 374.058 660.034 371.083 664.468 369.645C701.682 357.464 725.727 324.843 725.727 286.542C725.727 238.028 686.26 198.561 637.753 198.561C634.379 198.561 630.754 198.826 626.34 199.396L607.206 201.875L604.462 182.775C592.712 100.878 521.366 39.1158 438.509 39.1158C370.013 39.1158 309.039 80.1204 283.172 143.586L278.307 155.522L265.423 155.761C206.2 156.848 158.024 205.891 158.024 265.082C158.024 308.294 183.109 347.694 221.934 365.463C224.27 366.532 226.373 368.051 228.122 369.933C229.872 371.815 231.233 374.023 232.129 376.431C233.025 378.839 233.438 381.4 233.345 383.968C233.251 386.536 232.652 389.06 231.583 391.397C230.514 393.733 228.995 395.836 227.113 397.585C225.231 399.335 223.023 400.696 220.615 401.592C218.207 402.489 215.646 402.901 213.078 402.808C210.51 402.714 207.986 402.115 205.65 401.046C152.954 376.922 118.895 323.557 118.895 265.082C118.895 188.991 177.522 125.254 251.989 117.427C286.3 45.6903 358.209 0 438.515 0C534.628 0 618.175 67.3823 639.84 159.459C708.972 160.579 764.862 217.158 764.862 286.549C764.862 341.226 729.405 389.567 676.636 406.832C674.622 407.495 672.567 407.806 670.546 407.806Z" fill="#0071CE"/>
<path d="M371.59 416.899L371.583 416.893L371.57 416.886H371.537H371.484L371.458 416.879L371.438 416.873L371.431 416.866H371.405L371.398 416.859C371.089 416.75 370.758 416.687 370.43 416.674H370.311H370.265H370.245C366.169 416.664 362.255 415.047 359.363 412.175C356.471 409.303 354.828 405.407 354.789 401.331V229.088H367.978C369.986 229.174 371.358 227.63 371.358 225.774C371.359 225.116 371.164 224.473 370.798 223.927C370.432 223.381 369.912 222.955 369.304 222.705L306.004 179.017C305.45 178.635 304.794 178.43 304.122 178.43C303.449 178.43 302.793 178.635 302.239 179.017L238.443 223.05C237.868 223.456 237.437 224.034 237.211 224.701C236.985 225.367 236.977 226.088 237.187 226.76C237.397 227.432 237.814 228.019 238.379 228.439C238.944 228.858 239.628 229.088 240.331 229.094H253.52L253.527 401.285C253.593 413.188 263.157 422.904 275.325 423.215C275.464 423.229 275.597 423.242 275.736 423.242H370.291C371.127 423.228 371.928 422.899 372.531 422.321L372.558 422.294L372.571 422.281L372.578 422.274L372.584 422.268C373.178 421.654 373.512 420.835 373.519 419.981V419.955C373.528 419.313 373.351 418.683 373.009 418.14C372.666 417.598 372.173 417.167 371.59 416.899Z" fill="#DC8327"/>
<path d="M508.469 416.899C508.462 416.893 508.469 416.893 508.469 416.899L508.442 416.886H508.423H508.37H508.35L508.33 416.879L508.31 416.873L508.303 416.866H508.277L508.264 416.86C507.954 416.75 507.624 416.687 507.296 416.674H507.25H507.223H507.203H507.196C503.121 416.664 499.215 415.047 496.324 412.175C493.433 409.303 491.791 405.406 491.754 401.331V267.634H505.076C505.845 267.636 506.59 267.37 507.185 266.882C507.78 266.395 508.186 265.716 508.335 264.961C508.484 264.207 508.366 263.424 508.001 262.747C507.636 262.071 507.047 261.542 506.335 261.251L443.029 217.563C442.475 217.181 441.819 216.976 441.146 216.976C440.474 216.976 439.818 217.181 439.264 217.563L375.368 261.589C374.793 261.995 374.362 262.573 374.136 263.24C373.91 263.906 373.902 264.627 374.112 265.299C374.322 265.971 374.739 266.559 375.304 266.978C375.869 267.398 376.553 267.627 377.257 267.634H390.386L390.393 401.278C390.452 413.188 400.029 422.911 412.197 423.209L412.595 423.229H507.15C507.986 423.215 508.787 422.886 509.39 422.307L509.417 422.281L509.43 422.268L509.437 422.261C509.45 422.261 509.443 422.261 509.443 422.254C510.037 421.64 510.371 420.822 510.378 419.968V419.941C510.394 419.303 510.222 418.674 509.882 418.133C509.543 417.591 509.051 417.162 508.469 416.899Z" fill="#F4B21B"/>
<path d="M645.394 416.899C645.387 416.893 645.394 416.893 645.394 416.899L645.374 416.893H645.367H645.328H645.301H645.281L645.261 416.886L645.242 416.88L645.222 416.873H645.182C644.873 416.763 644.549 416.7 644.221 416.687H644.082H644.062C639.987 416.677 636.073 415.06 633.182 412.188C630.292 409.316 628.65 405.42 628.613 401.345V306.166H641.835C642.721 306.17 643.573 305.824 644.206 305.204C644.838 304.583 645.201 303.739 645.215 302.853C645.216 302.195 645.021 301.552 644.655 301.006C644.289 300.459 643.769 300.034 643.161 299.784L579.854 256.095C579.301 255.713 578.644 255.509 577.972 255.509C577.3 255.509 576.643 255.713 576.09 256.095L512.3 300.122C511.725 300.528 511.294 301.106 511.068 301.773C510.842 302.439 510.834 303.16 511.044 303.832C511.253 304.504 511.671 305.091 512.236 305.511C512.801 305.93 513.485 306.16 514.188 306.166H527.344L527.351 401.272C527.417 413.181 536.994 422.904 549.155 423.202L549.553 423.222H644.108C644.944 423.209 645.745 422.88 646.348 422.301L646.375 422.274L646.388 422.261L646.395 422.254C646.408 422.254 646.395 422.254 646.401 422.248C646.995 421.634 647.329 420.815 647.336 419.961V419.955V419.935C647.339 419.296 647.157 418.669 646.813 418.131C646.468 417.592 645.976 417.165 645.394 416.899Z" fill="#F2D864"/>
<path d="M1259.68 271.153C1252.82 263.69 1244.21 257.785 1234.11 253.61C1223.81 249.381 1211.82 247.208 1198.47 247.154C1185.13 247.208 1173.14 249.381 1162.85 253.61C1152.75 257.785 1144.14 263.684 1137.27 271.153C1130.29 278.773 1124.97 287.76 1121.65 297.544C1118.09 307.651 1116.29 318.765 1116.29 330.595C1116.29 339.582 1117.22 348.357 1119.06 356.681C1120.82 364.703 1123.76 372.417 1127.79 379.566C1131.79 386.522 1137.03 392.682 1143.26 397.739C1149.53 402.915 1157.31 406.998 1166.39 409.874C1175.47 412.797 1186.27 414.308 1198.48 414.361C1210.68 414.308 1221.47 412.797 1230.54 409.874C1239.63 406.998 1247.41 402.922 1253.67 397.746C1259.92 392.69 1265.17 386.519 1269.17 379.546C1273.2 372.397 1276.13 364.689 1277.89 356.675C1279.76 348.45 1280.66 339.92 1280.66 330.589C1280.66 318.772 1278.86 307.651 1275.3 297.544C1271.98 287.759 1266.66 278.772 1259.68 271.153ZM1238.6 351.512C1237.16 357.836 1234.64 363.864 1231.15 369.333C1227.81 374.559 1223.25 378.899 1217.87 381.985C1212.42 385.054 1205.91 386.631 1198.51 386.684C1191.08 386.631 1184.59 385.054 1179.18 381.999C1173.77 378.915 1169.18 374.57 1165.81 369.333C1162.48 364.171 1159.98 358.179 1158.37 351.512C1156.76 344.661 1155.97 337.645 1156.01 330.609C1156.01 322.868 1156.84 315.577 1158.47 308.95C1160.06 302.342 1162.63 296.377 1166.11 291.248C1169.53 286.196 1174.13 282.056 1179.51 279.185C1184.86 276.369 1191.23 274.911 1198.46 274.851H1198.52C1205.72 274.911 1212.1 276.362 1217.5 279.172C1222.86 282.057 1227.44 286.195 1230.85 291.234C1234.31 296.344 1236.9 302.296 1238.55 308.956C1240.16 315.644 1240.97 322.921 1240.97 330.615C1241 337.649 1240.2 344.663 1238.6 351.512ZM1383.25 410.815C1389.51 408.585 1395.35 405.311 1400.52 401.132C1405.75 396.877 1410.42 391.986 1414.43 386.572L1415.4 385.266H1420.27L1420.9 388.507V394.518C1420.9 398.727 1421.53 402.305 1422.81 405.473C1424.02 408.277 1425.85 410.418 1428.36 411.942C1430.89 413.513 1434.32 414.328 1438.57 414.374C1442.75 414.328 1446.19 413.513 1448.69 411.962C1451.21 410.437 1453.17 408.143 1454.28 405.42C1455.55 402.312 1456.18 398.733 1456.18 394.525V267.017C1456.26 263.497 1455.65 259.995 1454.4 256.705C1453.32 253.848 1451.44 251.635 1448.63 249.878C1445.75 248.122 1441.59 247.201 1436.29 247.154C1431.09 247.201 1426.95 248.129 1424.04 249.898C1421.4 251.463 1419.36 253.857 1418.23 256.705C1416.98 259.982 1416.38 263.471 1416.46 266.977V343.261C1416.4 349.616 1415.26 355.104 1412.94 360.081C1410.78 364.778 1407.71 368.999 1403.9 372.501C1400.3 375.801 1396.12 378.421 1391.58 380.236C1386.92 382.025 1382.53 382.893 1378.1 382.893C1370.89 382.834 1364.81 381.283 1360 378.287C1355.17 375.24 1351.39 370.804 1349.13 365.562C1346.89 360.512 1345.75 354.494 1345.75 347.701V267.017C1345.83 263.497 1345.23 259.994 1343.97 256.705C1342.86 253.855 1340.83 251.457 1338.2 249.892C1335.33 248.135 1331.16 247.214 1325.86 247.161C1320.63 247.208 1316.47 248.135 1313.56 249.905C1310.96 251.486 1308.94 253.876 1307.82 256.711C1306.56 259.985 1305.96 263.473 1306.05 266.977V356.874C1306.14 368.087 1307.8 377.512 1310.95 384.862C1314.11 392.159 1318.34 398.031 1323.52 402.305C1328.68 406.585 1334.66 409.753 1341.1 411.61C1347.48 413.479 1353.8 414.387 1360.45 414.387H1360.99C1369.28 414.321 1376.77 413.122 1383.25 410.815ZM1079.24 187.063C1076.16 185.571 1072.65 184.829 1068.52 184.829C1064.46 184.829 1060.84 185.591 1057.77 187.082C1054.96 188.488 1052.65 190.726 1051.17 193.491C1049.56 196.394 1048.71 200.172 1048.67 204.712V394.511C1048.72 399.018 1049.56 402.796 1051.17 405.705C1052.72 408.515 1054.9 410.603 1057.82 412.088C1060.84 413.599 1064.45 414.374 1068.53 414.374C1072.67 414.374 1076.18 413.625 1079.27 412.081C1082.08 410.691 1084.39 408.467 1085.89 405.712C1087.5 402.809 1088.35 399.031 1088.39 394.485V204.685C1088.34 200.172 1087.5 196.401 1085.89 193.498C1084.39 190.717 1082.07 188.469 1079.24 187.063ZM2376.98 260.085C2376.19 257.954 2375.07 255.961 2373.66 254.18C2372.15 252.284 2370.09 250.667 2367.4 249.275C2364.78 247.917 2361.42 247.201 2357.41 247.154C2353.83 247.201 2350.89 247.937 2348.5 249.414C2346 250.964 2343.9 253.089 2342.39 255.611C2340.62 258.645 2339.29 261.911 2338.43 265.314L2309.62 372.448H2304.67L2303.37 370.069L2273.63 262.179C2272.34 257.54 2270.02 253.974 2266.51 251.29C2262.9 248.56 2258.47 247.208 2253.01 247.154C2249.62 247.144 2246.29 247.999 2243.34 249.64C2240.5 251.238 2238.13 253.547 2236.46 256.34C2234.71 259.15 2233.86 262.338 2233.81 266.103C2233.81 267.554 2234 269.165 2234.36 270.848C2234.77 272.71 2235.37 274.818 2236.17 277.224C2237.01 279.808 2238.07 282.897 2239.33 286.516L2287.73 424.415L2287.5 425.356C2286.24 430.4 2284.55 434.237 2282.49 436.749C2280.3 439.334 2277.83 440.977 2275.1 441.68C2273.18 442.142 2271.21 442.378 2269.24 442.382L2268.05 442.356H2263.48C2259.73 442.356 2256.56 442.952 2253.84 444.178C2251.35 445.214 2249.22 446.97 2247.74 449.222C2246.3 451.469 2245.57 454.285 2245.53 457.824C2245.53 461.006 2246.34 463.855 2248.02 466.48C2249.74 469.177 2252.36 471.298 2256.07 472.968C2259.89 474.758 2265.03 475.686 2271.4 475.739C2278.24 475.739 2284.25 474.778 2289.24 472.889C2294.14 471.07 2298.59 468.21 2302.27 464.505C2306.13 460.654 2309.59 455.856 2312.57 450.256C2315.64 444.317 2318.54 437.438 2321.18 429.836L2374.65 278.271C2375.73 275.335 2376.55 272.743 2377.16 270.411C2377.68 268.276 2377.95 266.374 2377.95 264.797C2377.93 264.022 2377.78 262.577 2376.98 260.085ZM2080.06 389.832C2079.4 387.513 2078.85 384.822 2078.32 381.336C2077.85 378.161 2077.61 374.218 2077.55 368.922V291.373C2077.51 283.666 2075.82 277.025 2072.54 271.657C2069.17 266.07 2064.51 261.616 2058.29 258.004C2052 254.352 2044.36 251.608 2035.6 249.839C2026.75 248.062 2016.73 247.161 2005.82 247.161C2004.36 247.168 2002.92 247.194 2001.5 247.241L2000.34 247.34C1995.88 247.526 1991.91 247.857 1988.21 248.367L1986.48 248.646C1982.09 249.322 1978.41 250.091 1975.22 250.992C1966.48 253.418 1959.05 256.645 1953.14 260.589C1947.22 264.552 1942.77 268.787 1939.92 273.161C1937.04 277.575 1935.64 281.671 1935.64 285.68C1935.68 288.305 1936.34 290.658 1937.65 292.805C1938.98 294.979 1940.82 296.709 1943.31 298.081C1945.78 299.406 1948.74 300.115 1952.07 300.155C1954.73 300.162 1957.34 299.425 1959.61 298.028C1962.15 296.329 1964.52 294.375 1966.66 292.195C1969.34 289.466 1972.17 286.891 1975.13 284.481C1978.47 281.77 1982.5 279.55 1987.43 277.688C1990.47 276.606 1993.63 275.879 1996.84 275.52L1997.59 275.441C1999.95 275.149 2002.55 274.871 2005.47 274.844C2011.1 274.844 2016.28 275.547 2020.88 276.932C2025.84 278.43 2029.87 280.829 2032.87 284.057C2036.1 287.41 2037.78 291.791 2037.85 297.033C2037.79 302.19 2036.7 306.093 2034.53 309.062C2032.3 311.943 2029.25 314.074 2025.77 315.173C2022.28 316.312 2018.66 317.053 2015 317.38L1986.88 320.541C1978.58 321.411 1970.37 322.931 1962.31 325.088C1954.84 327.169 1948.25 330.098 1942.76 333.777C1937.35 337.384 1932.94 342.308 1929.96 348.085C1926.86 354.004 1925.26 361.539 1925.21 370.493C1925.26 377.16 1926.65 383.298 1929.36 388.699C1932.06 394.101 1935.63 398.607 1940.28 402.471C1944.96 406.324 1950.28 409.312 1956 411.292C1961.98 413.367 1967.93 414.381 1974.17 414.381H1974.9C1982.48 414.381 1989.8 413.559 1996.63 411.935C1997.92 411.63 1999.2 411.292 2000.46 410.915C2001.44 410.63 2002.38 410.258 2003.33 409.887L2005.92 408.92C2006.54 408.708 2007.15 408.502 2007.75 408.244C2011.15 406.819 2014.12 405.347 2016.81 403.75C2023.16 399.972 2029.3 394.849 2035.06 388.533L2040.43 382.641L2040.69 390.608C2040.83 394.896 2041.72 398.972 2043.33 402.73C2044.86 406.189 2047.25 408.933 2050.63 411.074C2053.99 413.214 2058.73 414.321 2064.68 414.368C2067.77 414.364 2070.82 413.695 2073.62 412.406C2076.22 411.193 2078.36 409.45 2079.96 407.223C2081.46 405.122 2082.26 402.643 2082.3 399.833C2082.3 398.475 2082.1 397.09 2081.67 395.519L2080.06 389.832ZM2037.84 353.699C2037.82 358.471 2036.77 363.182 2034.75 367.504C2032.6 371.99 2029.58 376.002 2025.86 379.301C2022.07 382.701 2017.41 385.432 2011.99 387.433C2009.44 388.334 2006.81 389.017 2004.14 389.474L2002.8 389.726C1999.77 390.203 1996.83 390.449 1993.82 390.475C1987.99 390.416 1982.96 389.455 1978.82 387.612C1974.5 385.717 1971.08 383.052 1968.64 379.692C1966.21 376.377 1964.91 372.366 1964.93 368.253C1964.93 362.958 1966.3 358.451 1969 354.859C1971.62 351.333 1975.46 348.523 1980.39 346.528C1985.11 344.619 1990.85 343.181 1997.45 342.26L2014.19 339.735C2015.93 339.436 2018.05 339.026 2020.42 338.509C2022.68 338.018 2024.96 337.322 2027.2 336.447C2029.25 335.646 2030.96 334.605 2032.43 333.266L2037.85 328.342V353.699H2037.84ZM910.655 224.329C918.286 220.686 926.641 218.812 935.097 218.848C943.494 218.901 950.235 219.975 955.736 222.129C961.164 224.177 965.816 226.947 969.514 230.354C972.907 233.506 975.96 237.007 978.62 240.799C981.026 244.238 983.372 247.532 985.705 250.607C987.819 253.378 990.338 255.658 993.194 257.387C995.951 259.064 999.517 259.932 1003.79 259.979C1010.53 259.932 1015.64 258.163 1018.92 254.717C1022.25 251.283 1023.93 246.28 1023.93 239.811C1023.93 235.914 1022.73 231.427 1020.39 226.49C1017.96 221.546 1014.3 216.495 1009.53 211.525C1004.75 206.541 998.702 201.882 991.557 197.68C984.459 193.498 976.082 190.078 966.671 187.52C957.22 184.948 946.59 183.623 935.077 183.576C920.934 183.623 907.911 185.657 896.386 189.614C885.006 193.584 874.853 199.198 866.224 206.302C857.648 213.426 850.336 221.948 844.598 231.507C838.674 241.42 834.227 252.143 831.396 263.339C828.422 275.197 826.934 287.379 826.969 299.605C827.068 325.187 831.509 346.846 840.171 363.952C848.8 380.971 861.366 393.948 877.504 402.524C893.887 411.226 913.902 415.64 936.98 415.647C949.26 415.547 960.806 413.718 971.29 410.225C981.841 406.64 991.166 401.815 999 395.897C1006.89 389.885 1013.07 383.145 1017.36 375.855C1021.66 368.571 1023.87 361.009 1023.92 353.374C1023.83 349.935 1022.84 347.038 1020.89 344.619C1018.74 342.036 1015.97 340.048 1012.83 338.847C1009.35 337.415 1005.61 336.685 1001.84 336.699C998.463 336.746 995.567 337.614 993.022 339.35C990.378 341.213 987.919 343.638 985.553 346.76C982.972 350.193 980.442 353.664 977.964 357.172C975.204 361.085 972.097 364.74 968.679 368.094C964.865 371.785 960.415 374.755 955.543 376.862C950.314 379.129 944.091 380.302 937.013 380.362C925.308 380.302 915.208 378.068 906.944 373.714C898.814 369.502 891.867 363.323 886.736 355.74C881.726 348.251 878.021 339.576 875.721 329.946C873.396 319.998 872.268 309.807 872.361 299.592C872.421 286.999 874.051 275.587 877.206 265.672C880.447 255.678 884.96 247.141 890.607 240.282C896.379 233.29 903.119 227.928 910.655 224.329ZM1638.65 204.685C1638.65 200.245 1637.81 196.48 1636.16 193.498C1634.66 190.717 1632.34 188.469 1629.51 187.063C1623.56 184.127 1614.23 184.073 1608.03 187.089C1605.22 188.494 1602.92 190.733 1601.43 193.498C1599.83 196.394 1598.99 200.165 1598.94 204.725V270.57H1593.9L1592.31 269.032C1588.12 262.195 1582.15 256.619 1575.05 252.894C1573.02 251.859 1570.93 250.975 1568.78 250.25C1568.37 250.11 1567.96 249.998 1567.55 249.885L1566.63 249.62C1565.06 249.139 1563.46 248.735 1561.84 248.407L1561.07 248.208C1560.24 248.036 1559.65 247.97 1559.06 247.903L1556.05 247.512C1553.93 247.3 1551.76 247.161 1549.49 247.148C1540.18 247.201 1531.8 248.685 1524.61 251.562C1517.57 254.316 1511.13 258.423 1505.67 263.65C1500.21 268.924 1495.66 275.07 1492.22 281.836C1488.59 288.971 1485.9 296.551 1484.24 304.383C1482.44 312.684 1481.54 321.155 1481.57 329.648C1481.67 344.215 1483.6 356.973 1487.28 367.544C1491 378.168 1496.1 387.009 1502.47 393.822C1508.56 400.526 1516.06 405.803 1524.43 409.278C1532.8 412.669 1541.74 414.396 1550.77 414.361C1554.26 414.361 1557.68 414.122 1560.9 413.645C1564.22 413.155 1567.5 412.39 1570.69 411.359C1576.47 409.473 1581.78 406.401 1586.29 402.339C1590.65 398.461 1594.07 393.411 1596.48 387.307L1597.29 385.259H1602.73L1603.36 388.5V395.777C1603.41 402.04 1604.89 406.759 1607.79 409.781C1610.7 412.823 1615.15 414.368 1621 414.368C1627.08 414.368 1631.59 412.837 1634.4 409.814C1637.21 406.779 1638.64 402.06 1638.64 395.777L1638.65 204.685ZM1599.39 350.882C1598.11 356.933 1595.79 362.715 1592.54 367.975C1589.43 373.015 1585.11 377.205 1579.98 380.169C1578.66 380.943 1577.27 381.614 1575.84 382.178C1575.45 382.33 1575.03 382.456 1574.61 382.582L1573.65 382.887C1572.89 383.16 1572.12 383.396 1571.34 383.596C1570.83 383.712 1570.32 383.808 1569.81 383.881L1569.17 383.987C1567.88 384.239 1567.21 384.371 1566.5 384.457C1565.95 384.524 1565.36 384.55 1564.79 384.577L1563.33 384.663C1562.64 384.716 1561.96 384.769 1561.24 384.776C1554.4 384.55 1548.45 382.946 1543.44 380.004C1538.39 377.081 1534.09 373.021 1530.89 368.147C1527.56 362.962 1525.11 357.26 1523.64 351.273C1522.02 344.715 1521.23 337.98 1521.28 331.225C1521.28 326.599 1521.63 321.867 1522.31 317.155C1523.01 312.343 1524.22 307.518 1525.9 302.826C1527.58 298.151 1529.99 293.77 1533.03 289.843C1536.12 285.832 1540.09 282.584 1544.63 280.345C1549.18 278.012 1554.76 276.793 1561.19 276.733H1561.22C1562.08 276.733 1562.89 276.793 1563.71 276.859L1565.13 276.945C1565.67 276.965 1566.2 276.992 1566.71 277.058C1567.6 277.164 1568.43 277.336 1569.27 277.509L1570.39 277.721C1570.85 277.794 1571.31 277.873 1571.73 277.986C1572.69 278.231 1573.59 278.556 1574.48 278.887L1575.28 279.166C1575.66 279.285 1576.05 279.411 1576.4 279.563C1577.87 280.193 1579.28 280.928 1580.61 281.77C1585.84 285.084 1590.05 289.538 1593.09 295.005C1596.08 300.248 1598.27 306.133 1599.61 312.476C1600.91 319.024 1601.52 325.161 1601.47 331.258C1601.47 338.303 1600.79 344.732 1599.39 350.882ZM2212.23 278.198C2214.09 275.282 2215.06 271.299 2215.1 266.348C2215.06 262.643 2214.14 259.402 2212.29 256.526C2210.4 253.613 2207.74 251.275 2204.61 249.766C2201.28 248.049 2197.49 247.201 2193 247.154C2188.06 247.201 2183.6 248.228 2179.83 250.21C2176.06 252.191 2172.83 254.856 2169.97 258.355C2167.09 261.969 2164.69 265.938 2162.83 270.165C2160.8 274.626 2159.19 279.139 2157.88 283.984L2157.24 286.383H2151.52L2150.89 283.142V265.427C2150.84 261.397 2150.04 257.964 2148.51 255.26C2147.09 252.7 2144.95 250.615 2142.36 249.269C2139.67 247.857 2136.62 247.148 2133.25 247.148C2129.87 247.148 2126.82 247.857 2124.15 249.255C2121.54 250.607 2119.53 252.569 2117.97 255.28C2116.45 257.964 2115.66 261.39 2115.61 265.46V394.511C2115.52 398.032 2116.12 401.536 2117.39 404.824C2118.49 407.621 2120.39 409.834 2123.21 411.597C2126.03 413.393 2130.15 414.321 2135.47 414.374C2140.77 414.321 2144.91 413.393 2147.77 411.597C2150.39 410.041 2152.42 407.659 2153.55 404.824C2154.8 401.55 2155.4 398.063 2155.32 394.558V340.735C2155.32 327.639 2156.45 317.426 2158.77 309.506C2161.21 301.275 2164.87 295.284 2169.64 291.692C2174.35 288.08 2180.12 286.237 2186.78 286.237L2195.58 286.244C2199.1 286.244 2202.34 285.594 2205.23 284.309C2208.1 283.049 2210.46 281.008 2212.23 278.198ZM1880.77 259.243C1875.61 254.959 1869.62 251.787 1863.18 249.925C1856.9 248.071 1850.38 247.135 1843.83 247.148C1834.86 247.201 1827.38 248.4 1821.06 250.7C1814.79 252.927 1808.94 256.201 1803.77 260.383C1798.55 264.639 1793.88 269.531 1789.87 274.944L1788.9 276.256H1784.03L1783.39 273.015V267.004C1783.39 262.796 1782.75 259.117 1781.48 256.062C1780.38 253.359 1778.43 251.082 1775.93 249.567C1773.34 247.956 1769.92 247.141 1765.76 247.141C1761.61 247.141 1758.19 247.956 1755.6 249.554C1753.09 251.078 1751.13 253.371 1750.01 256.095C1748.76 259.117 1748.12 262.802 1748.12 266.997V394.498C1748.03 398.016 1748.64 401.517 1749.89 404.804C1751 407.594 1752.9 409.814 1755.69 411.591C1758.54 413.373 1762.69 414.308 1768.01 414.354C1773.27 414.308 1777.41 413.373 1780.28 411.577C1782.9 410.021 1784.94 407.639 1786.06 404.804C1787.29 401.682 1787.88 398.229 1787.83 394.545V318.268C1787.9 311.892 1789.04 306.405 1791.36 301.447C1793.52 296.75 1796.59 292.528 1800.4 289.027C1804 285.73 1808.17 283.112 1812.71 281.3C1816.99 279.559 1821.57 278.659 1826.2 278.649C1833.46 278.702 1839.55 280.259 1844.32 283.255C1849.12 286.292 1852.9 290.702 1855.15 295.913C1857.41 301.03 1858.55 307.054 1858.55 313.841V394.518C1858.46 398.038 1859.07 401.541 1860.32 404.83C1861.42 407.627 1863.33 409.841 1866.15 411.604C1869.02 413.393 1873.13 414.328 1878.4 414.381C1883.71 414.328 1887.85 413.4 1890.72 411.604C1893.54 409.841 1895.42 407.634 1896.46 404.877C1897.73 401.59 1898.34 398.086 1898.26 394.564V304.662C1898.16 293.441 1896.51 284.017 1893.35 276.674C1890.15 269.304 1885.93 263.438 1880.77 259.243ZM1705.7 249.878C1702.81 248.122 1698.64 247.201 1693.35 247.154C1688.18 247.201 1683.92 248.149 1681.11 249.892C1678.47 251.46 1676.43 253.855 1675.3 256.705C1674.04 259.979 1673.44 263.466 1673.53 266.971V394.518C1673.44 398.039 1674.04 401.542 1675.3 404.83C1676.4 407.627 1678.31 409.841 1681.13 411.604C1683.95 413.4 1688.07 414.328 1693.38 414.381C1698.68 414.328 1702.83 413.4 1705.7 411.604C1708.45 409.874 1710.34 407.66 1711.46 404.83C1712.72 401.557 1713.32 398.07 1713.24 394.564V267.017C1713.32 263.497 1712.72 259.995 1711.46 256.705C1710.35 253.855 1708.32 251.454 1705.7 249.878ZM1703.54 187.579C1700.45 185.792 1696.95 184.851 1693.39 184.851C1689.82 184.851 1686.32 185.792 1683.24 187.579C1680.25 189.334 1677.76 191.826 1676 194.817C1674.22 197.9 1673.28 201.4 1673.28 204.964C1673.28 208.527 1674.22 212.027 1676 215.11C1677.81 218.152 1680.2 220.538 1683.24 222.348C1686.32 224.137 1689.82 225.079 1693.39 225.079C1696.95 225.079 1700.45 224.137 1703.54 222.348C1706.52 220.591 1709.02 218.1 1710.77 215.11C1712.56 212.028 1713.5 208.527 1713.5 204.964C1713.5 201.4 1712.56 197.899 1710.77 194.817C1709.02 191.827 1706.52 189.336 1703.54 187.579Z" fill="#0071CE"/>
</g>
<defs>
<clipPath id="clip0_47_550">
<rect width="2500" height="554" fill="white"/>
</clipPath>
</defs>
</svg>
