<svg width="120" height="60" viewBox="0 0 120 60" fill="none" xmlns="http://www.w3.org/2000/svg">
<path d="M89.4577 36.913L89.4499 32.1935L89.4264 23.7625M94.2006 27.3957L89.4499 32.1931L94.2241 36.9282M62.3987 32.2563C62.4215 31.2444 62.1272 30.2103 61.5313 29.373C60.6726 28.1672 59.2822 27.3418 57.7572 27.3259C57.6557 27.3259 57.5549 27.3259 57.4526 27.3337C56.8496 27.371 56.2658 27.4546 55.7491 27.6697C52.3514 29.0835 51.7494 33.8019 54.616 35.9369C57.0988 37.7835 60.7101 37.0308 61.9608 34.2104C62.2249 33.6143 62.3985 32.8629 62.3985 32.2567V23.7241M85.3243 27.8887C84.6225 27.4341 83.7999 27.2701 82.9879 27.2714C82.8999 27.2714 82.8094 27.2759 82.7302 27.2792C80.3826 27.3802 78.206 29.039 78.206 32.2565C78.206 36.0605 82.2848 38.1135 85.3339 36.3195M99.0235 35.9053L106.236 29.7248C106.236 29.7248 106.06 29.393 105.946 29.2404C104.976 27.9375 103.49 27.2867 101.93 27.2867C98.0707 27.2867 95.1749 32.2794 99.0235 35.9053ZM99.0235 35.9053C99.29 36.1565 99.656 36.3531 100.063 36.5227C101.475 37.1113 103.408 37.0631 104.454 36.2881M114.744 27.3959C113.559 27.399 112.404 27.8143 111.548 28.6146C110.199 29.7281 109.906 31.1347 109.923 32.9122L109.963 36.952M70.2921 27.3021C70.1826 27.3039 70.0738 27.3157 69.9639 27.3178C67.0362 27.3732 64.9253 30.4127 65.5648 33.2328C66.188 35.981 69.1904 37.6084 71.7845 36.7099C74.8055 35.9159 76.0372 32.1119 74.3786 29.5448C73.4714 28.1413 71.9337 27.2709 70.2921 27.3021Z" stroke="#17B5EB" stroke-width="1.93892" stroke-linecap="round" stroke-linejoin="round"/>
<path d="M30.3052 24.447H34.5276V28.7634H36.6626C37.6487 28.7634 38.6625 28.588 39.5963 28.2715C40.055 28.116 40.57 27.8994 41.0226 27.6252C40.4265 26.847 40.1222 25.8643 40.0328 24.8959C39.911 23.5786 40.1769 21.8638 41.0669 20.8327L41.5109 20.3193L42.0397 20.7444C43.3693 21.8143 44.4913 23.3112 44.6887 25.0134C46.292 24.5418 48.1746 24.6533 49.5877 25.4689L50.1675 25.8035L49.8622 26.3992C48.6686 28.7339 46.1696 29.4565 43.7266 29.3285C40.0711 38.434 32.1121 42.7445 22.462 42.7445C17.4762 42.7445 12.9022 40.8807 10.2974 36.4574C10.1447 36.1827 10.0139 35.8953 9.87526 35.6132C8.99481 33.6661 8.70231 31.5331 8.90063 29.4018L8.96009 28.7634H12.5709V24.447H16.7933V20.2246H25.2382V16.0022H30.3052V24.447Z" fill="#394D54"/>
<mask id="mask0_47_572" style="mask-type:luminance" maskUnits="userSpaceOnUse" x="9" y="16" width="41" height="27">
<path d="M17.1042 16.3716V24.8659H13.0417V29.1131H9.6403L9.60226 29.4824C9.3899 31.7961 9.79356 33.9304 10.7218 35.7552L11.0335 36.3148C11.2182 36.6503 11.4398 36.9653 11.6684 37.2728C11.897 37.5802 11.9797 37.7497 12.1245 37.9538C14.5781 40.7096 18.2362 42.0392 22.4593 42.0392C31.8119 42.0392 39.7495 37.8958 43.2623 28.5879C45.7546 28.8435 48.1454 28.2045 49.2349 26.0778C47.4991 25.0762 45.2688 25.3973 43.9837 26.0433L47.3883 16.3716L34.0928 24.8659H29.8457V16.3716H17.1042Z" fill="white"/>
</mask>
<g mask="url(#mask0_47_572)">
<path d="M25.9419 16.7058H29.6015V20.3654H25.9419V16.7058Z" fill="#20C2EF"/>
<path d="M26.3911 20.0605V17.0105ZM26.9399 20.0603V17.0105ZM27.4943 20.0603V17.0105ZM28.0488 20.0603V17.0105ZM28.6033 20.0603V17.0105ZM29.1518 20.0603V17.0105Z" fill="black"/>
<path d="M26.3911 20.0605V17.0105M26.9399 20.0603V17.0105M27.4943 20.0603V17.0105M28.0488 20.0603V17.0105M28.6033 20.0603V17.0105M29.1518 20.0603V17.0105" stroke="#394D54" stroke-width="0.288068"/>
<path d="M30.1641 20.3672H33.8236V16.7078H30.1641V20.3672Z" fill="#00ACD3"/>
<path d="M30.6133 17.0105V20.0605ZM31.1621 17.0107V20.0605ZM31.7164 17.0107V20.0605ZM32.271 17.0107V20.0605ZM32.8255 17.0107V20.0605ZM33.3739 17.0107V20.0605Z" fill="black"/>
<path d="M30.6133 17.0105V20.0605M31.1621 17.0107V20.0605M31.7164 17.0107V20.0605M32.271 17.0107V20.0605M32.8255 17.0107V20.0605M33.3739 17.0107V20.0605" stroke="#394D54" stroke-width="0.288068"/>
<path d="M9.05225 20.9263H12.7118V24.5857H9.05225V20.9263Z" fill="#00ACD3"/>
<path d="M9.05225 25.1506H12.7118V28.8102H9.05225V25.1506Z" fill="#20C2EF"/>
<path d="M9.50146 24.2829V21.2329ZM10.0503 24.2827V21.2329ZM10.6046 24.2827V21.2329ZM11.1591 24.2827V21.2329ZM11.7137 24.2827V21.2329ZM12.2621 24.2827V21.2329Z" fill="black"/>
<path d="M9.50146 24.2829V21.2329M10.0503 24.2827V21.2329M10.6046 24.2827V21.2329M11.1591 24.2827V21.2329M11.7137 24.2827V21.2329M12.2621 24.2827V21.2329" stroke="#394D54" stroke-width="0.288068"/>
<path d="M9.50146 28.5053V25.4553ZM10.0503 28.5052V25.4553ZM10.6046 28.5052V25.4553ZM11.1591 28.5052V25.4553ZM11.7137 28.5052V25.4553ZM12.2621 28.5052V25.4553Z" fill="black"/>
<path d="M9.50146 28.5053V25.4553M10.0503 28.5052V25.4553M10.6046 28.5052V25.4553M11.1591 28.5052V25.4553M11.7137 28.5052V25.4553M12.2621 28.5052V25.4553" stroke="#394D54" stroke-width="0.288068"/>
<path d="M13.2744 28.812H16.934V25.1526H13.2744V28.812Z" fill="#00ACD3"/>
<path d="M13.2744 24.5876H16.934V20.9281H13.2744V24.5876Z" fill="#20C2EF"/>
<path d="M13.7236 25.4554V28.5054ZM14.2724 25.4555V28.5054ZM14.8268 25.4555V28.5054ZM15.3813 25.4555V28.5054ZM15.9358 25.4555V28.5054ZM16.4843 25.4555V28.5054Z" fill="black"/>
<path d="M13.7236 25.4554V28.5054M14.2724 25.4555V28.5054M14.8268 25.4555V28.5054M15.3813 25.4555V28.5054M15.9358 25.4555V28.5054M16.4843 25.4555V28.5054" stroke="#394D54" stroke-width="0.288068"/>
<path d="M13.7236 21.2329V24.283ZM14.2724 21.2331V24.283ZM14.8268 21.2331V24.283ZM15.3813 21.2331V24.283ZM15.9358 21.2331V24.283ZM16.4843 21.2331V24.283Z" fill="black"/>
<path d="M13.7236 21.2329V24.283M14.2724 21.2331V24.283M14.8268 21.2331V24.283M15.3813 21.2331V24.283M15.9358 21.2331V24.283M16.4843 21.2331V24.283" stroke="#394D54" stroke-width="0.288068"/>
<path d="M17.4971 20.9263H21.1566V24.5857H17.4971V20.9263Z" fill="#00ACD3"/>
<path d="M17.4971 25.1506H21.1566V28.8102H17.4971V25.1506Z" fill="#20C2EF"/>
<path d="M17.9463 24.2829V21.2329ZM18.4951 24.2827V21.2329ZM19.0494 24.2827V21.2329ZM19.604 24.2827V21.2329ZM20.1585 24.2827V21.2329ZM20.7069 24.2827V21.2329Z" fill="black"/>
<path d="M17.9463 24.2829V21.2329M18.4951 24.2827V21.2329M19.0494 24.2827V21.2329M19.604 24.2827V21.2329M20.1585 24.2827V21.2329M20.7069 24.2827V21.2329" stroke="#394D54" stroke-width="0.288068"/>
<path d="M17.9463 28.5053V25.4553ZM18.4951 28.5052V25.4553ZM19.0494 28.5052V25.4553ZM19.604 28.5052V25.4553ZM20.1585 28.5052V25.4553ZM20.7069 28.5052V25.4553Z" fill="black"/>
<path d="M17.9463 28.5053V25.4553M18.4951 28.5052V25.4553M19.0494 28.5052V25.4553M19.604 28.5052V25.4553M20.1585 28.5052V25.4553M20.7069 28.5052V25.4553" stroke="#394D54" stroke-width="0.288068"/>
<path d="M21.7197 28.812H25.3793V25.1526H21.7197V28.812Z" fill="#00ACD3"/>
<path d="M21.7197 24.5876H25.3793V20.9281H21.7197V24.5876Z" fill="#20C2EF"/>
<path d="M22.1689 25.4554V28.5054ZM22.7178 25.4555V28.5054ZM23.2721 25.4555V28.5054ZM23.8266 25.4555V28.5054ZM24.3812 25.4555V28.5054ZM24.9296 25.4555V28.5054Z" fill="black"/>
<path d="M22.1689 25.4554V28.5054M22.7178 25.4555V28.5054M23.2721 25.4555V28.5054M23.8266 25.4555V28.5054M24.3812 25.4555V28.5054M24.9296 25.4555V28.5054" stroke="#394D54" stroke-width="0.288068"/>
<path d="M22.1689 21.2329V24.283ZM22.7178 21.2331V24.283ZM23.2721 21.2331V24.283ZM23.8266 21.2331V24.283ZM24.3812 21.2331V24.283ZM24.9296 21.2331V24.283Z" fill="black"/>
<path d="M22.1689 21.2329V24.283M22.7178 21.2331V24.283M23.2721 21.2331V24.283M23.8266 21.2331V24.283M24.3812 21.2331V24.283M24.9296 21.2331V24.283" stroke="#394D54" stroke-width="0.288068"/>
<path d="M25.9419 20.9263H29.6015V24.5857H25.9419V20.9263Z" fill="#00ACD3"/>
<path d="M25.9419 25.1506H29.6015V28.8102H25.9419V25.1506Z" fill="#20C2EF"/>
<path d="M26.3911 24.2829V21.2329ZM26.9399 24.2827V21.2329ZM27.4943 24.2827V21.2329ZM28.0488 24.2827V21.2329ZM28.6033 24.2827V21.2329ZM29.1518 24.2827V21.2329Z" fill="black"/>
<path d="M26.3911 24.2829V21.2329M26.9399 24.2827V21.2329M27.4943 24.2827V21.2329M28.0488 24.2827V21.2329M28.6033 24.2827V21.2329M29.1518 24.2827V21.2329" stroke="#394D54" stroke-width="0.288068"/>
<path d="M26.3911 28.5053V25.4553ZM26.9399 28.5052V25.4553ZM27.4943 28.5052V25.4553ZM28.0488 28.5052V25.4553ZM28.6033 28.5052V25.4553ZM29.1518 28.5052V25.4553Z" fill="black"/>
<path d="M26.3911 28.5053V25.4553M26.9399 28.5052V25.4553M27.4943 28.5052V25.4553M28.0488 28.5052V25.4553M28.6033 28.5052V25.4553M29.1518 28.5052V25.4553" stroke="#394D54" stroke-width="0.288068"/>
<path d="M30.1641 28.812H33.8236V25.1526H30.1641V28.812Z" fill="#00ACD3"/>
<path d="M30.1641 24.5876H33.8236V20.9281H30.1641V24.5876Z" fill="#20C2EF"/>
<path d="M30.6133 25.4554V28.5054ZM31.1621 25.4555V28.5054ZM31.7164 25.4555V28.5054ZM32.271 25.4555V28.5054ZM32.8255 25.4555V28.5054ZM33.3739 25.4555V28.5054Z" fill="black"/>
<path d="M30.6133 25.4554V28.5054M31.1621 25.4555V28.5054M31.7164 25.4555V28.5054M32.271 25.4555V28.5054M32.8255 25.4555V28.5054M33.3739 25.4555V28.5054" stroke="#394D54" stroke-width="0.288068"/>
<path d="M30.6133 21.2329V24.283ZM31.1621 21.2331V24.283ZM31.7164 21.2331V24.283ZM32.271 21.2331V24.283ZM32.8255 21.2331V24.283ZM33.3739 21.2331V24.283Z" fill="black"/>
<path d="M30.6133 21.2329V24.283M31.1621 21.2331V24.283M31.7164 21.2331V24.283M32.271 21.2331V24.283M32.8255 21.2331V24.283M33.3739 21.2331V24.283" stroke="#394D54" stroke-width="0.288068"/>
<path d="M43.985 26.044C44.268 23.8438 42.6214 22.1154 41.6003 21.2949C40.4234 22.6555 40.2406 26.2213 42.0868 27.7223C41.0564 28.6375 38.8854 29.467 36.6623 29.467H9.34846C9.13241 31.7876 9.34846 42.9624 9.34846 42.9624H49.4195L49.2372 26.0802C47.5014 25.0786 45.27 25.3982 43.985 26.044Z" fill="#17B5EB"/>
<path d="M9.34863 32.4368V42.9623H49.4196V32.4368" fill="black" fill-opacity="0.17"/>
<path d="M23.6111 42.0207C21.1109 40.8342 19.7385 39.2212 18.9749 37.4607L11.3799 37.792L15.2577 42.9624L23.6111 42.0207Z" fill="#D4EDF1"/>
<path d="M44.1569 25.9623V25.9678C40.3049 30.9352 34.7793 35.271 28.8475 37.5496C23.5561 39.5824 18.9428 39.592 15.7598 37.9596C15.4171 37.7661 15.081 37.5511 14.7442 37.348C12.4106 35.7171 11.0964 33.0196 11.2069 29.4655H9.34863V42.9624H49.4196V25.2351H44.8032L44.1569 25.9623Z" fill="black" fill-opacity="0.085"/>
</g>
<path d="M11.4956 37.6129C14.1113 37.756 16.9028 37.7817 19.3381 37.0183" stroke="#394D54" stroke-width="0.627841" stroke-linecap="round"/>
<path d="M21.9367 35.7534C21.9366 36.0211 21.8302 36.2778 21.6409 36.4671C21.4516 36.6563 21.1949 36.7628 20.9272 36.7629C20.6595 36.7628 20.4027 36.6564 20.2134 36.4671C20.0241 36.2778 19.9176 36.0211 19.9175 35.7534C19.9176 35.4856 20.024 35.2288 20.2133 35.0395C20.4027 34.8502 20.6594 34.7438 20.9272 34.7437C21.1949 34.7438 21.4516 34.8502 21.6409 35.0396C21.8302 35.2289 21.9366 35.4856 21.9367 35.7534Z" fill="#D4EDF1"/>
<path d="M21.1891 35.0789C21.1332 35.1116 21.0896 35.1618 21.065 35.2216C21.0404 35.2815 21.0361 35.3478 21.0528 35.4104C21.0696 35.4729 21.1064 35.5282 21.1576 35.5678C21.2089 35.6074 21.2717 35.629 21.3364 35.6294C21.4481 35.6294 21.5451 35.5674 21.5953 35.4758C21.6308 35.5611 21.6503 35.6549 21.6503 35.7531C21.6503 36.1524 21.3266 36.4761 20.9272 36.4761C20.5278 36.4761 20.2041 36.1524 20.2041 35.7531C20.2042 35.5614 20.2805 35.3775 20.416 35.2419C20.5516 35.1063 20.7355 35.03 20.9272 35.0298C21.0168 35.0298 21.1056 35.0463 21.1891 35.0788V35.0789ZM3.07031 32.6514H50.0341C49.0114 32.392 46.7989 32.0417 47.1636 30.7014C45.304 32.8531 40.82 32.2108 39.6886 31.1501C38.4283 32.9779 31.0918 32.2832 30.5801 30.8593C29.0001 32.7133 24.1046 32.7133 22.5247 30.8593C22.0128 32.2812 14.6767 32.9779 13.416 31.1501C12.2844 32.2112 7.80238 32.8532 5.94102 30.7014C6.30591 32.0417 4.09332 32.3922 3.07031 32.6514Z" fill="#394D54"/>
</svg>
