<svg width="110" height="32" viewBox="0 0 110 32" fill="none" xmlns="http://www.w3.org/2000/svg">
<path d="M36.4908 11.867H37.7038V18.023C37.7038 19.653 36.9898 20.779 35.3178 20.779C34.8232 20.7863 34.331 20.7085 33.8628 20.549V19.369C34.2622 19.5239 34.6874 19.6019 35.1158 19.599C36.1398 19.599 36.4938 18.986 36.4938 18.103L36.4908 11.867ZM39.9128 11.394C40.0226 11.3868 40.1327 11.4027 40.236 11.4406C40.3394 11.4785 40.4336 11.5375 40.5128 11.614C40.5895 11.6909 40.6488 11.7833 40.6868 11.8851C40.7247 11.9869 40.7404 12.0956 40.7328 12.204C40.7325 12.4184 40.6472 12.624 40.4955 12.7757C40.3439 12.9274 40.1383 13.0127 39.9238 13.013C39.7093 13.0127 39.5037 12.9274 39.352 12.7757C39.2004 12.624 39.1151 12.4184 39.1148 12.204C39.1076 12.0941 39.1235 11.984 39.1614 11.8807C39.1993 11.7774 39.2584 11.6831 39.3348 11.604C39.4117 11.5273 39.5042 11.4679 39.6059 11.43C39.7077 11.392 39.8164 11.3763 39.9248 11.384L39.9128 11.394ZM39.3198 13.982H40.4798V20.72H39.3198V13.982Z" fill="#2684FF"/>
<path d="M42.23 13.9797H43.362V15.1647C43.762 14.3697 44.434 13.8047 45.748 13.8847V15.0167C44.266 14.8637 43.362 15.3137 43.362 16.7407V20.7207H42.23V13.9797Z" fill="#2684FF"/>
<path d="M51.1756 19.5048C50.7436 20.4048 49.9356 20.8528 48.8986 20.8528C47.1066 20.8528 46.2036 19.3308 46.2036 17.3488C46.2036 15.4488 47.1466 13.8448 49.0336 13.8448C50.0166 13.8448 50.7716 14.2888 51.1776 15.1648V13.9798H52.3376V20.7178H51.1776L51.1756 19.5048ZM49.2076 19.7748C50.2456 19.7748 51.1756 19.1148 51.1756 17.6188V17.0738C51.1756 15.5778 50.3276 14.9178 49.3376 14.9178C48.0296 14.9178 47.3576 15.7798 47.3576 17.3438C47.3636 18.9668 48.0096 19.7758 49.2106 19.7758L49.2076 19.7748ZM59.1956 20.8528C57.4836 20.8528 56.6886 20.5158 56.0016 20.1648V18.9248C56.8236 19.3568 58.1016 19.6648 59.2616 19.6648C60.5956 19.6648 61.0996 19.1398 61.0996 18.3568C61.0996 17.5738 60.6146 17.1568 58.9296 16.7538C56.9296 16.2688 56.0466 15.5808 56.0466 14.1258C56.0466 12.7478 57.0966 11.7278 59.1596 11.7278C60.4396 11.7278 61.2616 12.0338 61.8596 12.3738V13.5998C61.0167 13.1354 60.0657 12.9028 59.1036 12.9258C57.9436 12.9258 57.2566 13.3298 57.2566 14.1388C57.2566 14.8658 57.8236 15.2308 59.3846 15.6208C61.2576 16.0928 62.3096 16.6928 62.3096 18.2888C62.2996 19.8248 61.3846 20.8628 59.1876 20.8628L59.1956 20.8528ZM63.3326 17.3348C63.3326 15.3148 64.5176 13.8348 66.5396 13.8348C68.5616 13.8348 69.7196 15.3048 69.7196 17.3348C69.7196 19.3648 68.5466 20.8568 66.5396 20.8568C64.5326 20.8568 63.3326 19.3568 63.3326 17.3348ZM64.4646 17.3348C64.4646 18.6148 65.0986 19.7748 66.5396 19.7748C67.9806 19.7748 68.5896 18.6148 68.5896 17.3348C68.5896 16.0548 67.9696 14.9288 66.5396 14.9288C65.1096 14.9288 64.4696 16.0548 64.4696 17.3348H64.4646ZM72.6696 13.9798H74.4076V15.0518H72.6696V20.7178H71.5376V15.0518H70.4416V13.9798H71.5336V13.2448C71.5336 11.9918 72.2336 11.1428 73.6776 11.1428C73.9416 11.1418 74.2046 11.1778 74.4576 11.2498V12.3218C74.218 12.2764 73.9745 12.254 73.7306 12.2548C73.0166 12.2548 72.6586 12.6728 72.6586 13.2788L72.6696 13.9798ZM78.3296 19.5858C78.5745 19.579 78.8181 19.5472 79.0566 19.4908V20.6088C78.8027 20.6814 78.5397 20.7175 78.2756 20.7158C76.8336 20.7158 76.1316 19.8678 76.1316 18.6138V15.0578H75.0356V13.9858H76.1276V12.5498H77.2596V13.9798H79.0516V15.0518H77.2596V18.5998C77.2656 19.1928 77.6166 19.5968 78.3296 19.5968V19.5858ZM79.3816 13.9798H80.6616L82.6016 19.6928L84.5676 13.9798H85.6736L87.6416 19.6928L89.5836 13.9798H90.8636L88.3836 20.7178H86.9016L85.7416 17.4578L85.1286 15.3828L84.5156 17.4578L83.3406 20.7178H81.8586L79.3816 13.9798ZM96.1556 19.5048C95.7236 20.4048 94.9156 20.8528 93.8786 20.8528C92.0866 20.8528 91.1836 19.3308 91.1836 17.3488C91.1836 15.4488 92.1266 13.8448 94.0136 13.8448C94.9966 13.8448 95.7516 14.2888 96.1576 15.1648V13.9798H97.3176V20.7178H96.1576L96.1556 19.5048ZM94.1876 19.7748C95.2256 19.7748 96.1556 19.1148 96.1556 17.6188V17.0738C96.1556 15.5778 95.3076 14.9178 94.3176 14.9178C93.0156 14.9298 92.3376 15.7858 92.3376 17.3498C92.3376 18.9668 92.9876 19.7748 94.1876 19.7748Z" fill="#2684FF"/>
<path d="M99.0679 13.9797H100.2V15.1647C100.6 14.3697 101.272 13.8047 102.586 13.8847V15.0167C101.104 14.8637 100.2 15.3137 100.2 16.7407V20.7207H99.0679V13.9797Z" fill="#2684FF"/>
<path d="M106.668 20.8528C104.148 20.8528 103.043 19.3978 103.043 17.3308C103.043 15.2958 104.175 13.8308 106.223 13.8308C108.298 13.8308 109.123 15.2728 109.123 17.3308V17.8558H104.206C104.368 19.0008 105.109 19.7428 106.699 19.7428C107.398 19.7424 108.092 19.6192 108.748 19.3788V20.4508C108.195 20.7508 107.345 20.8538 106.648 20.8538L106.668 20.8528ZM104.203 16.8728H107.959C107.892 15.6198 107.325 14.9048 106.167 14.9048C104.943 14.8988 104.323 15.6968 104.202 16.8648L104.203 16.8728Z" fill="#2684FF"/>
<path d="M30.801 15.1245L16.0143 0.337891L1.22769 15.1245C0.995877 15.3573 0.865723 15.6724 0.865723 16.0009C0.865723 16.3294 0.995877 16.6445 1.22769 16.8773L16.0143 31.6639L30.801 16.8773C31.0328 16.6445 31.1629 16.3294 31.1629 16.0009C31.1629 15.6724 31.0328 15.3573 30.801 15.1245ZM16.0143 20.6305L11.3832 15.9994L16.0143 11.3682L20.6455 15.9994L16.0143 20.6305Z" fill="#2684FF"/>
<path d="M16.0142 11.3989C14.5576 9.94249 13.7365 7.96884 13.7302 5.90903C13.7239 3.84921 14.5329 1.87059 15.9806 0.405273L5.81592 10.5057L11.3311 16.0209L16.0142 11.3989Z" fill="url(#paint0_linear_0_1)"/>
<path d="M20.6575 15.9871L16.0142 20.6304C16.7387 21.3545 17.3135 22.2143 17.7057 23.1606C18.0978 24.1069 18.2997 25.1213 18.2997 26.1456C18.2997 27.17 18.0978 28.1843 17.7057 29.1306C17.3135 30.0769 16.7387 30.9367 16.0142 31.6608L26.1697 21.5053L20.6575 15.9871Z" fill="url(#paint1_linear_0_1)"/>
<defs>
<linearGradient id="paint0_linear_0_1" x1="15.1883" y1="6.68516" x2="8.72186" y2="13.1516" gradientUnits="userSpaceOnUse">
<stop offset="0.18" stop-color="#0052CC"/>
<stop offset="1" stop-color="#2684FF"/>
</linearGradient>
<linearGradient id="paint1_linear_0_1" x1="16.8982" y1="25.2616" x2="23.3524" y2="18.8074" gradientUnits="userSpaceOnUse">
<stop offset="0.18" stop-color="#0052CC"/>
<stop offset="1" stop-color="#2684FF"/>
</linearGradient>
</defs>
</svg>
