<svg width="150" height="28" viewBox="0 0 150 28" fill="none" xmlns="http://www.w3.org/2000/svg">
<g clip-path="url(#clip0_46_543)">
<path d="M50.4688 8.09647H45.6369V22.2048H41.8092V8.09647H37V4.92777H50.4688V8.09647ZM62.0911 9.86749L57.176 23.1927C55.9934 26.3977 54.2134 28 51.8345 28C50.9286 28 50.1845 27.8956 49.6023 27.6868V24.6506C50.0983 24.9477 50.6382 25.0964 51.2205 25.0964C52.1808 25.0964 52.8508 24.6345 53.2288 23.7109L53.8671 22.1808L48.952 9.86749H53.0867L55.3446 17.3735C55.4852 17.8394 55.5956 18.3895 55.6743 19.0241H55.7227C55.7922 18.5582 55.9223 18.0162 56.1113 17.3976L58.3919 9.86749H62.0911ZM66.6463 20.7711H66.5979V27.8796H62.8654V9.86749H66.5979V11.7229H66.6463C67.5673 10.2851 68.8633 9.5663 70.5329 9.5663C72.0997 9.5663 73.3096 10.1166 74.1595 11.2169C75.0185 12.3092 75.448 13.7992 75.448 15.6867C75.448 17.743 74.9475 19.3936 73.9478 20.6386C72.9557 21.8836 71.6324 22.506 69.9779 22.506C68.52 22.506 67.41 21.9277 66.6463 20.7711ZM66.5389 15.7109V16.6988C66.5389 17.5503 66.7597 18.245 67.2013 18.7831C67.6429 19.3213 68.2206 19.5904 68.9374 19.5904C69.7889 19.5904 70.4467 19.257 70.911 18.5903C71.3844 17.9158 71.6203 16.9639 71.6203 15.735C71.6203 13.5662 70.7931 12.4819 69.1386 12.4819C68.3748 12.4819 67.7488 12.7791 67.2603 13.3735C66.7794 13.9598 66.5389 14.739 66.5389 15.7109ZM88.014 17.1205H80.1212C80.2482 18.9117 81.3537 19.8072 83.4422 19.8072C84.7731 19.8072 85.9421 19.486 86.9508 18.8434V21.5904C85.8317 22.2008 84.3784 22.506 82.5908 22.506C80.6369 22.506 79.1215 21.9558 78.0417 20.8554C76.9634 19.7469 76.4235 18.2048 76.4235 16.2289C76.4235 14.1808 77.0057 12.5583 78.1718 11.3615C79.3378 10.1647 80.7714 9.5663 82.4728 9.5663C84.2377 9.5663 85.6003 10.1004 86.5607 11.1688C87.5301 12.237 88.014 13.6868 88.014 15.5182V17.1205ZM84.5523 14.7832C84.5523 13.0161 83.8506 12.1326 82.4486 12.1326C81.8513 12.1326 81.331 12.3855 80.8894 12.8915C80.4569 13.3977 80.1922 14.0281 80.0985 14.7832H84.5523ZM89.0953 21.5422V17.6867C89.7819 18.2731 90.526 18.7149 91.329 19.0121C92.1321 19.3012 92.9442 19.4457 93.7624 19.4457C94.2433 19.4457 94.6607 19.4016 95.0146 19.3133C95.3776 19.2249 95.677 19.1045 95.9129 18.9518C96.1579 18.7912 96.3379 18.6065 96.4574 18.3975C96.5753 18.1807 96.6343 17.9478 96.6343 17.6988C96.6343 17.3615 96.539 17.0603 96.35 16.7952C96.1609 16.5301 95.9008 16.2852 95.5711 16.0602C95.2475 15.8354 94.8619 15.6185 94.4127 15.4097C93.9635 15.2008 93.4796 14.988 92.9593 14.7711C91.6361 14.2088 90.647 13.5221 89.9937 12.7109C89.3479 11.8996 89.0258 10.9197 89.0258 9.77111C89.0258 8.87156 89.2027 8.10048 89.5566 7.45785C89.9105 6.80721 90.3914 6.27316 90.9979 5.85539C91.6119 5.43777 92.3211 5.13257 93.1242 4.9398C93.9287 4.73901 94.7787 4.63861 95.677 4.63861C96.5587 4.63861 97.3391 4.69475 98.0166 4.80733C98.7017 4.91173 99.3323 5.07628 99.907 5.30129V8.90364C99.6227 8.70285 99.3126 8.52611 98.9739 8.37344C98.6427 8.22092 98.2994 8.09647 97.9455 8.00008C97.5916 7.89568 97.2362 7.81934 96.8823 7.77107C96.536 7.72295 96.2048 7.69889 95.8903 7.69889C95.4562 7.69889 95.063 7.743 94.7076 7.83137C94.3537 7.91171 94.0543 8.02815 93.8108 8.18067C93.5658 8.33334 93.3768 8.51809 93.2437 8.73492C93.1091 8.94373 93.0425 9.18077 93.0425 9.44586C93.0425 9.73502 93.1166 9.99595 93.2664 10.229C93.4161 10.4538 93.6293 10.6707 93.9046 10.8795C94.1798 11.0804 94.5155 11.2812 94.9087 11.482C95.3035 11.6748 95.7481 11.8755 96.2441 12.0844C96.9217 12.3735 97.5281 12.6827 98.0635 13.0121C98.6064 13.3334 99.0722 13.6989 99.4578 14.1085C99.8435 14.5181 100.138 14.988 100.344 15.5182C100.548 16.0402 100.651 16.6506 100.651 17.3495C100.651 18.3133 100.47 19.1245 100.108 19.7832C99.7527 20.4338 99.2688 20.9639 98.6548 21.3735C98.0393 21.7752 97.3224 22.0643 96.5042 22.2409C95.6921 22.4177 94.8346 22.506 93.9287 22.506C92.9987 22.506 92.1124 22.4257 91.2701 22.2651C90.4353 22.1044 89.7108 21.8634 89.0953 21.5422ZM111.516 21.759C110.673 22.2571 109.456 22.506 107.865 22.506C106.006 22.506 104.501 21.9317 103.352 20.7831C102.201 19.6345 101.627 18.1526 101.627 16.3374C101.627 14.2409 102.241 12.5903 103.47 11.3856C104.706 10.1727 106.357 9.5663 108.42 9.5663C109.846 9.5663 110.877 9.75908 111.516 10.1446V13.3735C110.735 12.7791 109.866 12.4819 108.904 12.4819C107.833 12.4819 106.983 12.8032 106.353 13.4458C105.731 14.0804 105.419 14.9599 105.419 16.0843C105.419 17.1768 105.719 18.0362 106.318 18.6626C106.915 19.2812 107.739 19.5904 108.786 19.5904C109.716 19.5904 110.626 19.2932 111.516 18.6989V21.759ZM121.14 13.3013C120.691 13.0522 120.168 12.9278 119.569 12.9278C118.757 12.9278 118.123 13.233 117.666 13.8434C117.21 14.4459 116.981 15.2691 116.981 16.3133V22.2048H113.247V9.86749H116.981V12.1567H117.028C117.619 10.4859 118.683 9.65066 120.218 9.65066C120.612 9.65066 120.919 9.69878 121.14 9.79516V13.3013ZM124.148 7.91572C123.518 7.91572 123.002 7.72696 122.6 7.34944C122.197 6.9639 121.998 6.494 121.998 5.93974C121.998 5.36945 122.197 4.90356 122.6 4.54223C123.002 4.18074 123.518 4 124.148 4C124.785 4 125.302 4.18074 125.695 4.54223C126.098 4.90356 126.297 5.36945 126.297 5.93974C126.297 6.51805 126.098 6.99196 125.695 7.36147C125.302 7.73097 124.785 7.91572 124.148 7.91572ZM125.99 22.2048H122.258V9.86749H125.99V22.2048ZM132.188 20.7711H132.141V27.8796H128.407V9.86749H132.141V11.7229H132.188C133.11 10.2851 134.406 9.5663 136.076 9.5663C137.643 9.5663 138.853 10.1166 139.703 11.2169C140.562 12.3092 140.991 13.7992 140.991 15.6867C140.991 17.743 140.49 19.3936 139.491 20.6386C138.497 21.8836 137.174 22.506 135.521 22.506C134.063 22.506 132.953 21.9277 132.188 20.7711ZM132.082 15.7109V16.6988C132.082 17.5503 132.303 18.245 132.744 18.7831C133.184 19.3213 133.764 19.5904 134.48 19.5904C135.332 19.5904 135.988 19.257 136.454 18.5903C136.926 17.9158 137.162 16.9639 137.162 15.735C137.162 13.5662 136.336 12.4819 134.682 12.4819C133.918 12.4819 133.292 12.7791 132.803 13.3735C132.322 13.9598 132.082 14.739 132.082 15.7109ZM150 22.0602C149.45 22.3575 148.618 22.506 147.508 22.506C144.876 22.506 143.56 21.1125 143.56 18.3254V12.6747H141.601V9.86749H143.56V7.20478L147.282 6.12048V9.86749H150V12.6747H147.282V17.6627C147.282 18.9478 147.783 19.5904 148.784 19.5904C149.177 19.5904 149.583 19.474 150 19.2409V22.0602Z" fill="white"/>
<mask id="mask0_46_543" style="mask-type:luminance" maskUnits="userSpaceOnUse" x="0" y="0" width="27" height="26">
<path d="M27 0H0V26H27V0Z" fill="white"/>
</mask>
<g mask="url(#mask0_46_543)">
<path fill-rule="evenodd" clip-rule="evenodd" d="M0.98608 0H25.3094C25.854 0 26.2955 0.436522 26.2955 0.975V25.025C26.2955 25.5635 25.854 26 25.3094 26H0.98608C0.441483 26 0 25.5635 0 25.025V0.975C0 0.436522 0.441483 0 0.98608 0ZM14.6175 13.8324V11.7H5.25909V13.8324H8.6002V23.327H11.26V13.8324H14.6175ZM15.6779 23.0763C16.1068 23.2925 16.6141 23.4547 17.1997 23.5628C17.7854 23.6709 18.4026 23.725 19.0515 23.725C19.6839 23.725 20.2846 23.6655 20.8538 23.5466C21.4229 23.4277 21.9219 23.2317 22.3508 22.9587C22.7797 22.6857 23.1193 22.329 23.3695 21.8884C23.6197 21.4478 23.7448 20.9032 23.7448 20.2545C23.7448 19.7842 23.6733 19.3721 23.5303 19.018C23.3874 18.6639 23.1812 18.349 22.9117 18.0733C22.6423 17.7976 22.3192 17.5503 21.9425 17.3314C21.5658 17.1125 21.1411 16.9057 20.6682 16.7111C20.3217 16.5705 20.011 16.434 19.7361 16.3016C19.4611 16.1692 19.2274 16.034 19.035 15.8962C18.8425 15.7583 18.6941 15.6124 18.5896 15.4583C18.4851 15.3043 18.4329 15.1299 18.4329 14.9353C18.4329 14.7569 18.4796 14.5961 18.5731 14.4529C18.6666 14.3096 18.7985 14.1866 18.969 14.0839C19.1395 13.9812 19.3484 13.9015 19.5959 13.8447C19.8433 13.788 20.1183 13.7596 20.4207 13.7596C20.6407 13.7596 20.873 13.7758 21.1177 13.8082C21.3624 13.8407 21.6085 13.8907 21.8559 13.9582C22.1034 14.0258 22.344 14.1109 22.5777 14.2137C22.8114 14.3164 23.0272 14.4353 23.2252 14.5704V12.146C22.8237 11.9946 22.3852 11.8824 21.9095 11.8095C21.4339 11.7365 20.8881 11.7 20.2722 11.7C19.6454 11.7 19.0515 11.7662 18.4906 11.8987C17.9297 12.0311 17.4362 12.2379 17.01 12.519C16.5838 12.8001 16.247 13.1582 15.9996 13.5933C15.7521 14.0285 15.6284 14.5488 15.6284 15.1542C15.6284 15.9273 15.8552 16.5868 16.3089 17.1327C16.7626 17.6787 17.4513 18.1409 18.3751 18.5193C18.7381 18.6653 19.0762 18.8085 19.3897 18.9491C19.7031 19.0896 19.9739 19.2356 20.2021 19.3869C20.4303 19.5383 20.6104 19.7031 20.7424 19.8815C20.8744 20.0599 20.9404 20.2626 20.9404 20.4897C20.9404 20.6573 20.8991 20.8127 20.8166 20.9559C20.7341 21.0992 20.609 21.2235 20.4413 21.3289C20.2736 21.4343 20.0647 21.5168 19.8145 21.5762C19.5643 21.6357 19.2714 21.6654 18.936 21.6654C18.3641 21.6654 17.7977 21.5668 17.2368 21.3695C16.676 21.1722 16.1563 20.8762 15.6779 20.4816V23.0763Z" fill="#3178C6"/>
</g>
</g>
<defs>
<clipPath id="clip0_46_543">
<rect width="150" height="28" fill="white"/>
</clipPath>
</defs>
</svg>
