<svg width="112" height="32" viewBox="0 0 112 32" fill="none" xmlns="http://www.w3.org/2000/svg">
<path d="M28.42 6.50011C24.578 1.52412 18.116 -0.645885 12.05 1.00011C5.98399 2.64611 1.504 7.78711 0.703996 14.0221C-0.0960044 20.2571 2.938 26.3621 8.394 29.4861C13.85 32.6101 20.649 32.1421 25.624 28.2981C32.424 23.0501 33.654 13.2921 28.422 6.50111L28.42 6.50011Z" fill="#FF6C37"/>
<path d="M21.362 10.36L14.809 16.965L12.957 15.061C19.407 8.61096 20.054 9.19396 21.375 10.361L21.362 10.36Z" fill="white"/>
<path d="M14.8079 17.1471C14.7499 17.1461 14.6949 17.1221 14.6529 17.0821L12.7879 15.2171C12.7009 15.1171 12.7009 14.9841 12.7879 14.8931C19.1339 8.54705 20.0149 8.83306 21.5179 10.1931C21.5679 10.2331 21.5979 10.2961 21.5959 10.3611C21.6059 10.4251 21.5809 10.4891 21.5309 10.5291L14.9779 17.0821C14.9319 17.1241 14.8719 17.1471 14.8099 17.1471H14.8079ZM13.2799 15.0751L14.8079 16.6031L21.0249 10.3861C20.8101 10.1173 20.5039 9.93709 20.1647 9.87973C19.8255 9.82237 19.4771 9.8919 19.1859 10.0751C18.0589 10.5931 16.2459 12.1211 13.2799 15.0751Z" fill="#FF6C37"/>
<path d="M16.6859 18.7919L14.8999 16.9799L21.4529 10.5039C23.2129 12.2269 20.5979 15.1019 16.6869 18.7939L16.6859 18.7919Z" fill="white"/>
<path d="M16.686 19.025C16.629 19.02 16.574 18.998 16.531 18.96L14.718 17.173C14.691 17.107 14.691 17.033 14.718 16.966C14.698 16.912 14.698 16.852 14.718 16.798L21.271 10.245C21.366 10.155 21.513 10.155 21.608 10.245C22.038 10.64 22.274 11.203 22.256 11.785C22.256 13.533 20.261 15.735 16.868 18.947C16.823 18.992 16.763 19.019 16.7 19.025H16.686ZM15.236 16.953L16.7 18.417C19.3 15.957 21.75 13.444 21.777 11.734C21.791 11.371 21.671 11.016 21.44 10.737L15.236 16.953Z" fill="#FF6C37"/>
<path d="M13.0082 15.1L14.3032 16.395C14.3202 16.41 14.3292 16.431 14.3292 16.453C14.3292 16.475 14.3192 16.497 14.3032 16.511L11.5832 17.094C11.5283 17.1048 11.4715 17.0976 11.4211 17.0736C11.3707 17.0495 11.3293 17.0099 11.3032 16.9605C11.277 16.9112 11.2675 16.8547 11.2759 16.7995C11.2844 16.7443 11.3104 16.6932 11.3502 16.654L12.9432 15.074C12.9432 15.074 12.9952 15.074 13.0212 15.1H13.0082Z" fill="white"/>
<path d="M11.506 17.355C11.33 17.353 11.169 17.26 11.079 17.109C11.0287 17.0151 11.0104 16.9075 11.0269 16.8023C11.0433 16.6971 11.0935 16.6001 11.17 16.526L12.75 14.933C12.8068 14.882 12.8805 14.8538 12.957 14.8538C13.0334 14.8538 13.1071 14.882 13.164 14.933L14.459 16.228C14.536 16.301 14.566 16.411 14.537 16.513C14.508 16.615 14.422 16.696 14.317 16.72L11.597 17.303L11.506 17.355ZM12.956 15.385L11.492 16.849L13.914 16.331L12.956 15.385Z" fill="#FF6C37"/>
<path d="M24.8458 6.7221C23.9088 5.8201 22.4378 5.7821 21.4458 6.6361C20.4538 7.4901 20.2958 8.9511 21.0578 10.0061C21.8198 11.0611 23.2658 11.3561 24.3828 10.6861L22.6228 8.9261L24.8458 6.7221Z" fill="white"/>
<path d="M23.0971 11.2801C21.9971 11.2661 21.0101 10.5951 20.5931 9.5761C20.1761 8.5571 20.4071 7.3881 21.1811 6.6041C21.6992 6.09445 22.3968 5.80884 23.1236 5.80884C23.8503 5.80884 24.548 6.09445 25.0661 6.6041C25.0907 6.62475 25.1105 6.65053 25.124 6.67964C25.1376 6.70875 25.1446 6.74048 25.1446 6.7726C25.1446 6.80472 25.1376 6.83645 25.124 6.86555C25.1105 6.89466 25.0907 6.92045 25.0661 6.9411L22.9681 8.9231L24.5611 10.4771C24.5868 10.5018 24.6062 10.5323 24.6175 10.5661C24.6288 10.5999 24.6318 10.6359 24.6261 10.6711C24.6181 10.7411 24.5801 10.8011 24.5221 10.8391C24.0941 11.1069 23.6018 11.2544 23.0971 11.2661V11.2801ZM23.0971 6.2551C22.6481 6.25772 22.21 6.39283 21.8375 6.64347C21.465 6.89412 21.1749 7.24914 21.0034 7.66403C20.8319 8.07892 20.7866 8.53522 20.8734 8.9757C20.9602 9.41618 21.175 9.82124 21.4911 10.1401C22.1511 10.8021 23.1471 10.9921 24.0041 10.6201L22.4761 9.0921C22.4261 9.0521 22.3981 8.9921 22.3981 8.9301C22.3981 8.8681 22.4281 8.8071 22.4761 8.7681L24.4961 6.7351C24.0945 6.42711 23.6032 6.2589 23.0971 6.2561V6.2551Z" fill="#FF6C37"/>
<path d="M24.8851 6.76006L22.6831 8.96206L24.4431 10.7221C24.6204 10.6202 24.7855 10.4984 24.9351 10.3591C25.397 9.87102 25.6511 9.22258 25.6439 8.55067C25.6366 7.87876 25.3685 7.23597 24.8961 6.75806L24.8851 6.76006Z" fill="white"/>
<path d="M24.3919 10.918C24.3319 10.921 24.2759 10.898 24.2369 10.853L22.4769 9.09295C22.4269 9.05295 22.3989 8.99295 22.3989 8.93095C22.3989 8.86895 22.4289 8.80795 22.4769 8.76895L24.6789 6.60595C24.7219 6.54095 24.7949 6.50195 24.8729 6.50195C24.9509 6.50195 25.0229 6.54195 25.0669 6.60595C25.3253 6.8592 25.5305 7.16144 25.6707 7.49498C25.8108 7.82852 25.883 8.18667 25.883 8.54845C25.883 8.91023 25.8108 9.26838 25.6707 9.60192C25.5305 9.93547 25.3253 10.2377 25.0669 10.491C24.9149 10.653 24.7399 10.791 24.5489 10.905C24.5009 10.929 24.4449 10.935 24.3939 10.918H24.3919ZM22.9669 8.92295L24.4309 10.387C24.5309 10.317 24.6269 10.239 24.7159 10.154C24.9289 9.94152 25.098 9.68921 25.2135 9.41141C25.329 9.13362 25.3886 8.83579 25.3889 8.53495C25.3893 7.99152 25.1912 7.46665 24.8319 7.05895L22.9669 8.92295Z" fill="#FF6C37"/>
<path d="M21.6342 10.633C21.2702 10.291 20.7042 10.291 20.3392 10.633L14.4722 16.487L15.4422 17.471L21.6592 12.031C21.7538 11.9403 21.829 11.8312 21.8799 11.7104C21.9308 11.5897 21.9564 11.4597 21.9552 11.3287C21.954 11.1976 21.9259 11.0681 21.8728 10.9483C21.8196 10.8285 21.7425 10.7208 21.6462 10.632L21.6342 10.633Z" fill="white"/>
<path d="M15.3898 17.7039C15.3318 17.7029 15.2768 17.6789 15.2348 17.6389L14.2508 16.6549C14.1638 16.5549 14.1638 16.4219 14.2508 16.3309L20.1178 10.5029C20.2865 10.3333 20.5024 10.2185 20.7373 10.1734C20.9722 10.1283 21.2152 10.1551 21.4347 10.2502C21.6542 10.3453 21.8399 10.5044 21.9676 10.7066C22.0954 10.9088 22.1592 11.1449 22.1508 11.3839C22.1378 11.7109 21.9928 12.0189 21.7508 12.2389L15.5338 17.6789C15.4888 17.7109 15.4335 17.7248 15.3788 17.7179L15.3898 17.7039ZM14.7038 16.4869L15.3518 17.1349L21.4388 11.8349C21.5136 11.7704 21.5741 11.6911 21.6164 11.6019C21.6588 11.5127 21.6821 11.4156 21.6848 11.3169C21.6928 11.1169 21.6118 10.9219 21.4648 10.7869C21.1818 10.5049 20.7248 10.5049 20.4418 10.7869L14.7038 16.4869Z" fill="#FF6C37"/>
<path d="M9.92584 23.157C9.90919 23.1795 9.90021 23.2066 9.90021 23.2345C9.90021 23.2625 9.90919 23.2896 9.92584 23.312L10.1858 24.439C10.2078 24.573 10.1438 24.707 10.0258 24.774C9.90784 24.841 9.75884 24.826 9.65584 24.737L7.88184 23.037L13.4118 17.467H15.3288L16.6238 18.762C14.6038 20.529 12.3508 22.01 9.92784 23.166L9.92584 23.157Z" fill="white"/>
<path d="M9.8102 25.0601C9.6632 25.0571 9.5242 24.9971 9.4202 24.8921L7.7362 23.2081C7.6862 23.1681 7.6582 23.1081 7.6582 23.0461C7.6582 22.9841 7.6882 22.9231 7.7362 22.8841L13.3062 17.3141C13.3375 17.2808 13.3784 17.2581 13.4232 17.2491H15.3662C15.4162 17.2311 15.4712 17.2311 15.5212 17.2491L16.8162 18.5441C16.8662 18.5901 16.8902 18.6581 16.8812 18.7241C16.8832 18.7891 16.8542 18.8521 16.8032 18.8921L16.6992 18.9821C14.6705 20.6734 12.4386 22.1048 10.0552 23.2431L10.3152 24.2791C10.3552 24.4431 10.3172 24.6161 10.2152 24.7491C10.1132 24.8821 9.9552 24.9621 9.7852 24.9651L9.8102 25.0601ZM8.2302 23.0271L9.7582 24.5811C9.7882 24.6071 9.8322 24.6071 9.8622 24.5811C9.8822 24.5541 9.8822 24.5171 9.8622 24.4911L9.6022 23.3641C9.5602 23.1971 9.6422 23.0241 9.7962 22.9501C12.1156 21.8272 14.2902 20.427 16.2722 18.7801L15.2002 17.7171H13.4642L8.2302 23.0271Z" fill="#FF6C37"/>
<path d="M6.54512 24.3599L7.84012 23.0649L9.83512 25.0599L6.66212 24.8399C6.6078 24.8354 6.55629 24.8139 6.51486 24.7785C6.47343 24.743 6.44419 24.6955 6.43125 24.6425C6.41832 24.5896 6.42235 24.5339 6.44279 24.4834C6.46322 24.4329 6.49902 24.389 6.54512 24.3599Z" fill="white"/>
<path d="M9.874 25.255L6.714 25.035C6.6216 25.0272 6.53331 24.9933 6.45939 24.9374C6.38546 24.8814 6.32893 24.8056 6.29636 24.7188C6.26379 24.632 6.25652 24.5377 6.2754 24.4469C6.29427 24.3561 6.33852 24.2726 6.403 24.206L7.698 22.911C7.798 22.824 7.931 22.824 8.022 22.911L10.004 24.893C10.0314 24.9306 10.0461 24.9759 10.0461 25.0225C10.0461 25.069 10.0314 25.1143 10.004 25.152C9.974 25.2 9.928 25.236 9.874 25.255ZM6.714 24.53L9.314 24.698L7.889 23.364L6.714 24.53Z" fill="#FF6C37"/>
<path d="M15.5081 17.614L12.8921 18.004L14.4071 16.502L15.5081 17.614Z" fill="white"/>
<path d="M12.8922 18.2601C12.8487 18.2613 12.8058 18.2496 12.769 18.2265C12.7322 18.2033 12.703 18.1698 12.6852 18.1301C12.6578 18.0925 12.6431 18.0471 12.6431 18.0006C12.6431 17.954 12.6578 17.9087 12.6852 17.8711L14.1872 16.3561C14.2822 16.2661 14.4292 16.2661 14.5242 16.3561L15.6242 17.4561C15.646 17.491 15.6576 17.5314 15.6576 17.5726C15.6576 17.6138 15.646 17.6541 15.6242 17.6891C15.6143 17.732 15.5918 17.7709 15.5595 17.8009C15.5272 17.8308 15.4867 17.8504 15.4432 17.8571L12.8432 18.2471L12.8922 18.2601ZM14.4072 16.8351L13.5652 17.6771L15.0152 17.4571L14.4072 16.8351Z" fill="#FF6C37"/>
<path d="M15.5082 17.6139L13.6952 17.8469C13.5952 17.8699 13.4912 17.8239 13.4402 17.7349C13.3892 17.6459 13.4032 17.5329 13.4742 17.4589L14.4192 16.5139L15.5082 17.6139Z" fill="white"/>
<path d="M13.63 18.0929C13.5454 18.092 13.4626 18.0688 13.3899 18.0256C13.3172 17.9824 13.2572 17.9208 13.216 17.847C13.114 17.665 13.146 17.447 13.294 17.29L14.239 16.345C14.334 16.255 14.481 16.255 14.576 16.345L15.676 17.445C15.743 17.508 15.776 17.605 15.736 17.692C15.696 17.779 15.636 17.839 15.534 17.846L13.721 18.0789L13.63 18.0929ZM13.63 17.613L15.003 17.445L14.393 16.835L13.616 17.612L13.63 17.613ZM24.898 8.24895C24.848 8.16395 24.742 8.13095 24.652 8.17095C24.609 8.19295 24.576 8.23095 24.552 8.27795C24.528 8.32495 24.542 8.37395 24.565 8.41795C24.655 8.60795 24.631 8.83495 24.5 9.00095C24.466 9.03295 24.447 9.07695 24.447 9.12395C24.447 9.17095 24.467 9.21395 24.5 9.24695C24.533 9.25995 24.57 9.25995 24.604 9.24695C24.664 9.26295 24.73 9.24295 24.772 9.19495C24.99 8.92895 25.035 8.56095 24.889 8.24995L24.898 8.24895ZM87.186 13.611L85.656 16.906C85.516 17.184 85.423 17.554 85.156 17.554C84.784 17.554 84.739 17.182 84.599 16.859L83.347 14.122C83.254 13.982 83.254 13.705 83.069 13.75C82.836 13.797 82.884 14.074 82.884 14.25V19.863C82.884 20.141 82.884 20.42 82.837 20.698C82.79 20.976 82.604 21.162 82.337 21.162C82.059 21.115 81.965 20.929 81.92 20.698V11.976C81.92 11.604 81.827 11.096 82.244 10.956C82.708 10.816 82.986 11.189 83.171 11.604L84.596 14.759C84.736 15.037 84.781 15.536 85.153 15.594C85.57 15.594 85.617 15.037 85.757 14.759L87.182 11.697C87.367 11.28 87.599 10.862 88.109 10.955C88.609 11.095 88.481 11.603 88.481 12.022V20.095C88.481 20.512 88.621 21.162 88.017 21.162C87.369 21.162 87.517 20.514 87.517 20.048V14.712C87.47 14.34 87.564 13.97 87.193 13.598L87.186 13.611ZM107.089 13.844C106.811 14.122 106.904 14.492 106.904 14.818V20.338C106.904 20.662 106.997 21.173 106.532 21.173C106.032 21.22 106.032 20.709 106.032 20.338V11.79C106.032 11.466 105.985 11.048 106.356 10.955C106.773 10.815 107.004 11.14 107.191 11.512L109.464 16.57C109.604 16.942 109.788 17.265 109.928 17.637C110.021 17.822 110.021 18.101 110.3 18.009C110.533 17.916 110.485 17.637 110.485 17.452V12.012C110.485 11.779 110.485 11.595 110.532 11.364C110.579 11.04 110.765 10.9 111.032 10.9C111.31 10.947 111.404 11.178 111.404 11.457V20.04C111.404 20.412 111.544 20.92 111.08 21.06C110.58 21.245 110.385 20.736 110.2 20.318L107.602 14.565C107.462 14.287 107.417 13.961 107.102 13.823L107.089 13.844ZM54.432 16.024C54.385 17.044 54.479 18.019 54.339 19.039C54.106 20.464 53.319 21.173 51.879 21.173C50.349 21.173 49.466 20.525 49.281 19.085C49.048 16.997 49.003 14.863 49.281 12.785C49.466 11.438 50.395 10.79 51.786 10.79C53.177 10.79 54.059 11.485 54.291 12.785C54.524 13.899 54.384 14.965 54.431 16.032L54.432 16.024ZM53.505 16.024V13.66C53.458 12.456 52.81 11.756 51.745 11.804C50.725 11.804 50.121 12.452 50.061 13.66V18.452C50.108 19.656 50.709 20.308 51.745 20.356C52.812 20.356 53.461 19.708 53.505 18.452C53.552 17.675 53.505 16.875 53.505 16.039V16.024ZM100.26 20.5239C100.26 20.8479 100.213 21.0809 99.936 21.1279C99.703 21.1749 99.519 21.1279 99.436 20.8499C99.389 20.6649 99.296 20.4329 99.251 20.2459C98.834 18.8209 98.834 18.821 97.567 18.821H97.16C95.583 18.821 95.583 18.821 95.026 20.505C94.933 20.829 94.886 21.282 94.422 21.153C93.958 20.968 94.098 20.505 94.189 20.133L96.462 11.735C96.602 11.318 96.647 10.715 97.239 10.761C97.739 10.808 97.843 11.318 97.934 11.735L100.068 19.713C100.161 19.991 100.208 20.27 100.253 20.548L100.26 20.5239ZM97.152 17.926H97.616C98.636 17.926 98.683 17.879 98.358 16.722L97.478 13.428C97.431 13.195 97.478 12.871 97.2 12.871C96.922 12.871 96.876 13.195 96.828 13.475L96.086 16.26C95.622 17.944 95.669 17.944 97.153 17.944L97.152 17.926ZM38.102 16.0259V11.726C38.102 11.031 38.335 10.799 38.879 10.799H40.456C42.59 10.846 43.379 11.819 43.331 14.279C43.284 15.963 42.451 16.924 41.001 17.016C40.584 17.016 40.224 17.063 39.797 17.016C39.149 16.969 38.917 17.294 38.962 17.99C39.009 18.825 38.962 19.674 38.962 20.45C38.962 20.774 38.915 21.145 38.498 21.145C38.081 21.145 38.081 20.773 38.081 20.403V16.04L38.102 16.0259ZM40.282 16.166C41.629 16.166 42.138 15.842 42.37 14.866C42.602 13.89 42.603 12.962 41.906 12.221C41.164 11.479 40.19 11.804 39.308 11.849C38.984 11.849 38.984 12.266 38.984 12.591V14.679C38.984 16.163 38.984 16.163 40.284 16.163L40.282 16.166ZM62.688 21.269C61.714 21.269 60.928 21.084 60.322 20.342C60.137 20.109 59.905 19.785 60.182 19.462C60.415 19.184 60.682 19.369 60.877 19.602C61.434 20.206 62.037 20.379 62.781 20.344C63.476 20.297 63.985 19.9719 64.265 19.1839C64.54 18.4659 64.378 17.654 63.848 17.096C63.348 16.539 62.688 16.319 62.038 15.982C61.111 15.565 60.414 14.962 60.322 13.709C60.182 12.025 60.926 11.111 62.55 10.786C63.245 10.646 63.897 10.833 64.498 11.064C64.822 11.157 65.102 11.436 64.962 11.841C64.822 12.305 64.498 12.119 64.22 11.981C63.616 11.657 62.968 11.657 62.364 11.748C61.864 11.841 61.39 12.165 61.297 12.815C61.204 13.465 61.297 14.019 61.761 14.439C62.365 14.939 63.061 15.134 63.709 15.459C64.729 15.959 65.286 16.8509 65.286 18.1489C65.286 19.3529 65.008 20.283 63.986 20.886C63.522 21.21 63.012 21.164 62.686 21.258L62.688 21.269ZM72.85 16.397V12.825C72.897 11.945 72.572 11.665 71.876 11.758C71.598 11.805 71.272 11.758 70.996 11.758C70.72 11.758 70.532 11.618 70.532 11.258C70.532 10.98 70.717 10.794 70.949 10.794H75.681C75.914 10.794 76.098 10.934 76.098 11.211C76.098 11.535 75.913 11.711 75.634 11.711C75.31 11.711 74.939 11.758 74.614 11.711C73.966 11.664 73.779 11.989 73.779 12.685V20.2949C73.779 20.6669 73.732 21.0719 73.315 21.0719C72.851 21.0719 72.851 20.6549 72.851 20.2949V16.41L72.85 16.397Z" fill="#FF6C37"/>
</svg>
