<svg width="444" height="212" viewBox="0 0 444 212" fill="none" xmlns="http://www.w3.org/2000/svg">
<path d="M186.787 104.411C186.773 98.3666 184.76 92.4967 181.062 87.7162C177.363 82.9357 172.187 79.5132 166.34 77.9822L192.578 0.582401H62.5067L88.8148 78.2278C83.1297 79.8783 78.1341 83.3297 74.5789 88.063C71.0236 92.7963 69.101 98.5558 69.1 104.476C69.1 113.631 73.6777 121.749 80.6833 126.716C77.9357 130.622 74.7619 134.222 71.1618 137.641C64.3879 143.989 56.8772 148.872 48.7596 152.106C41.439 147.163 38.2605 138.438 41.1285 130.622C52.2485 127.202 60.4171 116.722 60.4171 104.49C60.4048 97.2554 57.5257 90.3212 52.4104 85.2059C47.2951 80.0906 40.3608 77.2114 33.1268 77.1992C25.8772 77.209 18.9273 80.0932 13.8011 85.2195C8.67486 90.3457 5.79063 97.2955 5.78082 104.545C5.78082 111.991 8.83882 118.83 13.7177 123.713L12.4343 126.336C8.34306 134.759 3.70509 144.281 1.93516 154.97C-1.60471 176.283 4.19159 193.487 18.1704 203.193C26.047 208.624 34.7114 211.371 44.0522 211.371C60.1067 211.371 76.4021 203.309 92.1462 195.502C103.377 189.942 114.975 184.15 126.433 181.343C130.603 180.305 135.042 179.693 139.684 179.026C149.09 177.636 158.792 176.278 167.517 171.214C177.71 165.293 184.669 155.405 186.685 144.054C188.214 135.324 186.685 126.54 182.779 118.848C185.474 114.507 186.892 109.493 186.87 104.383L186.787 104.411ZM174.879 104.411C174.879 112.89 167.929 119.793 159.496 119.793C156.812 119.768 154.18 119.044 151.86 117.694C149.539 116.344 147.61 114.413 146.262 112.091C144.914 109.77 144.192 107.138 144.169 104.453C144.146 101.769 144.821 99.1242 146.129 96.7797C146.616 95.9271 147.227 95.0653 147.843 94.3379C148.48 93.59 149.196 92.9142 149.979 92.3224L150.04 92.2622C150.526 91.8915 151.078 91.5301 151.629 91.1641C151.935 90.9787 152.185 90.7934 152.417 90.6776C152.477 90.6776 152.537 90.6173 152.602 90.6173C152.847 90.4969 153.158 90.3718 153.454 90.2467C153.751 90.1216 154.066 90.0011 154.307 89.876C154.367 89.876 154.427 89.8158 154.492 89.8158C154.738 89.7555 154.979 89.6304 155.224 89.5702C155.285 89.5702 155.41 89.51 155.47 89.51L156.322 89.3246H156.383L157.3 89.1393C157.36 89.1393 157.485 89.1393 157.546 89.0791C157.791 89.0791 158.032 89.0188 158.278 89.0188H158.584C158.889 89.0188 159.195 88.9586 159.51 88.9586H160.298C160.523 88.9483 160.749 88.9685 160.97 89.0188H161.09C161.583 89.0694 162.072 89.1514 162.554 89.2644C166.02 90.0072 169.128 91.9141 171.36 94.6679C173.592 97.4218 174.814 100.857 174.823 104.402L174.879 104.411ZM79.5342 12.7912H175.551L153.515 77.7969C152.597 77.9822 151.684 78.2834 150.767 78.5846L127.573 31.3246L104.313 78.2927C103.396 77.9869 102.423 77.8062 101.441 77.6208L79.5342 12.7912ZM123.18 99.101C122.056 93.4656 119.168 88.3343 114.933 84.4504L127.568 58.9346L140.324 84.9971C136.538 88.7825 133.837 93.6058 132.692 99.0963L123.18 99.101ZM92.6002 89.4544L93.4528 89.269H93.6381C93.8837 89.2088 94.1246 89.2088 94.3702 89.1486H94.6157C94.8613 89.1486 95.042 89.0883 95.2876 89.0883H97.6691C97.9147 89.0883 98.0954 89.1486 98.2807 89.1486C98.4012 89.1486 98.466 89.1486 98.5865 89.2088C98.8321 89.269 99.0128 89.269 99.2583 89.3293C99.3186 89.3293 99.3788 89.3293 99.5039 89.3895L100.356 89.5748C100.631 89.6198 100.897 89.7024 101.149 89.8204C101.209 89.8204 101.269 89.8806 101.394 89.8806C101.58 89.9409 101.821 90.0011 102.006 90.1262C102.066 90.1262 102.126 90.1864 102.191 90.1864C102.437 90.3069 102.678 90.3718 102.923 90.4922H102.984C103.266 90.5974 103.532 90.7408 103.776 90.9185C104.082 91.039 104.332 91.2243 104.563 91.3448C104.624 91.3448 104.624 91.405 104.684 91.405C104.93 91.5255 105.11 91.7108 105.356 91.8313L105.416 91.8915C106.134 92.4502 106.827 93.0408 107.492 93.6614L107.552 93.7217C108.188 94.3996 108.761 95.1347 109.262 95.9179C110.899 98.4215 111.769 101.35 111.764 104.341C111.764 112.82 104.814 119.724 96.381 119.724C92.3088 119.7 88.4103 118.071 85.5307 115.192C82.6511 112.312 81.0227 108.414 80.9984 104.341C80.9381 97.2059 85.8819 91.1548 92.5956 89.4497L92.6002 89.4544ZM32.5383 89.0281C41.0173 89.0281 47.921 95.9781 47.921 104.411C47.8967 108.483 46.2682 112.382 43.3886 115.261C40.5091 118.141 36.6106 119.769 32.5383 119.793C28.4661 119.769 24.5676 118.141 21.688 115.261C18.8084 112.382 17.18 108.483 17.1557 104.411C17.18 100.339 18.8084 96.44 21.688 93.5604C24.5676 90.6809 28.4661 89.0524 32.5383 89.0281ZM174.508 141.955C173.118 149.766 168.346 156.605 161.257 160.692C154.603 164.538 146.43 165.756 137.812 166.979C133.114 167.651 128.166 168.383 123.449 169.542C110.754 172.655 98.5448 178.808 86.7066 184.618C71.5695 192.124 57.285 199.213 44.08 199.213C37.13 199.213 31.014 197.258 25.1574 193.172C11.6605 183.84 12.3324 166.488 13.9633 156.967C15.4274 148.057 19.5233 139.694 23.4246 131.696C23.6701 131.21 23.8508 130.779 24.0964 130.293C25.4673 130.78 26.8781 131.148 28.3127 131.391C25.9961 144.332 32.5847 157.699 45.4561 164.287L47.7727 165.506L50.2747 164.588C60.9546 160.803 70.8467 154.641 79.5759 146.398C84.3994 141.902 88.6621 136.84 92.2713 131.321C93.6498 131.544 95.045 131.646 96.4413 131.627C102.485 131.613 108.355 129.6 113.136 125.902C117.916 122.203 121.339 117.027 122.87 111.18H133.123C136.181 122.963 146.857 131.627 159.552 131.627C164.406 131.627 169.171 130.32 173.345 127.842C174.935 132.419 175.421 137.182 174.564 141.941L174.508 141.955ZM272.332 135.301C271.496 138.102 270.057 140.687 268.116 142.872C266.156 145.068 263.538 146.838 260.239 148.182C256.94 149.526 252.918 150.197 248.09 150.197C240.028 150.197 233.806 148.066 229.474 143.85C225.141 139.633 222.987 133.351 222.987 125.177V119.9H234.51V123.607C234.485 125.938 234.69 128.266 235.122 130.557C235.548 132.688 236.22 134.463 237.253 135.992C238.311 137.545 239.765 138.788 241.465 139.592C243.295 140.444 245.616 140.875 248.424 140.875C253.673 140.875 257.227 139.471 259.289 136.705C261.244 133.897 262.282 130.112 262.282 125.353V61.8073H273.759V126.757C273.714 129.658 273.246 132.536 272.369 135.301H272.332ZM335.146 144.271C330.448 147.811 324.582 149.581 317.447 149.581C312.443 149.581 308.106 148.793 304.445 147.139C300.873 145.625 297.699 143.307 295.17 140.365C292.668 137.437 290.768 134.018 289.554 129.927C288.271 125.896 287.599 121.503 287.423 116.74C287.423 111.977 288.155 107.645 289.619 103.674C290.977 99.8789 293.049 96.3782 295.721 93.3603C298.309 90.4548 301.496 88.1439 305.062 86.5863C308.666 85.0017 312.568 84.1446 316.844 84.1446C322.404 84.1446 327.038 85.3029 330.744 87.6196C334.451 89.9362 337.338 92.8691 339.548 96.409C341.747 99.9739 343.297 103.9 344.125 108.006C344.937 111.94 345.285 115.955 345.163 119.969H298.367C298.29 122.605 298.602 125.237 299.293 127.781C299.974 130.218 301.184 132.415 302.833 134.268C304.422 136.158 306.54 137.687 308.995 138.785C311.497 139.944 314.43 140.5 317.799 140.5C322.131 140.5 325.736 139.462 328.548 137.442C331.361 135.422 333.181 132.378 334.043 128.175H344.237C342.833 135.31 339.835 140.63 335.141 144.169L335.146 144.271ZM332.644 104.1C331.727 101.904 330.448 100.069 328.919 98.4847C327.325 96.8958 325.438 95.6308 323.363 94.7595C321.232 93.8421 318.846 93.3556 316.284 93.3556C313.596 93.3556 311.219 93.8421 309.079 94.7595C306.938 95.6769 305.113 96.9557 303.584 98.545C302.032 100.188 300.778 102.088 299.877 104.161C298.918 106.301 298.473 108.562 298.288 110.999H334.242C334.078 108.624 333.52 106.293 332.593 104.1H332.644ZM363.71 134.217C364.65 135.749 365.949 137.027 367.496 137.942C369.151 138.884 370.942 139.564 372.806 139.958C374.761 140.384 376.837 140.569 378.908 140.569C380.602 140.562 382.294 140.44 383.972 140.203C385.657 139.996 387.302 139.543 388.856 138.86C390.32 138.188 391.603 137.27 392.562 135.987C393.489 134.768 394.026 133.114 394.026 131.224C394.026 128.537 392.988 126.526 390.968 125.182C388.948 123.838 386.451 122.68 383.397 121.823L373.51 119.506C369.97 118.834 366.671 117.857 363.622 116.578C360.721 115.448 358.127 113.65 356.052 111.328C354.041 109.072 352.994 105.893 352.994 101.867C352.994 98.6932 353.726 96.0059 355.125 93.7495C356.497 91.53 358.356 89.651 360.56 88.2543C362.761 86.8504 365.258 85.8126 368.066 85.0805C370.783 84.4088 373.57 84.0604 376.369 84.0426C379.665 84.0183 382.956 84.3256 386.191 84.96C389.175 85.5716 391.807 86.6095 394.128 88.1339C396.445 89.598 398.28 91.6737 399.623 94.1757C401.013 96.738 401.82 99.9118 402.065 103.697H391.751C391.566 101.682 391.08 99.9906 390.162 98.6932C389.261 97.3882 388.096 96.2865 386.743 95.4592C385.353 94.6715 383.87 94.0553 382.225 93.6892C380.58 93.3232 378.866 93.1332 377.221 93.1332C375.668 93.1338 374.117 93.2562 372.583 93.4993C371.104 93.7146 369.664 94.1471 368.311 94.7827C367.084 95.349 365.999 96.1834 365.137 97.2245C364.35 98.2623 363.919 99.5411 363.919 101.13C363.919 102.9 364.531 104.364 365.809 105.532C367.028 106.69 368.682 107.663 370.572 108.46C372.528 109.248 374.664 109.864 377.059 110.416L384.324 112.065C386.882 112.627 389.408 113.32 391.895 114.141C394.214 114.872 396.403 115.963 398.382 117.375C400.256 118.687 401.819 120.396 402.959 122.379C404.118 124.394 404.729 126.896 404.729 129.885C404.729 133.67 403.942 136.844 402.348 139.346C400.788 141.811 398.677 143.879 396.181 145.388C393.619 146.917 390.746 148.01 387.572 148.622C384.435 149.229 381.246 149.537 378.051 149.539C374.704 149.55 371.367 149.182 368.103 148.441C365.106 147.801 362.265 146.577 359.74 144.841C357.298 143.192 355.407 140.996 353.939 138.355C352.47 135.714 351.682 132.331 351.497 128.467H361.811C362.117 130.784 362.663 132.739 363.641 134.268L363.71 134.217ZM443.126 85.6736V94.7688H430.671V133.652C430.671 134.87 430.792 135.848 430.977 136.58C431.162 137.312 431.589 137.863 432.135 138.294C432.682 138.725 433.525 138.966 434.517 139.082C435.509 139.198 436.834 139.267 438.423 139.267H443.121V148.363H435.244C432.557 148.363 430.301 148.177 428.406 147.807C426.511 147.436 424.986 146.769 423.828 145.791C422.67 144.813 421.812 143.474 421.205 141.7C420.649 139.93 420.353 137.609 420.353 134.68V94.8337H409.673V85.7384H420.353V66.941H430.667V85.6782L443.126 85.6736Z" fill="#15C213"/>
</svg>
