<svg xmlns="http://www.w3.org/2000/svg" width="120" height="60"><defs><radialGradient cx="52.528" cy="-49.92" fx="52.528" fy="-49.92" r="104.617" gradientTransform="matrix(.32799 0 0 .32882 6.71 12.102)" id="prefix__a" gradientUnits="userSpaceOnUse"><stop stop-color="#20C6B7" offset="0%"/><stop stop-color="#4D9ABF" offset="100%"/></radialGradient></defs><path d="M50.212 25.18l.081 1.455c.928-1.126 2.147-1.69 3.655-1.69 2.614 0 3.944 1.503 3.99 4.508v8.327H55.12v-8.164c0-.8-.172-1.39-.516-1.776-.344-.384-.907-.576-1.688-.576-1.137 0-1.984.517-2.54 1.549v8.967h-2.82v-12.6h2.657zm16.127 12.833c-1.786 0-3.235-.565-4.345-1.694-1.11-1.13-1.665-2.634-1.665-4.513v-.35c0-1.257.242-2.38.725-3.37.483-.99 1.163-1.76 2.037-2.313.873-.55 1.848-.826 2.924-.826 1.708 0 3.03.547 3.96 1.642.934 1.095 1.4 2.643 1.4 4.647v1.141H63.17c.086 1.04.432 1.863 1.039 2.468.607.606 1.371.909 2.291.909 1.292 0 2.344-.524 3.156-1.572l1.52 1.456a5.085 5.085 0 01-2.013 1.752c-.84.415-1.78.623-2.825.623zm-.336-10.795c-.774 0-1.398.272-1.874.815-.476.543-.78 1.3-.91 2.271h5.37v-.21c-.061-.947-.313-1.663-.753-2.148-.442-.485-1.052-.728-1.833-.728zm11.09-5.1v3.062h2.216v2.096h-2.216v7.033c0 .481.096.829.285 1.043.189.213.528.32 1.015.32.332-.001.663-.04.986-.117v2.19a6.902 6.902 0 01-1.856.267c-2.166 0-3.249-1.199-3.249-3.598v-7.139h-2.066V25.18h2.065v-3.063h2.819zm7.368 15.662h-2.82V19.893h2.82zm6.067 0h-2.82v-12.6h2.82zm-2.993-15.873c0-.434.137-.795.411-1.082.276-.287.668-.431 1.178-.431.51 0 .905.144 1.184.43.278.288.417.65.417 1.084 0 .426-.14.781-.417 1.065-.28.284-.673.425-1.184.425-.51 0-.902-.141-1.178-.425-.274-.283-.411-.639-.411-1.065zm7.054 15.873V27.275h-1.915V25.18h1.915v-1.153c0-1.397.386-2.476 1.16-3.237.774-.76 1.856-1.141 3.248-1.141.495 0 1.021.07 1.578.21l-.07 2.212a5.532 5.532 0 00-1.078-.093c-1.346 0-2.02.695-2.02 2.084v1.118h2.553v2.096h-2.552V37.78h-2.82zm11.822-4.052l2.552-8.548h3.004l-4.988 14.51c-.766 2.12-2.065 3.18-3.898 3.18-.41 0-.863-.07-1.357-.21v-2.19l.533.035c.712 0 1.247-.13 1.607-.39.36-.26.644-.696.853-1.31l.406-1.083-4.409-12.542h3.04z"/><path d="M31.63 24.751l-.013-.005c-.007-.003-.014-.006-.02-.012a.099.099 0 01-.025-.083l.69-4.23 3.24 3.245-3.37 1.436a.07.07 0 01-.029.005h-.013a.102.102 0 01-.018-.015 1.534 1.534 0 00-.442-.341zm4.698-.258l3.464 3.469c.72.721 1.08 1.08 1.21 1.498.02.062.036.123.049.187l-8.278-3.51a.22.22 0 00-.013-.006c-.033-.013-.071-.029-.071-.063s.039-.05.072-.063l.01-.005zm4.582 6.267c-.179.337-.527.686-1.117 1.277l-3.905 3.91-5.051-1.053-.027-.006c-.045-.007-.092-.015-.092-.055a1.527 1.527 0 00-.585-1.068c-.02-.02-.015-.052-.01-.082 0-.004 0-.009.003-.013l.95-5.84.003-.02c.005-.044.014-.096.054-.096a1.545 1.545 0 001.036-.595c.008-.009.014-.019.024-.024.029-.014.063 0 .092.012l8.624 3.653zm-5.92 6.086l-6.422 6.431 1.1-6.765.001-.01c0-.008.003-.017.005-.025.01-.022.032-.03.055-.04l.01-.004c.241-.103.454-.261.622-.463.021-.025.047-.049.08-.053a.08.08 0 01.026 0l4.522.93zm-7.781 7.792l-.724.725-8.002-11.582a.85.85 0 00-.01-.012c-.012-.017-.025-.034-.022-.054 0-.014.01-.027.02-.037l.008-.012c.024-.036.045-.072.067-.11l.018-.032.003-.002c.012-.022.024-.042.045-.054.02-.009.045-.005.066 0l8.865 1.83a.146.146 0 01.068.03c.012.011.014.024.017.038.125.475.465.864.919 1.052.025.012.014.04.003.07a.209.209 0 00-.014.04c-.112.68-1.07 6.53-1.327 8.11zm-1.512 1.514c-.534.528-.848.809-1.204.921-.35.111-.727.111-1.078 0-.416-.132-.776-.492-1.495-1.213l-8.037-8.048 2.1-3.26c.01-.016.02-.03.035-.042.022-.016.055-.01.081 0 .482.145 1 .12 1.464-.074.024-.01.048-.016.067.001.01.009.018.019.025.029l8.042 11.686zm-12.588-9.116l-1.844-1.846 3.64-1.555a.075.075 0 01.03-.007c.03 0 .048.03.064.058.037.057.076.112.117.165l.011.014c.011.016.004.03-.007.045l-2.01 3.126zm-2.66-2.663l-2.332-2.336c-.397-.397-.685-.685-.885-.933l7.092 1.473a.488.488 0 00.027.004c.043.007.092.015.092.057 0 .044-.053.065-.098.082l-.02.009zm-3.624-4.47c.008-.15.035-.3.08-.443.132-.417.492-.777 1.212-1.498l2.985-2.99c1.374 1.998 2.752 3.993 4.133 5.985.024.032.051.068.024.095-.13.144-.261.302-.353.472a.143.143 0 01-.045.056c-.012.007-.024.004-.038.002h-.001l-7.997-1.68zm5.075-5.73l4.012-4.02c.378.166 1.751.747 2.978 1.266.93.394 1.777.752 2.043.868.027.011.051.022.063.049.007.016.003.036 0 .053-.13.59.046 1.204.467 1.636.027.027 0 .066-.023.099l-.013.018-4.075 6.321a.124.124 0 01-.038.045c-.021.013-.052.007-.077 0a2.03 2.03 0 00-.485-.065 2.67 2.67 0 00-.467.056c-.018.003-.034.006-.049-.004a.188.188 0 01-.04-.046L11.9 24.173zm4.824-4.83l5.196-5.204c.719-.72 1.08-1.08 1.495-1.212.351-.111.728-.111 1.078 0 .417.131.777.492 1.496 1.212l1.126 1.128-3.695 5.73a.138.138 0 01-.037.044c-.022.015-.053.009-.08 0a1.872 1.872 0 00-1.716.33c-.024.026-.06.012-.09-.002-.483-.21-4.236-1.799-4.773-2.027zm11.176-3.29l3.411 3.416-.822 5.1v.013a.12.12 0 01-.007.034c-.009.018-.027.021-.045.027a1.634 1.634 0 00-.507.26c-.01.01-.02.02-.036.022a.1.1 0 01-.038-.007l-5.2-2.212-.01-.004c-.032-.014-.072-.03-.072-.064-.03-.29-.125-.57-.277-.819-.025-.04-.052-.084-.03-.126zm-3.514 7.701l4.874 2.067c.027.013.056.024.068.052a.094.094 0 010 .051 1.214 1.214 0 00-.027.236v.136c0 .034-.035.049-.067.062l-.01.004c-.772.33-10.84 4.629-10.855 4.629-.015 0-.031 0-.046-.015-.027-.027 0-.065.024-.099a.646.646 0 00.012-.018l4.005-6.21.008-.01c.023-.038.05-.08.093-.08l.04.006c.091.012.171.024.253.024.607 0 1.17-.296 1.51-.803a.143.143 0 01.03-.036c.024-.017.06-.008.088.004zm-5.582 8.22l10.974-4.687s.016 0 .031.015c.06.06.111.1.16.138l.024.015c.023.013.045.027.047.05 0 .01 0 .015-.002.023l-.94 5.783-.004.023c-.006.045-.012.096-.054.096a1.545 1.545 0 00-1.227.758l-.004.007c-.013.02-.025.04-.045.05-.019.01-.043.006-.063.002l-8.75-1.808c-.01-.002-.137-.464-.147-.465z" fill="url(#prefix__a)" transform="matrix(.96976 0 0 .96976 1.414 .907)"/></svg>