<svg width="247" height="31" viewBox="0 0 247 31" fill="none" xmlns="http://www.w3.org/2000/svg">
<path fill-rule="evenodd" clip-rule="evenodd" d="M25.517 0C18.712 0 14.46 3.382 12.758 10.146C15.31 6.764 18.287 5.496 21.689 6.341C23.63 6.823 25.018 8.223 26.553 9.773C29.055 12.297 31.951 15.218 38.275 15.218C45.079 15.218 49.332 11.836 51.033 5.073C48.482 8.455 45.505 9.723 42.103 8.877C40.161 8.395 38.773 6.995 37.238 5.446C34.736 2.92 31.841 0 25.517 0ZM12.758 15.218C5.954 15.218 1.701 18.6 0 25.364C2.552 21.982 5.529 20.714 8.93 21.559C10.872 22.041 12.26 23.441 13.795 24.991C16.297 27.515 19.192 30.436 25.517 30.436C32.321 30.436 36.574 27.055 38.275 20.291C35.723 23.673 32.746 24.941 29.344 24.096C27.403 23.613 26.015 22.213 24.48 20.664C21.978 18.14 19.082 15.218 12.758 15.218Z" fill="#38BDF8"/>
<path fill-rule="evenodd" clip-rule="evenodd" d="M76.5462 12.8249H72.0932V21.3919C72.0932 23.6769 73.6012 23.6409 76.5462 23.4979V26.9609C70.5842 27.6749 68.2141 26.0329 68.2141 21.3919V12.8249H64.9102V9.1119H68.2141V4.3179L72.0932 3.1749V9.1119H76.5462V12.8249ZM93.5201 9.1119H97.3982V26.9609H93.5201V24.3909C92.1551 26.2819 90.0362 27.4249 87.2352 27.4249C82.3512 27.4249 78.2932 23.3199 78.2932 18.0359C78.2932 12.7179 82.3512 8.6479 87.2352 8.6479C90.0362 8.6479 92.1551 9.7899 93.5201 11.6469V9.1119ZM87.8462 23.7479C91.0782 23.7479 93.5201 21.3559 93.5201 18.0359C93.5201 14.7159 91.0782 12.3249 87.8462 12.3249C84.6142 12.3249 82.1721 14.7169 82.1721 18.0359C82.1721 21.3559 84.6142 23.7479 87.8462 23.7479ZM103.862 6.4349C102.498 6.4349 101.385 5.2929 101.385 3.9719C101.388 3.31723 101.651 2.69048 102.115 2.22886C102.579 1.76724 103.207 1.50837 103.862 1.5089C104.517 1.5081 105.145 1.76686 105.61 2.22851C106.074 2.69015 106.337 3.31705 106.34 3.9719C106.34 5.2919 105.227 6.4349 103.862 6.4349ZM101.923 26.9609V9.1119H105.802V26.9609H101.923ZM110.291 26.9609V0.899902H114.169V26.9599H110.291V26.9609ZM139.344 9.1119H143.438L137.8 26.9609H133.993L130.258 14.9309L126.487 26.9609H122.681L117.042 9.1119H121.136L124.62 21.4269L128.391 9.1119H132.09L135.824 21.4269L139.344 9.1119ZM148.25 6.4349C146.885 6.4349 145.772 5.2929 145.772 3.9719C145.775 3.31705 146.038 2.69015 146.502 2.22851C146.967 1.76686 147.595 1.5081 148.25 1.5089C148.905 1.5081 149.533 1.76686 149.998 2.22851C150.462 2.69015 150.725 3.31705 150.728 3.9719C150.728 5.2919 149.615 6.4349 148.25 6.4349ZM146.311 26.9609V9.1119H150.189V26.9609H146.311ZM164.123 8.6479C168.145 8.6479 171.018 11.3609 171.018 16.0019V26.9599H167.14V16.3939C167.14 13.6809 165.56 12.2539 163.118 12.2539C160.568 12.2539 158.557 13.7529 158.557 17.3939V26.9609H154.678V9.1119H158.557V11.3969C159.742 9.5409 161.681 8.6479 164.123 8.6479ZM189.405 1.9729H193.284V26.9599H189.405V24.3899C188.041 26.2819 185.922 27.4239 183.121 27.4239C178.237 27.4239 174.179 23.3189 174.179 18.0349C174.179 12.7169 178.237 8.6469 183.121 8.6469C185.922 8.6469 188.041 9.7889 189.405 11.6459V1.9729ZM183.731 23.7479C186.963 23.7479 189.405 21.3559 189.405 18.0359C189.405 14.7159 186.963 12.3249 183.731 12.3249C180.499 12.3249 178.057 14.7169 178.057 18.0359C178.057 21.3559 180.499 23.7479 183.731 23.7479ZM206.284 27.4249C200.861 27.4249 196.803 23.3199 196.803 18.0359C196.803 12.7179 200.861 8.6479 206.284 8.6479C209.803 8.6479 212.856 10.4679 214.292 13.2529L210.952 15.1809C210.162 13.5029 208.403 12.4319 206.248 12.4319C203.088 12.4319 200.682 14.8239 200.682 18.0359C200.682 21.2489 203.088 23.6409 206.248 23.6409C208.403 23.6409 210.162 22.5339 211.024 20.8919L214.364 22.7839C212.856 25.6039 209.803 27.4249 206.284 27.4249ZM220.756 14.0379C220.756 17.2869 230.417 15.3229 230.417 21.9279C230.417 25.4979 227.292 27.4249 223.414 27.4249C219.823 27.4249 217.237 25.8179 216.088 23.2479L219.428 21.3209C220.002 22.9269 221.439 23.8909 223.414 23.8909C225.138 23.8909 226.466 23.3199 226.466 21.8909C226.466 18.7149 216.806 20.4999 216.806 14.1099C216.806 10.7539 219.715 8.6479 223.378 8.6479C226.323 8.6479 228.765 10.0049 230.022 12.3609L226.754 14.1809C226.107 12.7889 224.85 12.1459 223.378 12.1459C221.977 12.1459 220.756 12.7529 220.756 14.0379ZM237.312 14.0379C237.312 17.2869 246.972 15.3229 246.972 21.9279C246.972 25.4979 243.848 27.4249 239.969 27.4249C236.378 27.4249 233.793 25.8179 232.643 23.2479L235.983 21.3209C236.558 22.9269 237.994 23.8909 239.969 23.8909C241.693 23.8909 243.022 23.3199 243.022 21.8909C243.022 18.7149 233.362 20.4999 233.362 14.1099C233.362 10.7539 236.27 8.6479 239.934 8.6479C242.878 8.6479 245.32 10.0049 246.577 12.3609L243.309 14.1809C242.663 12.7889 241.406 12.1459 239.934 12.1459C238.533 12.1459 237.312 12.7529 237.312 14.0379Z" fill="black"/>
</svg>
