<svg width="112" height="32" viewBox="0 0 112 32" fill="none" xmlns="http://www.w3.org/2000/svg">
<path d="M16.2759 31.3302C24.7228 31.3302 31.5704 24.4826 31.5704 16.0357C31.5704 7.58878 24.7228 0.741211 16.2759 0.741211C7.82901 0.741211 0.981445 7.58878 0.981445 16.0357C0.981445 24.4826 7.82901 31.3302 16.2759 31.3302Z" fill="#F4B960"/>
<path d="M14.7249 28.2994C22.3546 28.2994 28.5396 22.1143 28.5396 14.4847C28.5396 6.85499 22.3546 0.669922 14.7249 0.669922C7.09522 0.669922 0.910156 6.85499 0.910156 14.4847C0.910156 22.1143 7.09522 28.2994 14.7249 28.2994Z" fill="#E66F32"/>
<path d="M16.6278 24.7048C23.2451 24.7048 28.6096 19.3404 28.6096 12.723C28.6096 6.10564 23.2451 0.741211 16.6278 0.741211C10.0104 0.741211 4.646 6.10564 4.646 12.723C4.646 19.3404 10.0104 24.7048 16.6278 24.7048Z" fill="#E43C41"/>
<path d="M17.5432 24.6334C23.6154 24.6334 28.538 19.7109 28.538 13.6386C28.538 7.56634 23.6154 2.6438 17.5432 2.6438C11.4709 2.6438 6.54834 7.56634 6.54834 13.6386C6.54834 19.7109 11.4709 24.6334 17.5432 24.6334Z" fill="#BDD041"/>
<path d="M16.7684 24.7048C22.4128 24.7048 26.9884 20.1291 26.9884 14.4847C26.9884 8.84032 22.4128 4.26465 16.7684 4.26465C11.124 4.26465 6.54834 8.84032 6.54834 14.4847C6.54834 20.1291 11.124 24.7048 16.7684 24.7048Z" fill="#6DB54C"/>
<path d="M15.1477 21.3209C19.8577 21.3209 23.6758 17.5027 23.6758 12.7928C23.6758 8.08281 19.8577 4.26465 15.1477 4.26465C10.4378 4.26465 6.61963 8.08281 6.61963 12.7928C6.61963 17.5027 10.4378 21.3209 15.1477 21.3209Z" fill="#AEDAE6"/>
<path d="M16.4867 18.5721C20.4573 18.5721 23.6761 15.3533 23.6761 11.3827C23.6761 7.41214 20.4573 4.19336 16.4867 4.19336C12.5161 4.19336 9.29736 7.41214 9.29736 11.3827C9.29736 15.3533 12.5161 18.5721 16.4867 18.5721Z" fill="#56B8DE"/>
<path d="M17.4025 18.6434C20.8673 18.6434 23.6761 15.8346 23.6761 12.3698C23.6761 8.90498 20.8673 6.09619 17.4025 6.09619C13.9377 6.09619 11.1289 8.90498 11.1289 12.3698C11.1289 15.8346 13.9377 18.6434 17.4025 18.6434Z" fill="#00B1D5"/>
<path d="M16.4868 18.5722C19.445 18.5722 21.8432 16.1741 21.8432 13.2158C21.8432 10.2575 19.445 7.85938 16.4868 7.85938C13.5285 7.85938 11.1304 10.2575 11.1304 13.2158C11.1304 16.1741 13.5285 18.5722 16.4868 18.5722Z" fill="url(#paint0_radial_47_558)"/>
<path d="M16.4868 18.5722C19.445 18.5722 21.8432 16.1741 21.8432 13.2158C21.8432 10.2575 19.445 7.85938 16.4868 7.85938C13.5285 7.85938 11.1304 10.2575 11.1304 13.2158C11.1304 16.1741 13.5285 18.5722 16.4868 18.5722Z" fill="#221F1F"/>
<path d="M19.596 11.7122C19.9786 10.8596 19.857 9.97482 19.3245 9.7359C18.7921 9.49697 18.0503 9.99441 17.6678 10.847C17.2852 11.6995 17.4068 12.5843 17.9392 12.8232C18.4717 13.0622 19.2135 12.5647 19.596 11.7122Z" fill="white"/>
<path d="M36.1319 11.9671C36.1319 11.9171 36.1819 11.8191 36.2799 11.8191H39.6949C41.6249 11.8191 42.5149 12.7191 42.5149 14.0461C42.5149 15.0461 42.0199 15.5311 41.4149 15.8281V15.8781C41.9589 16.0761 42.6519 16.7781 42.6519 17.8081C42.6519 19.4911 41.5139 20.2821 39.5339 20.2821H36.2789C36.2289 20.2821 36.1309 20.2321 36.1309 20.1341L36.1319 11.9671ZM39.6459 15.3321C40.4379 15.3321 40.9329 14.8871 40.9329 14.2321C40.9329 13.5391 40.4379 13.0941 39.6459 13.0941H37.8159C37.7659 13.0941 37.7659 13.1441 37.7659 13.1441V15.2241C37.7659 15.2741 37.8159 15.2741 37.8159 15.2741C37.7659 15.3241 39.6459 15.3241 39.6459 15.3241V15.3321ZM37.7659 18.8951H39.6959C40.5959 18.8951 41.0819 18.4501 41.0819 17.7071C41.0819 16.9641 40.5869 16.5191 39.6959 16.5191H37.7659C37.7159 16.5191 37.7159 16.5691 37.7159 16.5691V18.7471C37.6659 18.8951 37.7659 18.8951 37.7659 18.8951ZM43.7539 20.1821C43.7039 20.1821 43.6059 20.1321 43.6059 20.0341V14.2941C43.6059 14.2441 43.6559 14.1461 43.7539 14.1461H44.9909C45.0409 14.1461 45.1389 14.1961 45.1389 14.2941V14.7891H45.1889C45.4859 14.3441 46.0889 13.9971 46.8719 13.9971C47.3669 13.9971 47.9119 14.1951 48.2079 14.4921C48.2579 14.5421 48.2579 14.6401 48.2579 14.6401L47.5649 15.4801C47.5149 15.5301 47.4169 15.5301 47.3669 15.5301C47.0699 15.3821 46.7729 15.2331 46.3669 15.2331C45.5269 15.2331 45.1299 15.7771 45.1299 16.7671V19.9841C45.1299 20.0341 45.0799 20.1321 44.9819 20.1321L43.7539 20.1821ZM48.4539 18.6971C48.3059 18.3011 48.2069 17.9051 48.2069 17.2121C48.2069 16.5191 48.2569 16.1121 48.4539 15.7271C48.8499 14.6271 49.7899 14.0941 51.1259 14.0941C52.4619 14.0941 53.4019 14.6881 53.7979 15.7271C53.9459 16.1231 54.0449 16.5191 54.0449 17.2121C54.0449 17.9051 53.9949 18.3121 53.7979 18.6971C53.4019 19.7971 52.4619 20.3301 51.1259 20.3301C49.7899 20.3301 48.7999 19.7861 48.4539 18.6971ZM52.3539 18.3511C52.5019 18.0541 52.5019 17.7571 52.5019 17.2511C52.5019 16.7451 52.4519 16.4591 52.3539 16.1511C52.1559 15.6561 51.7599 15.3591 51.1169 15.3591C50.5229 15.3591 50.0769 15.6561 49.8799 16.1511C49.7319 16.4971 49.7319 16.7451 49.7319 17.2511C49.7319 17.7571 49.7819 18.0431 49.8799 18.3511C50.0779 18.8461 50.4739 19.1431 51.1169 19.1431C51.3791 19.1526 51.6381 19.0819 51.8591 18.9404C52.0801 18.7988 52.2527 18.5933 52.3539 18.3511ZM60.4699 20.1811C60.4199 20.1811 60.3219 20.1311 60.3219 20.0331L59.0849 16.1731H59.0349L57.7979 19.9731C57.7479 20.0231 57.7479 20.1211 57.6499 20.1211H56.5499C56.4999 20.1211 56.4019 20.0711 56.4019 19.9731L54.3719 14.2331C54.3219 14.1831 54.4219 14.0851 54.4719 14.0851H55.7589C55.8589 14.0851 55.9069 14.1351 55.9069 14.2331L57.1439 18.1931H57.1939L58.4309 14.2331C58.4809 14.1831 58.5309 14.0851 58.5789 14.0851H59.5789C59.6289 14.0851 59.7269 14.1351 59.7269 14.2331L61.0139 18.1931H61.0639L62.2519 14.2331C62.3019 14.1331 62.3019 14.0851 62.3999 14.0851H63.6869C63.7369 14.0851 63.8349 14.1351 63.7869 14.2331L61.8069 19.9731C61.7569 20.0231 61.7569 20.1211 61.6589 20.1211L60.4699 20.1811ZM64.0329 19.3891C63.9829 19.3391 63.9829 19.2411 64.0329 19.2411L64.8249 18.4991C64.8522 18.4751 64.8874 18.4618 64.9239 18.4618C64.9603 18.4618 64.9955 18.4751 65.0229 18.4991C65.4679 18.8951 66.2599 19.1921 66.9529 19.1921C67.7449 19.1921 68.1409 18.8951 68.1409 18.4991C68.1409 18.1531 67.8939 17.9051 67.0409 17.8561L66.3479 17.8061C65.0609 17.6581 64.3679 17.0641 64.3679 16.0741C64.3679 14.9361 65.2679 14.1441 66.8419 14.1441C67.8419 14.1441 68.6719 14.4411 69.2669 14.8371C69.3169 14.8871 69.3169 14.9851 69.3169 14.9851L68.6739 15.6781C68.6239 15.7281 68.5259 15.7281 68.4759 15.7281C68.0799 15.4811 67.3759 15.2331 66.7929 15.2331C66.1499 15.2331 65.7929 15.4801 65.7929 15.8761C65.7929 16.2221 66.0399 16.4201 66.8929 16.5191L67.5859 16.5691C68.9219 16.7171 69.5659 17.3611 69.5659 18.3011C69.5659 19.4891 68.6259 20.3311 66.8439 20.3311C65.5079 20.3811 64.5679 19.8861 64.0239 19.3911L64.0329 19.3891ZM70.5659 18.6961C70.4179 18.3001 70.3189 17.8561 70.3189 17.2111C70.3189 16.5661 70.3689 16.1111 70.5659 15.7261C70.9619 14.6261 71.9019 14.0931 73.2379 14.0931C74.5739 14.0931 75.5139 14.7361 75.9099 15.7261C76.0579 16.1221 76.1569 16.5661 76.1569 17.5561C76.1569 17.6061 76.1069 17.7041 76.0089 17.7041H71.9509C71.9009 17.7041 71.9009 17.7541 71.9009 17.7541C71.9009 17.9021 71.9509 18.1001 72.0009 18.1991C72.2479 18.7931 72.6939 19.0991 73.4359 19.0991C74.1779 19.0991 74.6239 18.8521 74.9699 18.5551C75.0199 18.5051 75.1179 18.5051 75.2169 18.5051L76.0089 19.1481C76.0589 19.1981 76.0589 19.2961 76.0589 19.2961C75.5149 19.8901 74.5739 20.3361 73.3869 20.3361C71.9019 20.3861 70.9129 19.7921 70.5669 18.7031L70.5659 18.6961ZM74.4659 16.0241C74.3179 15.5291 73.8229 15.2321 73.2289 15.2321C72.6349 15.2321 72.1289 15.5291 71.9419 16.0241C71.8919 16.1721 71.8919 16.3211 71.8919 16.5191C71.8919 16.5691 71.9419 16.5691 71.9419 16.5691H74.5149C74.5649 16.5691 74.5649 16.5191 74.5649 16.5191C74.5149 16.3711 74.5159 16.1731 74.4659 16.0241ZM77.1379 20.1811C77.0879 20.1811 76.9899 20.1311 76.9899 20.0331V14.2931C76.9899 14.2431 77.0399 14.1451 77.1379 14.1451H78.3749C78.4249 14.1451 78.5229 14.1951 78.5229 14.2931V14.7881H78.5729C78.8699 14.3431 79.4729 13.9961 80.2559 13.9961C80.7509 13.9961 81.2959 14.1941 81.5919 14.4911C81.6419 14.5411 81.6419 14.6391 81.6419 14.6391L80.9489 15.4791C80.8989 15.5291 80.8009 15.5291 80.7509 15.5291C80.4539 15.3811 80.1569 15.2321 79.7509 15.2321C78.9109 15.2321 78.5139 15.7761 78.5139 16.7661V19.9831C78.5139 20.0331 78.4639 20.1311 78.3659 20.1311L77.1379 20.1811ZM81.8379 19.2811C81.7879 19.2311 81.7879 19.1331 81.7879 19.0831L82.6279 18.1831C82.6779 18.1331 82.7759 18.1331 82.8259 18.1331C83.4199 18.5781 84.3109 19.0331 85.2999 19.0331C86.3999 19.0331 87.0319 18.5381 87.0319 17.7961C87.0319 17.2021 86.6359 16.7961 85.3989 16.6081L84.9039 16.5581C83.1719 16.3111 82.1819 15.5581 82.1819 14.1831C82.1819 12.6491 83.4189 11.6101 85.2499 11.6101C86.3879 11.6101 87.4769 11.9561 88.1699 12.4501C88.2199 12.5001 88.2199 12.5501 88.2199 12.5981L87.5989 13.5001C87.5489 13.5501 87.4509 13.5501 87.4009 13.5501C86.6589 13.1051 85.9659 12.9071 85.2229 12.9071C84.2829 12.9071 83.7879 13.3521 83.7879 14.0451C83.7879 14.6391 84.2329 15.0451 85.4709 15.1831L85.9659 15.2331C87.6979 15.4801 88.6879 16.2331 88.6879 17.7071C88.6879 19.1811 87.4989 20.3301 85.2729 20.3301C83.8379 20.3801 82.5509 19.8851 81.8579 19.2901L81.8379 19.2811ZM91.3879 20.3211C90.1009 20.3211 89.5579 19.7271 89.5579 18.5891V15.4191C89.5579 15.3691 89.5079 15.3691 89.5079 15.3691H89.1119C89.0619 15.3691 88.9639 15.3191 88.9639 15.2211V14.3811C88.9639 14.3311 89.0139 14.2331 89.1119 14.2331H89.5079C89.5579 14.2331 89.5579 14.1831 89.5579 14.1831V12.5601C89.5579 12.5101 89.6079 12.4121 89.7059 12.4121H90.9429C90.9929 12.4121 91.0909 12.4621 91.0909 12.5601V14.1931C91.0909 14.2431 91.1409 14.2431 91.1409 14.2431H92.0409C92.0909 14.2431 92.1889 14.2931 92.1889 14.3911V15.2311C92.1889 15.2811 92.1389 15.3791 92.0409 15.3791H91.1409C91.0909 15.3791 91.0909 15.4291 91.0909 15.4291V18.5471C91.0909 18.9431 91.2889 19.0911 91.6849 19.0911H92.0309C92.0809 19.0911 92.1789 19.1411 92.1789 19.2391V20.2391C92.1789 20.2891 92.1289 20.3871 92.0309 20.3871L91.3879 20.3211ZM97.0879 20.1731C97.0379 20.1731 96.9399 20.1231 96.9399 20.0251V19.6001C96.6429 19.9961 96.0399 20.2931 95.1099 20.2931C93.9219 20.2931 92.9319 19.7491 92.9319 18.4631C92.9319 17.1771 93.9319 16.5331 95.5049 16.5331H96.7919C96.8419 16.5331 96.8419 16.4831 96.8419 16.4831V16.1861C96.8419 15.4931 96.4959 15.1861 95.4069 15.1861C94.7139 15.1861 94.2189 15.3841 93.9219 15.5821C93.8719 15.6321 93.7739 15.6321 93.7239 15.5321L93.2289 14.7401C93.1789 14.6901 93.1789 14.5921 93.2789 14.5921C93.7739 14.2461 94.5159 13.9981 95.5549 13.9981C97.5349 13.9981 98.2269 14.6411 98.2269 16.0781V19.9381C98.2269 19.9881 98.1769 20.0861 98.0789 20.0861L97.0879 20.1731ZM96.9399 18.1931V17.7481C96.9399 17.6981 96.8899 17.6981 96.8899 17.6981H95.7899C94.7899 17.6981 94.4039 17.9451 94.4039 18.4901C94.4039 18.9851 94.7999 19.2321 95.5419 19.2321C96.3819 19.1821 96.9279 18.8861 96.9279 18.1921L96.9399 18.1931ZM99.5129 18.6881C99.3649 18.2921 99.2659 17.8481 99.2659 17.2031C99.2659 16.5581 99.3159 16.1031 99.5129 15.7181C99.9089 14.6181 100.899 14.0851 102.185 14.0851C103.185 14.0851 103.917 14.4311 104.412 15.0251C104.462 15.0751 104.462 15.1731 104.362 15.1731L103.522 15.8661C103.472 15.9161 103.374 15.9161 103.324 15.8161C102.978 15.4701 102.681 15.3211 102.136 15.3211C101.542 15.3211 101.096 15.5681 100.899 16.1131C100.751 16.4101 100.751 16.7561 100.751 17.2131C100.745 17.5976 100.795 17.9809 100.899 18.3511C101.097 18.8461 101.542 19.1431 102.136 19.1431C102.358 19.1499 102.578 19.1092 102.783 19.0238C102.988 18.9385 103.172 18.8104 103.324 18.6481C103.374 18.5981 103.472 18.5981 103.522 18.5981L104.362 19.2911C104.412 19.3411 104.412 19.4391 104.412 19.4391C104.123 19.7344 103.776 19.9661 103.392 20.1195C103.009 20.2729 102.598 20.3447 102.185 20.3301C100.898 20.3801 99.9089 19.7861 99.5129 18.6971V18.6881ZM109.658 20.1731C109.558 20.1731 109.51 20.1231 109.411 20.0251L107.778 17.5511L106.878 18.4911V20.0251C106.878 20.0751 106.828 20.1731 106.73 20.1731H105.493C105.443 20.1731 105.345 20.1231 105.345 20.0251V11.8701C105.345 11.8201 105.395 11.7221 105.493 11.7221H106.73C106.78 11.7221 106.878 11.7721 106.878 11.8701V16.7201L109.105 14.3451C109.128 14.2996 109.163 14.2616 109.207 14.2354C109.251 14.2092 109.301 14.196 109.352 14.1971H110.738C110.788 14.1971 110.886 14.2471 110.788 14.3451L108.708 16.5231L111.034 20.0861C111.084 20.1361 111.084 20.2341 110.984 20.2341L109.658 20.1731Z" fill="white"/>
<defs>
<radialGradient id="paint0_radial_47_558" cx="0" cy="0" r="1" gradientUnits="userSpaceOnUse" gradientTransform="translate(16.4953 13.2865) scale(5.39962)">
<stop stop-color="#797979"/>
<stop offset="1" stop-color="#4C4C4C"/>
</radialGradient>
</defs>
</svg>
