<svg width="91" height="24" viewBox="0 0 91 24" fill="none" xmlns="http://www.w3.org/2000/svg">
<path d="M12.0713 0C5.47129 0 0.0712891 5.4 0.0712891 12C0.0712891 18.6 5.47129 24 12.0713 24C18.6713 24 24.0713 18.6 24.0713 12C24.0713 5.4 18.6713 0 12.0713 0ZM5.38557 18.6857C3.58557 16.8857 2.64272 14.4857 2.64272 12.1714L11.9856 21.4286C9.58557 21.3429 7.18557 20.4857 5.38557 18.6857ZM14.1284 21.1714L2.89986 9.94286C3.84272 5.74286 7.61415 2.57143 12.0713 2.57143C15.2427 2.57143 17.9856 4.11429 19.6999 6.42857L18.4141 7.54286C16.957 5.57143 14.6427 4.28571 12.0713 4.28571C8.72843 4.28571 5.89986 6.42857 4.78557 9.42857L14.6427 19.2857C17.1284 18.4286 19.0141 16.2857 19.6141 13.7143H15.4999V12H21.4999C21.4999 16.4571 18.3284 20.2286 14.1284 21.1714Z" fill="white"/>
<path d="M53.9861 10.2857H56.3861V18.8571H53.9861V17.7429C53.1289 19.0286 52.0147 19.1143 51.3289 19.1143C48.6718 19.1143 46.9575 17.0571 46.9575 14.5714C46.9575 12 48.6718 10.0286 51.1575 10.0286C51.8432 10.0286 53.1289 10.1143 53.9004 11.4V10.2857H53.9861ZM49.5289 14.5714C49.5289 15.9429 50.4718 16.9714 51.9289 16.9714C53.3004 16.9714 54.3289 15.9429 54.3289 14.5714C54.3289 13.2 53.3861 12.1714 51.9289 12.1714C50.5575 12.1714 49.5289 13.2 49.5289 14.5714Z" fill="white"/>
<path d="M61.1002 12.3428V18.8571H58.7002V12.3428H57.7573V10.2856H58.7002V7.37134H61.1002V10.2856H62.7287V12.3428H61.1002Z" fill="white"/>
<path d="M68.3858 12.3429C67.7858 11.8286 67.2715 11.7429 67.0144 11.7429C66.4144 11.7429 66.0715 12 66.0715 12.4286C66.0715 12.6857 66.1572 12.9429 66.8429 13.2L67.4429 13.3714C68.1287 13.6286 69.1572 13.8857 69.5858 14.5714C69.8429 14.9143 70.0144 15.4286 70.0144 16.0286C70.0144 16.8 69.7572 17.5714 69.0715 18.1714C68.3858 18.7714 67.5287 19.1143 66.5001 19.1143C64.7001 19.1143 63.7572 18.2571 63.1572 17.6571L64.4429 16.2C64.9572 16.7143 65.6429 17.2286 66.3287 17.2286C67.0144 17.2286 67.5287 16.8857 67.5287 16.2857C67.5287 15.7714 67.1001 15.5143 66.7572 15.4286L66.2429 15.2571C65.6429 15 64.9572 14.7429 64.4429 14.2286C64.0144 13.8 63.7572 13.2857 63.7572 12.6C63.7572 11.7429 64.1858 11.0571 64.6144 10.6286C65.3001 10.1143 66.1572 10.0286 66.8429 10.0286C67.4429 10.0286 68.4715 10.1143 69.5858 10.9714L68.3858 12.3429Z" fill="white"/>
<path d="M73.6144 11.3999C74.4715 10.1999 75.6715 10.0285 76.3572 10.0285C78.8429 10.0285 80.5572 11.9999 80.5572 14.5713C80.5572 17.1427 78.8429 19.1142 76.2715 19.1142C75.7572 19.1142 74.4715 19.0285 73.5286 17.7427V18.857H71.2144V4.45703H73.6144V11.3999ZM73.3572 14.5713C73.3572 15.9427 74.3001 16.9713 75.7572 16.9713C77.1286 16.9713 78.1572 15.9427 78.1572 14.5713C78.1572 13.1999 77.2144 12.1713 75.7572 12.1713C74.3001 12.1713 73.3572 13.1999 73.3572 14.5713Z" fill="white"/>
<path d="M84.5 17.5714L80.3857 10.2856H83.2143L85.8715 15.1714L88.2715 10.2856H91.0143L84.1572 23.3999H81.4143L84.5 17.5714Z" fill="white"/>
<path d="M46.3574 11.7428H43.9574H40.3574V14.1428H43.5288C43.0145 15.7713 41.8145 16.8856 39.5859 16.8856C37.1002 16.8856 35.3002 14.8285 35.3002 12.3428C35.3002 9.85704 37.0145 7.71419 39.5002 7.71419C40.8716 7.71419 42.2431 8.3999 43.1002 9.51419L45.0716 8.22847C43.7859 6.42847 41.7288 5.3999 39.5002 5.3999C35.7288 5.3999 32.6431 8.48562 32.6431 12.3428C32.6431 16.1999 35.5574 19.2856 39.5002 19.2856C43.4431 19.2856 46.3574 16.1999 46.3574 12.3428C46.4431 12.0856 46.3574 11.9142 46.3574 11.7428Z" fill="white"/>
</svg>
