<?xml version="1.0" standalone="no"?>
<!DOCTYPE svg PUBLIC "-//W3C//DTD SVG 20010904//EN"
 "http://www.w3.org/TR/2001/REC-SVG-20010904/DTD/svg10.dtd">
<svg version="1.0" xmlns="http://www.w3.org/2000/svg"
 width="1003.000000pt" height="1003.000000pt" viewBox="0 0 1003.000000 1003.000000"
 preserveAspectRatio="xMidYMid meet">

<g transform="translate(0.000000,1003.000000) scale(0.100000,-0.100000)"
fill="#000000" stroke="none">
<path d="M170 9265 l0 -595 595 0 595 0 0 595 0 595 -595 0 -595 0 0 -595z
m1020 0 l0 -425 -425 0 -425 0 0 425 0 425 425 0 425 0 0 -425z"/>
<path d="M510 9265 l0 -255 255 0 255 0 0 255 0 255 -255 0 -255 0 0 -255z"/>
<path d="M1700 9775 l0 -85 -85 0 -85 0 0 -85 0 -85 85 0 85 0 0 -85 0 -85
-85 0 -85 0 0 -85 0 -85 170 0 170 0 0 -85 0 -85 -170 0 -170 0 0 -170 0 -170
85 0 85 0 0 85 0 85 85 0 85 0 0 -255 0 -255 -85 0 -85 0 0 85 0 85 -255 0
-255 0 0 -85 0 -85 -85 0 -85 0 0 85 0 85 -425 0 -425 0 0 -85 0 -85 255 0
255 0 0 -85 0 -85 -170 0 -170 0 0 -85 0 -85 170 0 170 0 0 -85 0 -85 -85 0
-85 0 0 -85 0 -85 85 0 85 0 0 -255 0 -255 255 0 255 0 0 -85 0 -85 85 0 85 0
0 -85 0 -85 -170 0 -170 0 0 85 0 85 -85 0 -85 0 0 -85 0 -85 -85 0 -85 0 0
-85 0 -85 -85 0 -85 0 0 170 0 170 -85 0 -85 0 0 170 0 170 85 0 85 0 0 85 0
85 -85 0 -85 0 0 -85 0 -85 -85 0 -85 0 0 -255 0 -255 85 0 85 0 0 -85 0 -85
-85 0 -85 0 0 -85 0 -85 85 0 85 0 0 -85 0 -85 85 0 85 0 0 -85 0 -85 85 0 85
0 0 -85 0 -85 -170 0 -170 0 0 85 0 85 -85 0 -85 0 0 -170 0 -170 255 0 255 0
0 -85 0 -85 -170 0 -170 0 0 -85 0 -85 85 0 85 0 0 -85 0 -85 85 0 85 0 0 -85
0 -85 -85 0 -85 0 0 -170 0 -170 -85 0 -85 0 0 170 0 170 -85 0 -85 0 0 -170
0 -170 85 0 85 0 0 -170 0 -170 -85 0 -85 0 0 -85 0 -85 85 0 85 0 0 -85 0
-85 -85 0 -85 0 0 -170 0 -170 255 0 255 0 0 -85 0 -85 85 0 85 0 0 -85 0 -85
85 0 85 0 0 -170 0 -170 -170 0 -170 0 0 -85 0 -85 -170 0 -170 0 0 85 0 85
85 0 85 0 0 85 0 85 85 0 85 0 0 85 0 85 -255 0 -255 0 0 -340 0 -340 255 0
255 0 0 85 0 85 170 0 170 0 0 85 0 85 85 0 85 0 0 -85 0 -85 340 0 340 0 0
-85 0 -85 255 0 255 0 0 -85 0 -85 -170 0 -170 0 0 -85 0 -85 85 0 85 0 0 -85
0 -85 85 0 85 0 0 -85 0 -85 85 0 85 0 0 -85 0 -85 -170 0 -170 0 0 85 0 85
-255 0 -255 0 0 85 0 85 -85 0 -85 0 0 85 0 85 -255 0 -255 0 0 85 0 85 -85 0
-85 0 0 -85 0 -85 -85 0 -85 0 0 85 0 85 -255 0 -255 0 0 -85 0 -85 85 0 85 0
0 -85 0 -85 -85 0 -85 0 0 -255 0 -255 425 0 425 0 0 85 0 85 255 0 255 0 0
-340 0 -340 85 0 85 0 0 85 0 85 170 0 170 0 0 -85 0 -85 -85 0 -85 0 0 -85 0
-85 85 0 85 0 0 85 0 85 170 0 170 0 0 -85 0 -85 -85 0 -85 0 0 -170 0 -170
-85 0 -85 0 0 85 0 85 -170 0 -170 0 0 85 0 85 -85 0 -85 0 0 -425 0 -425 170
0 170 0 0 85 0 85 -85 0 -85 0 0 85 0 85 85 0 85 0 0 85 0 85 85 0 85 0 0 -85
0 -85 85 0 85 0 0 85 0 85 85 0 85 0 0 85 0 85 255 0 255 0 0 85 0 85 85 0 85
0 0 -85 0 -85 170 0 170 0 0 170 0 170 170 0 170 0 0 -85 0 -85 85 0 85 0 0
85 0 85 -85 0 -85 0 0 85 0 85 -85 0 -85 0 0 85 0 85 85 0 85 0 0 85 0 85 85
0 85 0 0 170 0 170 85 0 85 0 0 -425 0 -425 170 0 170 0 0 85 0 85 85 0 85 0
0 -170 0 -170 -85 0 -85 0 0 -85 0 -85 -85 0 -85 0 0 85 0 85 -85 0 -85 0 0
-85 0 -85 -85 0 -85 0 0 -170 0 -170 85 0 85 0 0 -85 0 -85 170 0 170 0 0 85
0 85 85 0 85 0 0 -85 0 -85 85 0 85 0 0 -85 0 -85 255 0 255 0 0 85 0 85 85 0
85 0 0 -85 0 -85 85 0 85 0 0 85 0 85 -85 0 -85 0 0 85 0 85 -85 0 -85 0 0 85
0 85 -85 0 -85 0 0 -85 0 -85 -170 0 -170 0 0 85 0 85 -85 0 -85 0 0 85 0 85
425 0 425 0 0 -85 0 -85 85 0 85 0 0 170 0 170 85 0 85 0 0 -85 0 -85 340 0
340 0 0 -255 0 -255 -85 0 -85 0 0 85 0 85 -85 0 -85 0 0 85 0 85 -170 0 -170
0 0 -255 0 -255 170 0 170 0 0 85 0 85 85 0 85 0 0 -85 0 -85 85 0 85 0 0 85
0 85 85 0 85 0 0 85 0 85 85 0 85 0 0 85 0 85 85 0 85 0 0 -170 0 -170 -85 0
-85 0 0 -85 0 -85 85 0 85 0 0 85 0 85 170 0 170 0 0 -85 0 -85 85 0 85 0 0
85 0 85 170 0 170 0 0 85 0 85 170 0 170 0 0 -85 0 -85 -85 0 -85 0 0 -85 0
-85 85 0 85 0 0 85 0 85 85 0 85 0 0 -85 0 -85 85 0 85 0 0 85 0 85 85 0 85 0
0 -85 0 -85 255 0 255 0 0 85 0 85 85 0 85 0 0 -85 0 -85 170 0 170 0 0 85 0
85 -85 0 -85 0 0 170 0 170 -85 0 -85 0 0 85 0 85 -85 0 -85 0 0 85 0 85 255
0 255 0 0 170 0 170 -85 0 -85 0 0 170 0 170 170 0 170 0 0 85 0 85 -85 0 -85
0 0 85 0 85 85 0 85 0 0 85 0 85 -85 0 -85 0 0 -85 0 -85 -255 0 -255 0 0
-170 0 -170 -85 0 -85 0 0 170 0 170 -85 0 -85 0 0 85 0 85 85 0 85 0 0 85 0
85 170 0 170 0 0 -85 0 -85 85 0 85 0 0 170 0 170 85 0 85 0 0 85 0 85 -85 0
-85 0 0 170 0 170 85 0 85 0 0 85 0 85 -85 0 -85 0 0 170 0 170 -170 0 -170 0
0 85 0 85 255 0 255 0 0 -85 0 -85 85 0 85 0 0 85 0 85 -85 0 -85 0 0 170 0
170 -85 0 -85 0 0 170 0 170 85 0 85 0 0 -85 0 -85 85 0 85 0 0 85 0 85 -85 0
-85 0 0 170 0 170 85 0 85 0 0 85 0 85 -85 0 -85 0 0 170 0 170 -85 0 -85 0 0
85 0 85 170 0 170 0 0 170 0 170 -85 0 -85 0 0 170 0 170 -85 0 -85 0 0 85 0
85 170 0 170 0 0 85 0 85 -170 0 -170 0 0 85 0 85 -85 0 -85 0 0 85 0 85 255
0 255 0 0 255 0 255 -85 0 -85 0 0 85 0 85 85 0 85 0 0 170 0 170 -85 0 -85 0
0 170 0 170 -85 0 -85 0 0 85 0 85 85 0 85 0 0 85 0 85 -85 0 -85 0 0 -85 0
-85 -85 0 -85 0 0 85 0 85 -85 0 -85 0 0 -85 0 -85 85 0 85 0 0 -85 0 -85 85
0 85 0 0 -85 0 -85 -170 0 -170 0 0 85 0 85 -85 0 -85 0 0 -85 0 -85 85 0 85
0 0 -85 0 -85 85 0 85 0 0 -85 0 -85 170 0 170 0 0 -85 0 -85 -85 0 -85 0 0
-85 0 -85 -85 0 -85 0 0 85 0 85 -85 0 -85 0 0 85 0 85 -170 0 -170 0 0 85 0
85 -170 0 -170 0 0 85 0 85 -85 0 -85 0 0 -340 0 -340 -170 0 -170 0 0 -85 0
-85 -85 0 -85 0 0 85 0 85 -85 0 -85 0 0 340 0 340 85 0 85 0 0 -170 0 -170
170 0 170 0 0 255 0 255 255 0 255 0 0 170 0 170 -170 0 -170 0 0 85 0 85 85
0 85 0 0 85 0 85 -85 0 -85 0 0 -85 0 -85 -85 0 -85 0 0 170 0 170 85 0 85 0
0 425 0 425 -170 0 -170 0 0 -85 0 -85 -85 0 -85 0 0 85 0 85 -85 0 -85 0 0
-85 0 -85 -85 0 -85 0 0 85 0 85 -170 0 -170 0 0 -85 0 -85 -85 0 -85 0 0 85
0 85 -85 0 -85 0 0 -85 0 -85 -85 0 -85 0 0 85 0 85 -85 0 -85 0 0 -85 0 -85
85 0 85 0 0 -85 0 -85 170 0 170 0 0 -85 0 -85 -255 0 -255 0 0 85 0 85 -85 0
-85 0 0 85 0 85 -255 0 -255 0 0 85 0 85 -340 0 -340 0 0 -85 0 -85 -85 0 -85
0 0 -85 0 -85 -85 0 -85 0 0 85 0 85 -85 0 -85 0 0 -85 0 -85 -85 0 -85 0 0
170 0 170 -340 0 -340 0 0 -170 0 -170 -85 0 -85 0 0 170 0 170 -85 0 -85 0 0
-170 0 -170 85 0 85 0 0 -85 0 -85 255 0 255 0 0 85 0 85 170 0 170 0 0 -170
0 -170 -340 0 -340 0 0 -85 0 -85 -85 0 -85 0 0 85 0 85 -85 0 -85 0 0 85 0
85 -85 0 -85 0 0 170 0 170 -85 0 -85 0 0 -85 0 -85 -85 0 -85 0 0 -85 0 -85
-85 0 -85 0 0 85 0 85 -255 0 -255 0 0 -85 0 -85 85 0 85 0 0 -170 0 -170
-170 0 -170 0 0 170 0 170 -85 0 -85 0 0 255 0 255 -85 0 -85 0 0 -85z m3740
-255 l0 -170 -170 0 -170 0 0 -85 0 -85 -255 0 -255 0 0 -85 0 -85 -85 0 -85
0 0 85 0 85 85 0 85 0 0 85 0 85 255 0 255 0 0 170 0 170 170 0 170 0 0 -170z
m2040 85 l0 -85 170 0 170 0 0 -85 0 -85 170 0 170 0 0 -170 0 -170 -170 0
-170 0 0 85 0 85 -85 0 -85 0 0 85 0 85 -85 0 -85 0 0 -85 0 -85 -255 0 -255
0 0 85 0 85 85 0 85 0 0 85 0 85 85 0 85 0 0 85 0 85 85 0 85 0 0 -85z m680 0
l0 -85 -85 0 -85 0 0 85 0 85 85 0 85 0 0 -85z m-2210 -170 l0 -85 -85 0 -85
0 0 -85 0 -85 170 0 170 0 0 -85 0 -85 85 0 85 0 0 85 0 85 255 0 255 0 0 -85
0 -85 85 0 85 0 0 -255 0 -255 85 0 85 0 0 255 0 255 85 0 85 0 0 -170 0 -170
85 0 85 0 0 85 0 85 85 0 85 0 0 -85 0 -85 85 0 85 0 0 85 0 85 85 0 85 0 0
-85 0 -85 85 0 85 0 0 -85 0 -85 85 0 85 0 0 -85 0 -85 -85 0 -85 0 0 -85 0
-85 -85 0 -85 0 0 -85 0 -85 -85 0 -85 0 0 85 0 85 -85 0 -85 0 0 -85 0 -85
-85 0 -85 0 0 -170 0 -170 -85 0 -85 0 0 -85 0 -85 85 0 85 0 0 -85 0 -85 85
0 85 0 0 -85 0 -85 85 0 85 0 0 -85 0 -85 255 0 255 0 0 85 0 85 85 0 85 0 0
170 0 170 85 0 85 0 0 85 0 85 85 0 85 0 0 -85 0 -85 -85 0 -85 0 0 -170 0
-170 -85 0 -85 0 0 -85 0 -85 170 0 170 0 0 -85 0 -85 -170 0 -170 0 0 85 0
85 -85 0 -85 0 0 -170 0 -170 -85 0 -85 0 0 -85 0 -85 255 0 255 0 0 85 0 85
85 0 85 0 0 -85 0 -85 170 0 170 0 0 -85 0 -85 85 0 85 0 0 85 0 85 85 0 85 0
0 -85 0 -85 -85 0 -85 0 0 -85 0 -85 85 0 85 0 0 -85 0 -85 -85 0 -85 0 0 85
0 85 -255 0 -255 0 0 -85 0 -85 85 0 85 0 0 -85 0 -85 170 0 170 0 0 -85 0
-85 -85 0 -85 0 0 -85 0 -85 -255 0 -255 0 0 170 0 170 -170 0 -170 0 0 85 0
85 -85 0 -85 0 0 -255 0 -255 -85 0 -85 0 0 -85 0 -85 170 0 170 0 0 -85 0
-85 -255 0 -255 0 0 -85 0 -85 255 0 255 0 0 -170 0 -170 425 0 425 0 0 85 0
85 85 0 85 0 0 -85 0 -85 -85 0 -85 0 0 -85 0 -85 -85 0 -85 0 0 -85 0 -85
170 0 170 0 0 -85 0 -85 85 0 85 0 0 -85 0 -85 -85 0 -85 0 0 85 0 85 -170 0
-170 0 0 85 0 85 -85 0 -85 0 0 85 0 85 -255 0 -255 0 0 -85 0 -85 -85 0 -85
0 0 -85 0 -85 170 0 170 0 0 -85 0 -85 85 0 85 0 0 85 0 85 85 0 85 0 0 -85 0
-85 85 0 85 0 0 -170 0 -170 85 0 85 0 0 -170 0 -170 -85 0 -85 0 0 -85 0 -85
-85 0 -85 0 0 -85 0 -85 170 0 170 0 0 85 0 85 85 0 85 0 0 -85 0 -85 -85 0
-85 0 0 -170 0 -170 -85 0 -85 0 0 -85 0 -85 -340 0 -340 0 0 -85 0 -85 170 0
170 0 0 -85 0 -85 85 0 85 0 0 -170 0 -170 -85 0 -85 0 0 170 0 170 -85 0 -85
0 0 -170 0 -170 -85 0 -85 0 0 -85 0 -85 -85 0 -85 0 0 -85 0 -85 85 0 85 0 0
-255 0 -255 85 0 85 0 0 -85 0 -85 255 0 255 0 0 85 0 85 85 0 85 0 0 -85 0
-85 85 0 85 0 0 -85 0 -85 -85 0 -85 0 0 -85 0 -85 -255 0 -255 0 0 85 0 85
-85 0 -85 0 0 85 0 85 -85 0 -85 0 0 -85 0 -85 -85 0 -85 0 0 85 0 85 -85 0
-85 0 0 85 0 85 -170 0 -170 0 0 -85 0 -85 85 0 85 0 0 -85 0 -85 -170 0 -170
0 0 -85 0 -85 -85 0 -85 0 0 170 0 170 85 0 85 0 0 85 0 85 85 0 85 0 0 170 0
170 -85 0 -85 0 0 -85 0 -85 -85 0 -85 0 0 -85 0 -85 -170 0 -170 0 0 85 0 85
-85 0 -85 0 0 170 0 170 -85 0 -85 0 0 170 0 170 -170 0 -170 0 0 85 0 85 85
0 85 0 0 85 0 85 -85 0 -85 0 0 85 0 85 85 0 85 0 0 -85 0 -85 85 0 85 0 0
170 0 170 -170 0 -170 0 0 85 0 85 -170 0 -170 0 0 255 0 255 170 0 170 0 0
85 0 85 85 0 85 0 0 170 0 170 170 0 170 0 0 -85 0 -85 -85 0 -85 0 0 -85 0
-85 85 0 85 0 0 -255 0 -255 -170 0 -170 0 0 170 0 170 -85 0 -85 0 0 -85 0
-85 -85 0 -85 0 0 -85 0 -85 85 0 85 0 0 -85 0 -85 170 0 170 0 0 -85 0 -85
85 0 85 0 0 85 0 85 85 0 85 0 0 -85 0 -85 85 0 85 0 0 170 0 170 85 0 85 0 0
-170 0 -170 85 0 85 0 0 170 0 170 85 0 85 0 0 85 0 85 -85 0 -85 0 0 85 0 85
170 0 170 0 0 85 0 85 -425 0 -425 0 0 510 0 510 -85 0 -85 0 0 -85 0 -85 -85
0 -85 0 0 -85 0 -85 -85 0 -85 0 0 -85 0 -85 -170 0 -170 0 0 -170 0 -170
-255 0 -255 0 0 -85 0 -85 85 0 85 0 0 -340 0 -340 -85 0 -85 0 0 -85 0 -85
85 0 85 0 0 -85 0 -85 85 0 85 0 0 85 0 85 85 0 85 0 0 -170 0 -170 -170 0
-170 0 0 85 0 85 -85 0 -85 0 0 85 0 85 -85 0 -85 0 0 -170 0 -170 85 0 85 0
0 -170 0 -170 85 0 85 0 0 85 0 85 170 0 170 0 0 -255 0 -255 85 0 85 0 0 85
0 85 85 0 85 0 0 -85 0 -85 -85 0 -85 0 0 -85 0 -85 85 0 85 0 0 -85 0 -85
-170 0 -170 0 0 170 0 170 -255 0 -255 0 0 170 0 170 -255 0 -255 0 0 85 0 85
170 0 170 0 0 85 0 85 -255 0 -255 0 0 85 0 85 170 0 170 0 0 85 0 85 -170 0
-170 0 0 85 0 85 -85 0 -85 0 0 -85 0 -85 -85 0 -85 0 0 -170 0 -170 -85 0
-85 0 0 170 0 170 -85 0 -85 0 0 170 0 170 85 0 85 0 0 85 0 85 -340 0 -340 0
0 -170 0 -170 85 0 85 0 0 -85 0 -85 85 0 85 0 0 -85 0 -85 -85 0 -85 0 0 -85
0 -85 -85 0 -85 0 0 -170 0 -170 -85 0 -85 0 0 -85 0 -85 -85 0 -85 0 0 -170
0 -170 -85 0 -85 0 0 -85 0 -85 -85 0 -85 0 0 170 0 170 -85 0 -85 0 0 170 0
170 -170 0 -170 0 0 -85 0 -85 85 0 85 0 0 -85 0 -85 -85 0 -85 0 0 -85 0 -85
-85 0 -85 0 0 85 0 85 -85 0 -85 0 0 170 0 170 -85 0 -85 0 0 -85 0 -85 -170
0 -170 0 0 85 0 85 170 0 170 0 0 85 0 85 85 0 85 0 0 -85 0 -85 170 0 170 0
0 85 0 85 85 0 85 0 0 85 0 85 -85 0 -85 0 0 85 0 85 -85 0 -85 0 0 85 0 85
85 0 85 0 0 255 0 255 170 0 170 0 0 170 0 170 -170 0 -170 0 0 -85 0 -85 -85
0 -85 0 0 -85 0 -85 -255 0 -255 0 0 85 0 85 85 0 85 0 0 255 0 255 -85 0 -85
0 0 170 0 170 -170 0 -170 0 0 -85 0 -85 -170 0 -170 0 0 85 0 85 -170 0 -170
0 0 -85 0 -85 85 0 85 0 0 -85 0 -85 -85 0 -85 0 0 85 0 85 -85 0 -85 0 0 85
0 85 -85 0 -85 0 0 85 0 85 85 0 85 0 0 -85 0 -85 85 0 85 0 0 170 0 170 -85
0 -85 0 0 85 0 85 -85 0 -85 0 0 -85 0 -85 -85 0 -85 0 0 85 0 85 85 0 85 0 0
170 0 170 85 0 85 0 0 -85 0 -85 85 0 85 0 0 -85 0 -85 85 0 85 0 0 85 0 85
340 0 340 0 0 -85 0 -85 85 0 85 0 0 85 0 85 85 0 85 0 0 -85 0 -85 85 0 85 0
0 170 0 170 -255 0 -255 0 0 85 0 85 340 0 340 0 0 85 0 85 -85 0 -85 0 0 85
0 85 -85 0 -85 0 0 170 0 170 -85 0 -85 0 0 -255 0 -255 -85 0 -85 0 0 255 0
255 85 0 85 0 0 340 0 340 -85 0 -85 0 0 85 0 85 -85 0 -85 0 0 -85 0 -85 -85
0 -85 0 0 -85 0 -85 85 0 85 0 0 -170 0 -170 -170 0 -170 0 0 -85 0 -85 85 0
85 0 0 -85 0 -85 -85 0 -85 0 0 85 0 85 -85 0 -85 0 0 -85 0 -85 -85 0 -85 0
0 -85 0 -85 -85 0 -85 0 0 170 0 170 170 0 170 0 0 85 0 85 85 0 85 0 0 85 0
85 85 0 85 0 0 85 0 85 -340 0 -340 0 0 85 0 85 85 0 85 0 0 85 0 85 170 0
170 0 0 85 0 85 85 0 85 0 0 85 0 85 85 0 85 0 0 85 0 85 -85 0 -85 0 0 85 0
85 -85 0 -85 0 0 85 0 85 85 0 85 0 0 -85 0 -85 85 0 85 0 0 85 0 85 85 0 85
0 0 170 0 170 -85 0 -85 0 0 255 0 255 -170 0 -170 0 0 -85 0 -85 85 0 85 0 0
-85 0 -85 -85 0 -85 0 0 -85 0 -85 85 0 85 0 0 -85 0 -85 -170 0 -170 0 0 -85
0 -85 -85 0 -85 0 0 170 0 170 -85 0 -85 0 0 85 0 85 85 0 85 0 0 85 0 85 -85
0 -85 0 0 85 0 85 85 0 85 0 0 -85 0 -85 85 0 85 0 0 85 0 85 85 0 85 0 0 85
0 85 255 0 255 0 0 -85 0 -85 85 0 85 0 0 85 0 85 85 0 85 0 0 255 0 255 -85
0 -85 0 0 85 0 85 85 0 85 0 0 -85 0 -85 85 0 85 0 0 -255 0 -255 85 0 85 0 0
-170 0 -170 85 0 85 0 0 -85 0 -85 -85 0 -85 0 0 85 0 85 -85 0 -85 0 0 -170
0 -170 255 0 255 0 0 85 0 85 85 0 85 0 0 -85 0 -85 85 0 85 0 0 170 0 170 85
0 85 0 0 -170 0 -170 85 0 85 0 0 85 0 85 85 0 85 0 0 255 0 255 -85 0 -85 0
0 -85 0 -85 -255 0 -255 0 0 -85 0 -85 -85 0 -85 0 0 85 0 85 -85 0 -85 0 0
170 0 170 -85 0 -85 0 0 170 0 170 85 0 85 0 0 85 0 85 85 0 85 0 0 -85 0 -85
85 0 85 0 0 255 0 255 170 0 170 0 0 -85 0 -85 85 0 85 0 0 -85 0 -85 85 0 85
0 0 -170 0 -170 -85 0 -85 0 0 170 0 170 -85 0 -85 0 0 -170 0 -170 -85 0 -85
0 0 -85 0 -85 85 0 85 0 0 -85 0 -85 85 0 85 0 0 85 0 85 85 0 85 0 0 -85 0
-85 85 0 85 0 0 85 0 85 85 0 85 0 0 85 0 85 -85 0 -85 0 0 85 0 85 85 0 85 0
0 -85 0 -85 85 0 85 0 0 85 0 85 85 0 85 0 0 -170 0 -170 85 0 85 0 0 -85 0
-85 -340 0 -340 0 0 -85 0 -85 85 0 85 0 0 -85 0 -85 340 0 340 0 0 170 0 170
170 0 170 0 0 -85 0 -85 255 0 255 0 0 170 0 170 425 0 425 0 0 85 0 85 -85 0
-85 0 0 170 0 170 -170 0 -170 0 0 85 0 85 -85 0 -85 0 0 170 0 170 170 0 170
0 0 -85z m340 0 l0 -85 -85 0 -85 0 0 85 0 85 85 0 85 0 0 -85z m-3570 -170
l0 -85 -85 0 -85 0 0 85 0 85 85 0 85 0 0 -85z m2550 -510 l0 -255 -255 0
-255 0 0 255 0 255 255 0 255 0 0 -255z m-680 0 l0 -85 -85 0 -85 0 0 85 0 85
85 0 85 0 0 -85z m1020 0 l0 -85 -85 0 -85 0 0 85 0 85 85 0 85 0 0 -85z m340
0 l0 -85 -85 0 -85 0 0 85 0 85 85 0 85 0 0 -85z m3740 -1530 l0 -85 -85 0
-85 0 0 85 0 85 85 0 85 0 0 -85z m-510 -170 l0 -85 -85 0 -85 0 0 85 0 85 85
0 85 0 0 -85z m-8160 -340 l0 -85 -85 0 -85 0 0 85 0 85 85 0 85 0 0 -85z
m-170 -850 l0 -85 -85 0 -85 0 0 85 0 85 85 0 85 0 0 -85z m680 -850 l0 -255
-255 0 -255 0 0 255 0 255 255 0 255 0 0 -255z m7480 0 l0 -255 -255 0 -255 0
0 255 0 255 255 0 255 0 0 -255z m-8160 0 l0 -85 -85 0 -85 0 0 85 0 85 85 0
85 0 0 -85z m8500 0 l0 -85 -85 0 -85 0 0 85 0 85 85 0 85 0 0 -85z m340 -170
l0 -85 -85 0 -85 0 0 85 0 85 85 0 85 0 0 -85z m-7990 -1360 l0 -85 -255 0
-255 0 0 85 0 85 255 0 255 0 0 -85z m-340 -340 l0 -85 -85 0 -85 0 0 85 0 85
85 0 85 0 0 -85z m340 0 l0 -85 -85 0 -85 0 0 85 0 85 85 0 85 0 0 -85z m5440
-170 l0 -85 -85 0 -85 0 0 85 0 85 85 0 85 0 0 -85z m2380 -340 l0 -85 -85 0
-85 0 0 85 0 85 85 0 85 0 0 -85z m-8840 -425 l0 -170 170 0 170 0 0 -85 0
-85 -170 0 -170 0 0 85 0 85 -85 0 -85 0 0 -85 0 -85 -85 0 -85 0 0 170 0 170
85 0 85 0 0 85 0 85 85 0 85 0 0 -170z m850 -85 l0 -85 -170 0 -170 0 0 85 0
85 170 0 170 0 0 -85z m3400 -340 l0 -85 -170 0 -170 0 0 -85 0 -85 -170 0
-170 0 0 85 0 85 170 0 170 0 0 85 0 85 170 0 170 0 0 -85z m340 -510 l0 -255
-255 0 -255 0 0 255 0 255 255 0 255 0 0 -255z m3740 0 l0 -255 -255 0 -255 0
0 255 0 255 255 0 255 0 0 -255z m-6120 -170 l0 -85 -85 0 -85 0 0 85 0 85 85
0 85 0 0 -85z m2720 0 l0 -85 -85 0 -85 0 0 85 0 85 85 0 85 0 0 -85z m340 0
l0 -85 -85 0 -85 0 0 85 0 85 85 0 85 0 0 -85z m850 -340 l0 -85 -85 0 -85 0
0 85 0 85 85 0 85 0 0 -85z m-1530 -340 l0 -85 -85 0 -85 0 0 85 0 85 85 0 85
0 0 -85z"/>
<path d="M7310 9435 l0 -85 85 0 85 0 0 85 0 85 -85 0 -85 0 0 -85z"/>
<path d="M6460 8925 l0 -85 -85 0 -85 0 0 -85 0 -85 85 0 85 0 0 85 0 85 85 0
85 0 0 -85 0 -85 85 0 85 0 0 170 0 170 -170 0 -170 0 0 -85z"/>
<path d="M2550 8755 l0 -85 85 0 85 0 0 85 0 85 -85 0 -85 0 0 -85z"/>
<path d="M2890 8755 l0 -85 85 0 85 0 0 85 0 85 -85 0 -85 0 0 -85z"/>
<path d="M6290 8415 l0 -85 -85 0 -85 0 0 -85 0 -85 -85 0 -85 0 0 85 0 85
-170 0 -170 0 0 -85 0 -85 170 0 170 0 0 -170 0 -170 85 0 85 0 0 85 0 85 255
0 255 0 0 -170 0 -170 -85 0 -85 0 0 85 0 85 -85 0 -85 0 0 -85 0 -85 -85 0
-85 0 0 -85 0 -85 -170 0 -170 0 0 -85 0 -85 -85 0 -85 0 0 85 0 85 -85 0 -85
0 0 85 0 85 85 0 85 0 0 85 0 85 85 0 85 0 0 85 0 85 -85 0 -85 0 0 -85 0 -85
-85 0 -85 0 0 -85 0 -85 -85 0 -85 0 0 -85 0 -85 -170 0 -170 0 0 85 0 85 -85
0 -85 0 0 85 0 85 170 0 170 0 0 85 0 85 -85 0 -85 0 0 85 0 85 -85 0 -85 0 0
-170 0 -170 -85 0 -85 0 0 -85 0 -85 -170 0 -170 0 0 85 0 85 -85 0 -85 0 0
-85 0 -85 -85 0 -85 0 0 85 0 85 -170 0 -170 0 0 -85 0 -85 170 0 170 0 0
-170 0 -170 -85 0 -85 0 0 85 0 85 -85 0 -85 0 0 -255 0 -255 -85 0 -85 0 0
85 0 85 -85 0 -85 0 0 255 0 255 -85 0 -85 0 0 -170 0 -170 -170 0 -170 0 0
85 0 85 -85 0 -85 0 0 -85 0 -85 -85 0 -85 0 0 85 0 85 -255 0 -255 0 0 -170
0 -170 170 0 170 0 0 -255 0 -255 -85 0 -85 0 0 -85 0 -85 -85 0 -85 0 0 -85
0 -85 85 0 85 0 0 -255 0 -255 85 0 85 0 0 85 0 85 170 0 170 0 0 -255 0 -255
85 0 85 0 0 -85 0 -85 85 0 85 0 0 -85 0 -85 -85 0 -85 0 0 -85 0 -85 170 0
170 0 0 -170 0 -170 -85 0 -85 0 0 -85 0 -85 -85 0 -85 0 0 85 0 85 -85 0 -85
0 0 170 0 170 -85 0 -85 0 0 -170 0 -170 85 0 85 0 0 -85 0 -85 -170 0 -170 0
0 -85 0 -85 -85 0 -85 0 0 85 0 85 -85 0 -85 0 0 -255 0 -255 85 0 85 0 0
-170 0 -170 85 0 85 0 0 -85 0 -85 85 0 85 0 0 -85 0 -85 85 0 85 0 0 85 0 85
85 0 85 0 0 85 0 85 -85 0 -85 0 0 85 0 85 -85 0 -85 0 0 85 0 85 170 0 170 0
0 -85 0 -85 170 0 170 0 0 -85 0 -85 170 0 170 0 0 -85 0 -85 85 0 85 0 0
-255 0 -255 -85 0 -85 0 0 85 0 85 -170 0 -170 0 0 -255 0 -255 255 0 255 0 0
-85 0 -85 -425 0 -425 0 0 -85 0 -85 255 0 255 0 0 -85 0 -85 -85 0 -85 0 0
-255 0 -255 170 0 170 0 0 85 0 85 -85 0 -85 0 0 170 0 170 170 0 170 0 0 85
0 85 170 0 170 0 0 85 0 85 -85 0 -85 0 0 85 0 85 -85 0 -85 0 0 170 0 170 85
0 85 0 0 170 0 170 170 0 170 0 0 85 0 85 170 0 170 0 0 -85 0 -85 -85 0 -85
0 0 -85 0 -85 85 0 85 0 0 85 0 85 170 0 170 0 0 -85 0 -85 -85 0 -85 0 0 -85
0 -85 255 0 255 0 0 -85 0 -85 -85 0 -85 0 0 -85 0 -85 255 0 255 0 0 85 0 85
85 0 85 0 0 170 0 170 -85 0 -85 0 0 -170 0 -170 -85 0 -85 0 0 255 0 255 85
0 85 0 0 85 0 85 85 0 85 0 0 85 0 85 -85 0 -85 0 0 85 0 85 -85 0 -85 0 0 85
0 85 85 0 85 0 0 85 0 85 85 0 85 0 0 -85 0 -85 85 0 85 0 0 -85 0 -85 170 0
170 0 0 170 0 170 85 0 85 0 0 -85 0 -85 85 0 85 0 0 85 0 85 85 0 85 0 0 170
0 170 85 0 85 0 0 170 0 170 85 0 85 0 0 85 0 85 -85 0 -85 0 0 -85 0 -85 -85
0 -85 0 0 170 0 170 85 0 85 0 0 85 0 85 85 0 85 0 0 -85 0 -85 85 0 85 0 0
170 0 170 85 0 85 0 0 -85 0 -85 85 0 85 0 0 -170 0 -170 -85 0 -85 0 0 -85 0
-85 -85 0 -85 0 0 -85 0 -85 -85 0 -85 0 0 -85 0 -85 85 0 85 0 0 -170 0 -170
340 0 340 0 0 85 0 85 -85 0 -85 0 0 85 0 85 85 0 85 0 0 85 0 85 85 0 85 0 0
85 0 85 -85 0 -85 0 0 85 0 85 -85 0 -85 0 0 255 0 255 170 0 170 0 0 85 0 85
-170 0 -170 0 0 -85 0 -85 -85 0 -85 0 0 170 0 170 255 0 255 0 0 85 0 85 85
0 85 0 0 85 0 85 -255 0 -255 0 0 170 0 170 -170 0 -170 0 0 85 0 85 -85 0
-85 0 0 -85 0 -85 85 0 85 0 0 -170 0 -170 -85 0 -85 0 0 85 0 85 -170 0 -170
0 0 85 0 85 85 0 85 0 0 85 0 85 -85 0 -85 0 0 85 0 85 85 0 85 0 0 85 0 85
-85 0 -85 0 0 -85 0 -85 -85 0 -85 0 0 255 0 255 -85 0 -85 0 0 85 0 85 85 0
85 0 0 85 0 85 85 0 85 0 0 -255 0 -255 255 0 255 0 0 -85 0 -85 -85 0 -85 0
0 -85 0 -85 170 0 170 0 0 -85 0 -85 170 0 170 0 0 -85 0 -85 85 0 85 0 0 -85
0 -85 85 0 85 0 0 85 0 85 -85 0 -85 0 0 170 0 170 -85 0 -85 0 0 85 0 85 -85
0 -85 0 0 85 0 85 -85 0 -85 0 0 85 0 85 -85 0 -85 0 0 85 0 85 -85 0 -85 0 0
-85 0 -85 -85 0 -85 0 0 170 0 170 -85 0 -85 0 0 170 0 170 85 0 85 0 0 -85 0
-85 170 0 170 0 0 85 0 85 85 0 85 0 0 170 0 170 -255 0 -255 0 0 85 0 85 -85
0 -85 0 0 -85 0 -85 85 0 85 0 0 -85 0 -85 -340 0 -340 0 0 85 0 85 170 0 170
0 0 85 0 85 -170 0 -170 0 0 -85z m850 -340 l0 -85 -85 0 -85 0 0 85 0 85 85
0 85 0 0 -85z m-2890 -595 l0 -170 85 0 85 0 0 -85 0 -85 85 0 85 0 0 85 0 85
85 0 85 0 0 -85 0 -85 170 0 170 0 0 85 0 85 85 0 85 0 0 85 0 85 85 0 85 0 0
-85 0 -85 85 0 85 0 0 -85 0 -85 85 0 85 0 0 85 0 85 340 0 340 0 0 -85 0 -85
-255 0 -255 0 0 -85 0 -85 85 0 85 0 0 -85 0 -85 255 0 255 0 0 -255 0 -255
85 0 85 0 0 -85 0 -85 -85 0 -85 0 0 -85 0 -85 170 0 170 0 0 -85 0 -85 170 0
170 0 0 -85 0 -85 -170 0 -170 0 0 -85 0 -85 -255 0 -255 0 0 170 0 170 -85 0
-85 0 0 -170 0 -170 -170 0 -170 0 0 -85 0 -85 -170 0 -170 0 0 -85 0 -85 255
0 255 0 0 -170 0 -170 -170 0 -170 0 0 -85 0 -85 -85 0 -85 0 0 -85 0 -85 170
0 170 0 0 85 0 85 255 0 255 0 0 85 0 85 -85 0 -85 0 0 85 0 85 85 0 85 0 0
-85 0 -85 85 0 85 0 0 -85 0 -85 -85 0 -85 0 0 -85 0 -85 -255 0 -255 0 0 -85
0 -85 85 0 85 0 0 -85 0 -85 -255 0 -255 0 0 170 0 170 -85 0 -85 0 0 -170 0
-170 -85 0 -85 0 0 -85 0 -85 -85 0 -85 0 0 -255 0 -255 85 0 85 0 0 85 0 85
85 0 85 0 0 -85 0 -85 -85 0 -85 0 0 -85 0 -85 -85 0 -85 0 0 85 0 85 -85 0
-85 0 0 -85 0 -85 -85 0 -85 0 0 170 0 170 -85 0 -85 0 0 -85 0 -85 -85 0 -85
0 0 85 0 85 -255 0 -255 0 0 -85 0 -85 -170 0 -170 0 0 85 0 85 -85 0 -85 0 0
85 0 85 85 0 85 0 0 255 0 255 -85 0 -85 0 0 -85 0 -85 -340 0 -340 0 0 85 0
85 -85 0 -85 0 0 -85 0 -85 -85 0 -85 0 0 -85 0 -85 -85 0 -85 0 0 170 0 170
170 0 170 0 0 85 0 85 85 0 85 0 0 -85 0 -85 85 0 85 0 0 85 0 85 85 0 85 0 0
85 0 85 85 0 85 0 0 85 0 85 85 0 85 0 0 85 0 85 255 0 255 0 0 85 0 85 -85 0
-85 0 0 85 0 85 85 0 85 0 0 -85 0 -85 170 0 170 0 0 85 0 85 85 0 85 0 0 170
0 170 -340 0 -340 0 0 -85 0 -85 -85 0 -85 0 0 -170 0 -170 -255 0 -255 0 0
85 0 85 -85 0 -85 0 0 170 0 170 -85 0 -85 0 0 85 0 85 85 0 85 0 0 85 0 85
85 0 85 0 0 -85 0 -85 85 0 85 0 0 255 0 255 85 0 85 0 0 85 0 85 -85 0 -85 0
0 170 0 170 -85 0 -85 0 0 -340 0 -340 -170 0 -170 0 0 -85 0 -85 -85 0 -85 0
0 170 0 170 -170 0 -170 0 0 85 0 85 170 0 170 0 0 85 0 85 -85 0 -85 0 0 85
0 85 85 0 85 0 0 255 0 255 85 0 85 0 0 -170 0 -170 85 0 85 0 0 85 0 85 85 0
85 0 0 -85 0 -85 170 0 170 0 0 -255 0 -255 255 0 255 0 0 85 0 85 170 0 170
0 0 85 0 85 85 0 85 0 0 -85 0 -85 -85 0 -85 0 0 -85 0 -85 170 0 170 0 0 85
0 85 85 0 85 0 0 -85 0 -85 255 0 255 0 0 85 0 85 -170 0 -170 0 0 85 0 85
-85 0 -85 0 0 170 0 170 -85 0 -85 0 0 -85 0 -85 -425 0 -425 0 0 -170 0 -170
-85 0 -85 0 0 170 0 170 85 0 85 0 0 85 0 85 255 0 255 0 0 85 0 85 -85 0 -85
0 0 170 0 170 85 0 85 0 0 -170z m2210 85 l0 -85 -85 0 -85 0 0 85 0 85 85 0
85 0 0 -85z m-4080 -340 l0 -85 -85 0 -85 0 0 85 0 85 85 0 85 0 0 -85z m5270
-1190 l0 -85 -170 0 -170 0 0 85 0 85 170 0 170 0 0 -85z m-1190 -850 l0 -85
-85 0 -85 0 0 85 0 85 85 0 85 0 0 -85z m1190 -510 l0 -255 -85 0 -85 0 0 85
0 85 -85 0 -85 0 0 -85 0 -85 -85 0 -85 0 0 85 0 85 85 0 85 0 0 85 0 85 85 0
85 0 0 85 0 85 85 0 85 0 0 -255z m-1190 -510 l0 -85 -85 0 -85 0 0 85 0 85
85 0 85 0 0 -85z m-3230 -340 l0 -85 -85 0 -85 0 0 85 0 85 85 0 85 0 0 -85z"/>
<path d="M5270 7225 l0 -85 85 0 85 0 0 -85 0 -85 -170 0 -170 0 0 -85 0 -85
85 0 85 0 0 -85 0 -85 85 0 85 0 0 85 0 85 170 0 170 0 0 85 0 85 -85 0 -85 0
0 85 0 85 -85 0 -85 0 0 85 0 85 -85 0 -85 0 0 -85z"/>
<path d="M5950 6630 l0 -170 -85 0 -85 0 0 -85 0 -85 -85 0 -85 0 0 85 0 85
-170 0 -170 0 0 -85 0 -85 -170 0 -170 0 0 -170 0 -170 -85 0 -85 0 0 85 0 85
-170 0 -170 0 0 85 0 85 -255 0 -255 0 0 -85 0 -85 -85 0 -85 0 0 -85 0 -85
85 0 85 0 0 85 0 85 170 0 170 0 0 -85 0 -85 -85 0 -85 0 0 -85 0 -85 170 0
170 0 0 -85 0 -85 170 0 170 0 0 -85 0 -85 -85 0 -85 0 0 -255 0 -255 -85 0
-85 0 0 85 0 85 -85 0 -85 0 0 -85 0 -85 -170 0 -170 0 0 -85 0 -85 340 0 340
0 0 -85 0 -85 -170 0 -170 0 0 -85 0 -85 -85 0 -85 0 0 85 0 85 -85 0 -85 0 0
-85 0 -85 -170 0 -170 0 0 -85 0 -85 85 0 85 0 0 -85 0 -85 170 0 170 0 0 -85
0 -85 85 0 85 0 0 -85 0 -85 170 0 170 0 0 85 0 85 -170 0 -170 0 0 85 0 85
85 0 85 0 0 85 0 85 -85 0 -85 0 0 85 0 85 170 0 170 0 0 -170 0 -170 85 0 85
0 0 -85 0 -85 85 0 85 0 0 85 0 85 -85 0 -85 0 0 85 0 85 170 0 170 0 0 -85 0
-85 85 0 85 0 0 85 0 85 -85 0 -85 0 0 170 0 170 255 0 255 0 0 255 0 255 -85
0 -85 0 0 85 0 85 85 0 85 0 0 85 0 85 -85 0 -85 0 0 85 0 85 85 0 85 0 0 170
0 170 255 0 255 0 0 -85 0 -85 -170 0 -170 0 0 -170 0 -170 85 0 85 0 0 85 0
85 85 0 85 0 0 85 0 85 85 0 85 0 0 85 0 85 85 0 85 0 0 -85 0 -85 85 0 85 0
0 -85 0 -85 170 0 170 0 0 85 0 85 -170 0 -170 0 0 85 0 85 -85 0 -85 0 0 255
0 255 -85 0 -85 0 0 85 0 85 -85 0 -85 0 0 85 0 85 -85 0 -85 0 0 -170z m340
-255 l0 -85 -85 0 -85 0 0 -85 0 -85 85 0 85 0 0 -85 0 -85 -85 0 -85 0 0 85
0 85 -170 0 -170 0 0 85 0 85 85 0 85 0 0 85 0 85 170 0 170 0 0 -85z m-680
-255 l0 -170 -85 0 -85 0 0 -170 0 -170 -85 0 -85 0 0 -85 0 -85 -85 0 -85 0
0 85 0 85 -170 0 -170 0 0 85 0 85 -85 0 -85 0 0 85 0 85 85 0 85 0 0 -85 0
-85 255 0 255 0 0 85 0 85 -85 0 -85 0 0 85 0 85 170 0 170 0 0 85 0 85 85 0
85 0 0 -170z m-340 -1105 l0 -255 -255 0 -255 0 0 255 0 255 255 0 255 0 0
-255z m-340 -510 l0 -85 -170 0 -170 0 0 85 0 85 170 0 170 0 0 -85z m-850
-170 l0 -85 -85 0 -85 0 0 85 0 85 85 0 85 0 0 -85z"/>
<path d="M4930 5015 l0 -85 85 0 85 0 0 85 0 85 -85 0 -85 0 0 -85z"/>
<path d="M2720 6375 l0 -85 85 0 85 0 0 85 0 85 -85 0 -85 0 0 -85z"/>
<path d="M4590 6375 l0 -85 85 0 85 0 0 85 0 85 -85 0 -85 0 0 -85z"/>
<path d="M3400 6035 l0 -255 -85 0 -85 0 0 -170 0 -170 170 0 170 0 0 85 0 85
85 0 85 0 0 85 0 85 -85 0 -85 0 0 255 0 255 -85 0 -85 0 0 -255z m170 -340
l0 -85 -85 0 -85 0 0 85 0 85 85 0 85 0 0 -85z"/>
<path d="M2890 5695 l0 -85 85 0 85 0 0 85 0 85 -85 0 -85 0 0 -85z"/>
<path d="M3400 4675 l0 -85 -85 0 -85 0 0 -85 0 -85 -85 0 -85 0 0 -85 0 -85
170 0 170 0 0 170 0 170 170 0 170 0 0 85 0 85 -170 0 -170 0 0 -85z"/>
<path d="M3740 3825 l0 -85 85 0 85 0 0 85 0 85 -85 0 -85 0 0 -85z"/>
<path d="M4760 3655 l0 -85 85 0 85 0 0 85 0 85 -85 0 -85 0 0 -85z"/>
<path d="M7820 8330 l0 -170 85 0 85 0 0 170 0 170 -85 0 -85 0 0 -170z"/>
<path d="M1870 8075 l0 -85 -85 0 -85 0 0 -170 0 -170 170 0 170 0 0 170 0
170 85 0 85 0 0 85 0 85 -170 0 -170 0 0 -85z"/>
<path d="M1020 7905 l0 -85 -85 0 -85 0 0 -85 0 -85 85 0 85 0 0 85 0 85 85 0
85 0 0 85 0 85 -85 0 -85 0 0 -85z"/>
<path d="M1530 7055 l0 -85 85 0 85 0 0 -85 0 -85 -85 0 -85 0 0 -85 0 -85 85
0 85 0 0 85 0 85 170 0 170 0 0 85 0 85 -170 0 -170 0 0 85 0 85 -85 0 -85 0
0 -85z"/>
<path d="M1190 6375 l0 -85 85 0 85 0 0 85 0 85 -85 0 -85 0 0 -85z"/>
<path d="M8670 6375 l0 -85 -170 0 -170 0 0 -85 0 -85 170 0 170 0 0 85 0 85
85 0 85 0 0 85 0 85 -85 0 -85 0 0 -85z"/>
<path d="M8670 5865 l0 -85 85 0 85 0 0 -85 0 -85 85 0 85 0 0 85 0 85 -85 0
-85 0 0 85 0 85 -85 0 -85 0 0 -85z"/>
<path d="M2210 5355 l0 -85 85 0 85 0 0 -85 0 -85 85 0 85 0 0 85 0 85 -85 0
-85 0 0 85 0 85 -85 0 -85 0 0 -85z"/>
<path d="M1190 4335 l0 -85 -85 0 -85 0 0 -85 0 -85 85 0 85 0 0 -85 0 -85
170 0 170 0 0 85 0 85 85 0 85 0 0 85 0 85 -85 0 -85 0 0 85 0 85 -170 0 -170
0 0 -85z m340 -170 l0 -85 -170 0 -170 0 0 85 0 85 170 0 170 0 0 -85z"/>
<path d="M7990 3740 l0 -170 85 0 85 0 0 -85 0 -85 -170 0 -170 0 0 85 0 85
-85 0 -85 0 0 85 0 85 -85 0 -85 0 0 -85 0 -85 -170 0 -170 0 0 -85 0 -85 340
0 340 0 0 -85 0 -85 170 0 170 0 0 -85 0 -85 85 0 85 0 0 85 0 85 85 0 85 0 0
-85 0 -85 170 0 170 0 0 85 0 85 85 0 85 0 0 170 0 170 -255 0 -255 0 0 170 0
170 -255 0 -255 0 0 -170z m340 -85 l0 -85 85 0 85 0 0 -85 0 -85 170 0 170 0
0 -85 0 -85 -170 0 -170 0 0 85 0 85 -85 0 -85 0 0 -85 0 -85 -85 0 -85 0 0
85 0 85 85 0 85 0 0 85 0 85 -85 0 -85 0 0 85 0 85 85 0 85 0 0 -85z"/>
<path d="M8670 3825 l0 -85 85 0 85 0 0 85 0 85 -85 0 -85 0 0 -85z"/>
<path d="M6460 3145 l0 -85 85 0 85 0 0 85 0 85 -85 0 -85 0 0 -85z"/>
<path d="M7820 2890 l0 -170 -85 0 -85 0 0 -85 0 -85 85 0 85 0 0 85 0 85 85
0 85 0 0 -85 0 -85 340 0 340 0 0 85 0 85 85 0 85 0 0 85 0 85 -170 0 -170 0
0 -85 0 -85 -85 0 -85 0 0 85 0 85 -85 0 -85 0 0 -85 0 -85 -85 0 -85 0 0 170
0 170 -85 0 -85 0 0 -170z"/>
<path d="M4420 2550 l0 -170 85 0 85 0 0 85 0 85 85 0 85 0 0 85 0 85 -170 0
-170 0 0 -170z"/>
<path d="M7140 2295 l0 -85 85 0 85 0 0 -85 0 -85 85 0 85 0 0 -85 0 -85 -85
0 -85 0 0 -85 0 -85 -85 0 -85 0 0 -255 0 -255 -85 0 -85 0 0 -85 0 -85 85 0
85 0 0 85 0 85 85 0 85 0 0 85 0 85 85 0 85 0 0 85 0 85 85 0 85 0 0 -170 0
-170 85 0 85 0 0 85 0 85 85 0 85 0 0 -170 0 -170 85 0 85 0 0 170 0 170 -85
0 -85 0 0 170 0 170 -85 0 -85 0 0 255 0 255 -255 0 -255 0 0 85 0 85 -85 0
-85 0 0 -85z m510 -510 l0 -85 85 0 85 0 0 -85 0 -85 -85 0 -85 0 0 85 0 85
-85 0 -85 0 0 -85 0 -85 -85 0 -85 0 0 85 0 85 85 0 85 0 0 85 0 85 85 0 85 0
0 -85z"/>
<path d="M6800 2125 l0 -85 -85 0 -85 0 0 -170 0 -170 170 0 170 0 0 85 0 85
-85 0 -85 0 0 85 0 85 85 0 85 0 0 85 0 85 -85 0 -85 0 0 -85z"/>
<path d="M2380 1445 l0 -85 85 0 85 0 0 85 0 85 -85 0 -85 0 0 -85z"/>
<path d="M6800 1445 l0 -85 85 0 85 0 0 85 0 85 -85 0 -85 0 0 -85z"/>
<path d="M8160 765 l0 -85 85 0 85 0 0 85 0 85 -85 0 -85 0 0 -85z"/>
<path d="M4930 8755 l0 -85 85 0 85 0 0 85 0 85 -85 0 -85 0 0 -85z"/>
<path d="M1190 5015 l0 -85 85 0 85 0 0 85 0 85 -85 0 -85 0 0 -85z"/>
<path d="M8670 5015 l0 -85 85 0 85 0 0 85 0 85 -85 0 -85 0 0 -85z"/>
<path d="M4930 1275 l0 -85 85 0 85 0 0 85 0 85 -85 0 -85 0 0 -85z"/>
<path d="M8670 1275 l0 -85 85 0 85 0 0 85 0 85 -85 0 -85 0 0 -85z"/>
<path d="M8670 9265 l0 -595 595 0 595 0 0 595 0 595 -595 0 -595 0 0 -595z
m1020 0 l0 -425 -425 0 -425 0 0 425 0 425 425 0 425 0 0 -425z"/>
<path d="M9010 9265 l0 -255 255 0 255 0 0 255 0 255 -255 0 -255 0 0 -255z"/>
<path d="M8840 8415 l0 -85 85 0 85 0 0 85 0 85 -85 0 -85 0 0 -85z"/>
<path d="M170 7735 l0 -85 85 0 85 0 0 85 0 85 -85 0 -85 0 0 -85z"/>
<path d="M1190 2635 l0 -85 170 0 170 0 0 85 0 85 -170 0 -170 0 0 -85z"/>
<path d="M1700 2465 l0 -85 85 0 85 0 0 85 0 85 -85 0 -85 0 0 -85z"/>
<path d="M1190 1615 l0 -85 85 0 85 0 0 85 0 85 -85 0 -85 0 0 -85z"/>
<path d="M170 765 l0 -595 595 0 595 0 0 595 0 595 -595 0 -595 0 0 -595z
m1020 0 l0 -425 -425 0 -425 0 0 425 0 425 425 0 425 0 0 -425z"/>
<path d="M510 765 l0 -255 255 0 255 0 0 255 0 255 -255 0 -255 0 0 -255z"/>
<path d="M2550 510 l0 -170 -170 0 -170 0 0 -85 0 -85 340 0 340 0 0 170 0
170 170 0 170 0 0 -85 0 -85 -85 0 -85 0 0 -85 0 -85 170 0 170 0 0 170 0 170
85 0 85 0 0 -170 0 -170 85 0 85 0 0 255 0 255 -425 0 -425 0 0 -85 0 -85 -85
0 -85 0 0 85 0 85 -85 0 -85 0 0 -170z"/>
</g>
</svg>
